<svg width="291" height="138" viewBox="0 0 291 138" fill="none" xmlns="http://www.w3.org/2000/svg">
<g clip-path="url(#clip0)">
<path d="M282.343 10.0025V119.286C282.343 120.615 282.081 121.931 281.572 123.159C281.063 124.387 280.317 125.503 279.376 126.443C278.436 127.383 277.319 128.128 276.09 128.637C274.862 129.145 273.545 129.407 272.215 129.407H41.3038C38.6177 129.407 36.0416 128.341 34.1422 126.443C32.2428 124.545 31.1758 121.97 31.1758 119.286V10.0025C31.2087 7.33931 32.29 4.79628 34.1857 2.92414C36.0813 1.05199 38.6386 0.00144109 41.3038 0H272.215C274.88 0.00144109 277.437 1.05199 279.333 2.92414C281.228 4.79628 282.31 7.33931 282.343 10.0025Z" fill="#F2F2F2"/>
<path opacity="0.3" d="M89.848 23.7559H50.387C49.2328 23.7568 48.1261 24.2155 47.3103 25.0314C46.4944 25.8473 46.0361 26.9536 46.0361 28.107V81.611C46.037 82.7644 46.496 83.8703 47.3125 84.6856C48.1289 85.5009 49.2359 85.9589 50.3901 85.9589H89.848C90.4198 85.9593 90.986 85.8472 91.5144 85.6289C92.0428 85.4106 92.5231 85.0905 92.9277 84.6867C93.3322 84.283 93.6533 83.8036 93.8725 83.2758C94.0917 82.7481 94.2047 82.1824 94.2051 81.611V28.107C94.2051 27.5354 94.0924 26.9693 93.8734 26.4412C93.6544 25.9131 93.3334 25.4333 92.9288 25.0292C92.5241 24.6251 92.0438 24.3047 91.5152 24.0862C90.9866 23.8678 90.42 23.7555 89.848 23.7559Z" fill="#0F4CC5"/>
<path d="M282.343 10.0025H31.1758C31.2087 7.33931 32.29 4.79628 34.1857 2.92414C36.0813 1.05199 38.6386 0.00144109 41.3038 0H272.215C274.88 0.00144109 277.437 1.05199 279.333 2.92414C281.228 4.79628 282.31 7.33931 282.343 10.0025Z" fill="#E6E6E6"/>
<path d="M40.8721 7.18929C42.0813 7.18929 43.0616 6.20967 43.0616 5.00125C43.0616 3.79282 42.0813 2.8132 40.8721 2.8132C39.6629 2.8132 38.6826 3.79282 38.6826 5.00125C38.6826 6.20967 39.6629 7.18929 40.8721 7.18929Z" fill="#F2F2F2"/>
<path d="M47.4405 7.18929C48.6497 7.18929 49.63 6.20967 49.63 5.00125C49.63 3.79282 48.6497 2.8132 47.4405 2.8132C46.2312 2.8132 45.251 3.79282 45.251 5.00125C45.251 6.20967 46.2312 7.18929 47.4405 7.18929Z" fill="#F2F2F2"/>
<path d="M54.0088 7.18929C55.2181 7.18929 56.1983 6.20967 56.1983 5.00125C56.1983 3.79282 55.2181 2.8132 54.0088 2.8132C52.7996 2.8132 51.8193 3.79282 51.8193 5.00125C51.8193 6.20967 52.7996 7.18929 54.0088 7.18929Z" fill="#F2F2F2"/>
<path d="M161.845 20.3176H113.513C112.608 20.3176 111.874 21.0509 111.874 21.9555V28.9947C111.874 29.8993 112.608 30.6326 113.513 30.6326H161.845C162.75 30.6326 163.484 29.8993 163.484 28.9947V21.9555C163.484 21.0509 162.75 20.3176 161.845 20.3176Z" fill="#E6E6E6"/>
<path d="M265.063 20.3176H216.732C215.827 20.3176 215.093 21.0509 215.093 21.9555V28.9947C215.093 29.8993 215.827 30.6326 216.732 30.6326H265.063C265.969 30.6326 266.702 29.8993 266.702 28.9947V21.9555C266.702 21.0509 265.969 20.3176 265.063 20.3176Z" fill="#E6E6E6"/>
<path d="M264.51 40.9477H114.067C112.856 40.9477 111.874 41.9287 111.874 43.1389V105.648C111.874 106.858 112.856 107.839 114.067 107.839H264.51C265.721 107.839 266.703 106.858 266.703 105.648V43.1389C266.703 41.9287 265.721 40.9477 264.51 40.9477Z" fill="#E6E6E6"/>
<path d="M253.56 48.7621H125.017C124.755 48.7621 124.542 48.9749 124.542 49.2373V51.4128C124.542 51.6752 124.755 51.8879 125.017 51.8879H253.56C253.822 51.8879 254.035 51.6752 254.035 51.4128V49.2373C254.035 48.9749 253.822 48.7621 253.56 48.7621Z" fill="#F2F2F2"/>
<path d="M253.56 57.5143H125.017C124.755 57.5143 124.542 57.7271 124.542 57.9895V60.165C124.542 60.4274 124.755 60.6401 125.017 60.6401H253.56C253.822 60.6401 254.035 60.4274 254.035 60.165V57.9895C254.035 57.7271 253.822 57.5143 253.56 57.5143Z" fill="#F2F2F2"/>
<path d="M253.56 66.2665H125.017C124.755 66.2665 124.542 66.4793 124.542 66.7417V68.9172C124.542 69.1796 124.755 69.3923 125.017 69.3923H253.56C253.822 69.3923 254.035 69.1796 254.035 68.9172V66.7417C254.035 66.4793 253.822 66.2665 253.56 66.2665Z" fill="#F2F2F2"/>
<path d="M253.56 75.0187H125.017C124.755 75.0187 124.542 75.2314 124.542 75.4938V77.6693C124.542 77.9317 124.755 78.1444 125.017 78.1444H253.56C253.822 78.1444 254.035 77.9317 254.035 77.6693V75.4938C254.035 75.2314 253.822 75.0187 253.56 75.0187Z" fill="#F2F2F2"/>
<path d="M253.56 83.7709H125.017C124.755 83.7709 124.542 83.9836 124.542 84.246V86.4216C124.542 86.684 124.755 86.8967 125.017 86.8967H253.56C253.822 86.8967 254.035 86.684 254.035 86.4216V84.246C254.035 83.9836 253.822 83.7709 253.56 83.7709Z" fill="#F2F2F2"/>
<path d="M253.56 92.5231H125.017C124.755 92.5231 124.542 92.7358 124.542 92.9982V95.1737C124.542 95.4361 124.755 95.6488 125.017 95.6488H253.56C253.822 95.6488 254.035 95.4361 254.035 95.1737V92.9982C254.035 92.7358 253.822 92.5231 253.56 92.5231Z" fill="#F2F2F2"/>
<path d="M49.1009 63.8909C47.5025 64.4973 43.7835 64.5661 42.1226 64.563C41.6221 64.563 41.3094 64.563 41.3094 64.563L40.249 62.4062L41.3094 60.6057C41.3094 60.6057 42.2821 60.34 43.5739 60.1056C45.4819 59.7618 48.0906 59.4804 49.3354 60.265C51.4217 61.5528 51.1871 63.1001 49.1009 63.8909Z" fill="#FEC2BE"/>
<path opacity="0.1" d="M42.1226 64.5629C41.6221 64.5629 41.3094 64.5629 41.3094 64.5629L40.249 62.4062L41.3094 60.6057C41.3094 60.6057 42.2821 60.34 43.5739 60.1056C42.5261 60.8745 40.005 62.5437 42.1226 64.5629Z" fill="black"/>
<path d="M24.5596 38.072L25.0287 37.5312C25.0287 37.5312 27.4372 41.3447 27.6906 42.7826C27.9439 44.2204 28.2661 45.874 28.2661 45.874C28.2661 45.874 28.8917 47.7494 29.2733 48.5715C29.6549 49.3936 30.0302 50.1907 30.0646 50.5501C30.099 50.9096 29.9207 51.7004 30.6902 52.2037C31.4596 52.7069 31.6285 54.0791 31.6285 54.0791C31.6285 54.0791 34.3623 56.7423 35.8011 56.8142C37.2399 56.8861 41.3812 57.605 41.2373 58.3239C41.0934 59.0429 42.9639 59.4742 43.7177 59.6524C44.4715 59.8306 38.8601 61.9905 42.135 64.7599C42.135 64.7599 40.0487 65.1913 39.8329 65.6976C39.6171 66.204 37.4213 65.4101 37.4213 65.4101C37.4213 65.4101 36.9553 64.2973 35.335 64.2254C33.7148 64.1535 32.8891 63.4315 32.8891 63.3252C32.8891 63.2189 31.2688 62.3187 30.368 62.0749C29.4672 61.8311 28.2817 61.7154 28.2442 61.4653C28.2067 61.2153 22.8486 38.0908 22.8486 38.0908L24.5596 38.072Z" fill="#4C4981"/>
<path d="M24.5596 38.072L25.0287 37.5312C25.0287 37.5312 27.4372 41.3447 27.6906 42.7826C27.9439 44.2204 28.2661 45.874 28.2661 45.874C28.2661 45.874 28.8917 47.7494 29.2733 48.5715C29.6549 49.3936 30.0302 50.1907 30.0646 50.5501C30.099 50.9096 29.9207 51.7004 30.6902 52.2037C31.4596 52.7069 31.6285 54.0791 31.6285 54.0791C31.6285 54.0791 34.3623 56.7423 35.8011 56.8142C37.2399 56.8861 41.3812 57.605 41.2373 58.3239C41.0934 59.0429 42.9639 59.4742 43.7177 59.6524C44.4715 59.8306 38.8601 61.9905 42.135 64.7599C42.135 64.7599 40.0487 65.1913 39.8329 65.6976C39.6171 66.204 37.4213 65.4101 37.4213 65.4101C37.4213 65.4101 36.9553 64.2973 35.335 64.2254C33.7148 64.1535 32.8891 63.4315 32.8891 63.3252C32.8891 63.2189 31.2688 62.3187 30.368 62.0749C29.4672 61.8311 28.2817 61.7154 28.2442 61.4653C28.2067 61.2153 22.8486 38.0908 22.8486 38.0908L24.5596 38.072Z" fill="#192534"/>
<path d="M18.9547 137.862C14.2066 138.753 13.3402 135.112 13.3402 135.112C13.3402 135.112 12.7491 131.873 12.5332 131.633C12.5054 131.586 12.4877 131.534 12.4813 131.48C12.4748 131.427 12.4797 131.372 12.4957 131.32C12.6237 130.771 12.8609 130.254 13.1932 129.798C13.4904 129.448 13.2464 127.991 13.2464 127.991L18.7514 126.588C18.9857 127.108 19.167 127.65 19.2925 128.207C19.3457 128.72 20.1558 131.039 20.0745 131.361C19.9932 131.683 20.4248 132.683 20.478 133.196C20.5312 133.708 21.2068 134.465 21.2631 134.734C21.3528 134.976 21.4573 135.213 21.5759 135.443C21.7214 135.799 21.8385 136.166 21.9262 136.54C22.167 137.672 18.9547 137.862 18.9547 137.862Z" fill="#3F3D56"/>
<path opacity="0.1" d="M18.9547 137.862C14.2066 138.753 13.3402 135.112 13.3402 135.112C13.3402 135.112 12.7491 131.873 12.5332 131.633C12.5054 131.586 12.4877 131.534 12.4813 131.48C12.4748 131.427 12.4797 131.372 12.4957 131.32L13.6374 134.596C13.6374 134.596 14.5757 136.565 18.0914 136.268C20.087 136.1 21.0723 135.731 21.5477 135.44C21.6932 135.796 21.8104 136.163 21.898 136.537C22.167 137.672 18.9547 137.862 18.9547 137.862Z" fill="black"/>
<path opacity="0.1" d="M15.2578 132.736C15.2578 132.736 16.4464 132.764 16.5277 131.798L15.2578 132.736Z" fill="black"/>
<path d="M35.9049 100.859C35.3106 101.747 34.635 105.633 34.635 105.633C34.3768 106.144 34.2297 106.704 34.2034 107.277C34.2315 108.033 33.7717 109.408 33.7717 109.408L32.2735 114.991C32.2735 114.991 32.4361 116.476 31.87 117.526C31.3038 118.576 31.357 118.254 31.626 120.089C31.895 121.924 31.3132 123.621 30.3311 124.153C29.3489 124.684 30.7627 125.959 30.7627 125.959C30.7627 125.959 24.5539 127.632 23.2559 126.607C21.9578 125.581 23.9315 120.511 23.9315 120.511C23.9315 120.511 23.6187 116.248 23.822 115.629C24.0253 115.01 24.9574 109.721 24.9574 109.721C24.9574 109.721 25.5236 107.32 25.3077 106.908C25.0919 106.495 25.4422 105.345 25.4422 105.345C25.4422 105.345 26.3587 104.048 26.2774 103.645C26.1961 103.241 26.5495 102.513 26.5495 102.513C26.5495 102.513 23.797 98.3057 24.0472 97.5118C24.2974 96.7178 23.9409 95.4644 23.9409 95.4644C23.9409 95.4644 23.5937 94.8674 23.1746 94.1547C22.6616 93.2795 22.0423 92.2292 21.8358 91.9041C21.57 91.4853 20.9319 89.7161 20.5847 88.6971C20.4346 88.2626 20.3345 87.9657 20.3345 87.9657C20.3345 87.9657 19.8997 95.8957 19.5243 96.7178C19.149 97.5399 18.586 103.907 18.586 103.907C18.3761 104.477 18.2835 105.083 18.3139 105.689C18.3702 106.686 17.4506 111.028 17.4506 111.028C17.4506 111.028 17.0471 114.103 17.3161 114.913C17.5851 115.723 17.3693 121.68 17.3693 121.68C17.3693 121.68 18.855 122.84 19.246 123.731C19.6369 124.622 19.1928 127.047 19.1928 127.047C19.1928 127.047 14.8732 129.207 12.9558 128.641C11.0385 128.076 11.8236 124.809 11.8236 124.809C11.8236 124.809 10.5286 122.652 10.5286 121.818C10.433 120.677 10.2795 119.542 10.0688 118.417C8.42358 115.397 9.07105 108.061 8.80206 107.477C8.53306 106.892 9.3682 104.664 10.0532 103.676C10.7382 102.688 10.4598 99.9811 10.0532 99.1966C9.64658 98.412 10.4598 95.7176 10.4598 95.7176C10.4598 95.7176 9.67785 90.485 9.70288 89.6755C9.7279 88.8659 9.03039 86.4684 9.03039 86.4684C9.03039 86.4684 8.32662 85.2181 8.48927 84.8492C8.65192 84.4804 7.94815 83.502 8.13895 83.0707C8.32975 82.6393 7.9763 81.3171 7.62598 80.5325C7.3645 79.7229 7.17197 78.8927 7.05046 78.0507C6.88468 77.1129 6.7627 76.3002 6.7627 76.3002L11.2168 72.7118L22.2643 69.8143L26.4494 68.467L30.5156 74.8843C30.5156 74.8843 30.9348 75.5563 31.307 76.3315C31.6198 76.9973 31.9138 77.7412 31.8637 78.207C31.7964 78.7912 31.9298 79.3809 32.2422 79.8793C32.2422 79.8793 34.6725 87.5656 34.6162 89.7755C34.5599 91.9854 35.4795 96.8429 35.4795 96.8429C35.4795 96.8429 36.4992 99.9686 35.9049 100.859Z" fill="#8499F0"/>
<path d="M19.4644 38.3408C19.2924 38.2689 7.55041 33.4239 9.16752 32.4612C10.1278 31.8892 11.3101 29.4667 12.1171 27.5694C12.6832 26.2472 13.0554 25.1781 13.0554 25.1781C13.0554 25.1781 22.4797 23.5059 19.1078 29.2792C18.5757 30.1636 18.1753 31.1207 17.9193 32.1205C16.9653 36.0527 19.3831 38.2689 19.4644 38.3408Z" fill="#FEC2BE"/>
<path opacity="0.1" d="M19.1173 29.2792C18.5852 30.1636 18.1848 31.1207 17.9287 32.1205C16.7328 32.0387 15.582 31.6313 14.6011 30.9426C13.6203 30.2538 12.8467 29.31 12.3643 28.2133C12.2704 28.0033 12.1879 27.7883 12.1172 27.5694C12.6833 26.2472 13.0555 25.1781 13.0555 25.1781C13.0555 25.1781 22.4892 23.5059 19.1173 29.2792Z" fill="black"/>
<path d="M24.973 25.3407C24.9734 26.8503 24.4543 28.3141 23.5029 29.4866C22.5514 30.6592 21.2254 31.4691 19.7473 31.7806C18.2692 32.0921 16.7289 31.8861 15.3847 31.1974C14.0405 30.5086 12.9742 29.3788 12.3646 27.9976C11.993 27.1612 11.8022 26.2558 11.8047 25.3407C11.8038 23.7544 12.3764 22.2211 13.417 21.0233C14.4577 19.8255 15.8963 19.0436 17.4681 18.8218C19.0399 18.6 20.6389 18.9531 21.9708 19.8161C23.3027 20.679 24.2778 21.9938 24.7165 23.5183C24.8881 24.1105 24.9744 24.7241 24.973 25.3407Z" fill="#FEC2BE"/>
<path opacity="0.1" d="M31.3344 76.3315C30.6463 76.9567 30.3804 78.1507 30.3804 78.1507C30.3804 78.1507 27.1431 80.3606 27.3589 78.9571C27.5747 77.5537 25.6855 71.8929 25.6855 71.8929L25.9013 79.6042C25.9013 79.6042 15.5356 79.1197 14.7818 78.3539C14.028 77.5881 9.59892 76.1408 9.59892 76.1408C9.59892 76.1408 8.24456 77.2286 6.99968 78.0538C6.8339 77.1161 6.71191 76.3034 6.71191 76.3034L11.166 72.715L22.2636 69.8143L26.4487 68.467L30.5149 74.8843C30.5149 74.8843 30.9528 75.5657 31.3344 76.3315Z" fill="black"/>
<path d="M31.6659 75.7219C30.8026 76.2627 30.4773 77.7162 30.4773 77.7162C30.4773 77.7162 27.2399 79.9292 27.4558 78.5258C27.6716 77.1223 25.7824 71.4615 25.7824 71.4615L25.9982 79.1728C25.9982 79.1728 15.6356 78.6883 14.8787 77.9225C14.1217 77.1567 9.69893 75.7126 9.69893 75.7126C9.69893 75.7126 5.86417 78.7883 5.16354 78.5258C4.4629 78.2632 6.41468 73.0244 6.41468 73.0244L8.41025 42.3918C8.41025 42.3918 7.87226 33.277 8.68237 32.9519C8.80678 32.9018 8.92119 32.8298 9.02018 32.7394C9.55505 32.2611 9.71456 31.289 9.76148 30.4701C9.81466 29.5011 11.1096 29.9856 11.1096 29.9856L10.3558 30.9577L17.0431 35.0212L17.1026 35.0556C17.3633 34.9193 17.6317 34.7983 17.9064 34.693C18.4976 34.4648 19.2858 34.2491 19.8019 34.4617C20.0879 34.6051 20.3316 34.8205 20.5088 35.0868C20.8904 35.6598 21.1964 36.2797 21.419 36.931L23.8274 41.0383C23.8274 41.0383 25.0786 46.4865 25.0786 46.7022C25.0786 46.9179 25.4571 51.8785 25.8887 52.4193C26.3203 52.96 26.752 55.6545 26.5893 56.464C26.4267 57.2736 26.8583 60.2962 26.8583 60.2962C28.6412 61.7497 29.5577 66.7135 29.5577 66.7135C29.5577 66.7135 32.3727 72.2711 32.5792 72.9181C32.7856 73.5652 32.5291 75.1812 31.6659 75.7219Z" fill="white"/>
<path opacity="0.1" d="M17.0347 35.2432C16.3778 36.2153 14.4855 37.5812 14.4855 37.5812L9.01172 32.9613C9.54658 32.4831 9.7061 31.511 9.75302 30.6951C9.80619 29.723 11.1011 30.2075 11.1011 30.2075L10.9447 30.4107C10.8696 30.5074 10.8157 30.6188 10.7867 30.7378C10.7577 30.8567 10.7541 30.9804 10.7762 31.1009C10.7984 31.2213 10.8457 31.3356 10.9152 31.4365C10.9847 31.5373 11.0747 31.6224 11.1793 31.686L17.0347 35.2432Z" fill="black"/>
<path d="M17.0347 35.015C16.3778 35.9871 14.4855 37.3499 14.4855 37.3499L9.01172 32.7425C9.54658 32.2643 9.7061 31.2922 9.75302 30.4732C9.80619 29.5042 11.1011 29.9887 11.1011 29.9887L10.9447 30.1919C10.8696 30.2886 10.8157 30.4001 10.7867 30.519C10.7577 30.6379 10.7541 30.7617 10.7762 30.8821C10.7984 31.0025 10.8457 31.1169 10.9152 31.2177C10.9847 31.3185 11.0747 31.4036 11.1793 31.4672L17.0347 35.015Z" fill="white"/>
<path opacity="0.1" d="M19.5647 35.7433C18.8578 36.5872 17.8569 37.5437 17.9038 37.0655C17.9508 36.5872 17.3064 35.5245 16.8936 35.0494C17.5349 34.8462 18.2261 34.866 18.8547 35.1056C19.1452 35.2495 19.3907 35.47 19.5647 35.7433Z" fill="black"/>
<path d="M19.6715 35.4182C18.9646 36.2621 17.9637 37.2218 18.0106 36.7404C18.0575 36.259 17.4789 35.4901 17.0723 35.0087C17.6634 34.7805 18.4517 34.568 18.9678 34.7805C19.2548 34.927 19.4977 35.147 19.6715 35.4182Z" fill="white"/>
<path d="M17.9004 39.9037C18.1388 39.9037 18.332 39.7105 18.332 39.4723C18.332 39.2341 18.1388 39.041 17.9004 39.041C17.662 39.041 17.4688 39.2341 17.4688 39.4723C17.4688 39.7105 17.662 39.9037 17.9004 39.9037Z" fill="#192534"/>
<path d="M21.1758 51.5566C21.4142 51.5566 21.6074 51.3634 21.6074 51.1252C21.6074 50.887 21.4142 50.6938 21.1758 50.6938C20.9374 50.6938 20.7441 50.887 20.7441 51.1252C20.7441 51.3634 20.9374 51.5566 21.1758 51.5566Z" fill="#192534"/>
<path d="M24.8818 63.3501C25.1202 63.3501 25.3135 63.157 25.3135 62.9188C25.3135 62.6806 25.1202 62.4874 24.8818 62.4874C24.6434 62.4874 24.4502 62.6806 24.4502 62.9188C24.4502 63.157 24.6434 63.3501 24.8818 63.3501Z" fill="#192534"/>
<path d="M24.9912 76.1877C25.2296 76.1877 25.4229 75.9946 25.4229 75.7564C25.4229 75.5181 25.2296 75.325 24.9912 75.325C24.7528 75.325 24.5596 75.5181 24.5596 75.7564C24.5596 75.9946 24.7528 76.1877 24.9912 76.1877Z" fill="#192534"/>
<path d="M19.8086 45.4051C20.047 45.4051 20.2402 45.212 20.2402 44.9737C20.2402 44.7355 20.047 44.5424 19.8086 44.5424C19.5702 44.5424 19.377 44.7355 19.377 44.9737C19.377 45.212 19.5702 45.4051 19.8086 45.4051Z" fill="#192534"/>
<path d="M22.7236 57.3799C22.962 57.3799 23.1553 57.1868 23.1553 56.9486C23.1553 56.7103 22.962 56.5172 22.7236 56.5172C22.4852 56.5172 22.292 56.7103 22.292 56.9486C22.292 57.1868 22.4852 57.3799 22.7236 57.3799Z" fill="#192534"/>
<path d="M25.5664 69.1391C25.8048 69.1391 25.9981 68.946 25.9981 68.7077C25.9981 68.4695 25.8048 68.2764 25.5664 68.2764C25.328 68.2764 25.1348 68.4695 25.1348 68.7077C25.1348 68.946 25.328 69.1391 25.5664 69.1391Z" fill="#192534"/>
<path d="M24.9199 77.6256C25.1583 77.6256 25.3516 77.4325 25.3516 77.1942C25.3516 76.956 25.1583 76.7629 24.9199 76.7629C24.6815 76.7629 24.4883 76.956 24.4883 77.1942C24.4883 77.4325 24.6815 77.6256 24.9199 77.6256Z" fill="#192534"/>
<path opacity="0.1" d="M9.01485 33.002C9.01485 33.002 9.08679 32.3518 8.15157 33.4677C7.21634 34.5836 5.45222 35.5526 5.45222 35.5526C5.45222 35.5526 1.45795 38.3658 1.24213 39.6536C1.02631 40.9414 -0.268622 46.5585 0.41325 48.4277C1.09512 50.2969 6.31239 59.2522 6.31239 59.2522C6.31239 59.2522 4.94551 60.8714 5.27081 62.775C5.59611 64.6786 5.99022 67.3074 5.8088 67.8825C5.62738 68.4577 6.02462 69.8955 5.41469 70.3988C4.80476 70.902 4.16355 71.7647 6.06216 72.9181C6.06216 72.9181 6.42186 73.8871 6.09656 74.1028C5.77127 74.3185 10.8822 76.5503 12.8965 75.3531C14.9109 74.156 18.5486 64.6723 18.6205 62.5374C18.6924 60.4025 17.5039 53.4039 16.8564 51.7504C16.2089 50.0968 14.2665 43.6577 13.4376 42.2199C12.6088 40.782 9.01485 33.002 9.01485 33.002Z" fill="#0F4CC5"/>
<path d="M8.81368 33.002C8.81368 33.002 8.88562 32.3518 7.9504 33.4677C7.01517 34.5836 5.25105 35.5526 5.25105 35.5526C5.25105 35.5526 1.25678 38.3658 1.04096 39.6536C0.825136 40.9414 -0.469794 46.5585 0.212078 48.4277C0.893951 50.2969 6.11434 59.2522 6.11434 59.2522C6.11434 59.2522 4.74747 60.8745 5.06025 62.775C5.37304 64.6755 5.78279 67.3074 5.60137 67.8825C5.41996 68.4577 5.8172 69.8955 5.20726 70.3988C4.59733 70.902 3.95612 71.7647 5.85473 72.9181C5.85473 72.9181 6.21443 73.8871 5.88913 74.1028C5.56384 74.3185 10.6748 76.5503 12.6891 75.3531C14.7034 74.156 18.3411 64.6723 18.4131 62.5374C18.485 60.4025 17.2964 53.4039 16.649 51.7504C16.0015 50.0968 14.0528 43.6827 13.224 42.2418C12.3951 40.8008 8.81368 33.002 8.81368 33.002Z" fill="#0F4CC5"/>
<path opacity="0.1" d="M7.35938 39.1129C7.35938 39.1129 10.4528 42.5293 10.3465 44.7955C10.3465 44.7955 10.3778 41.129 7.35938 39.1129Z" fill="#0F4CC5"/>
<path opacity="0.1" d="M11.6299 44.7236C11.6299 44.833 13.7162 52.6006 13.6098 53.5696C13.5035 54.5386 14.2197 57.4174 14.2197 57.4174L15.1925 57.1674C15.1925 57.1674 14.4356 53.1757 14.2917 51.7004C14.1478 50.225 11.6299 44.7236 11.6299 44.7236Z" fill="black"/>
<path opacity="0.1" d="M12.4681 66.876C12.3961 66.9823 7.53857 72.4868 8.90544 72.8806C10.2723 73.2745 12.4681 66.876 12.4681 66.876Z" fill="black"/>
<path opacity="0.1" d="M8.47302 65.4725C8.36668 65.5444 6.53062 69.4298 6.3148 68.3858C6.09898 67.3418 7.8975 71.2271 8.19151 68.3514L8.47302 65.4725Z" fill="black"/>
<path opacity="0.1" d="M17.8038 34.2241C17.8038 34.2241 19.8087 33.0019 22.3298 36.1277C22.3298 36.1277 24.1627 37.1717 24.7038 37.4249C25.245 37.6781 25.8549 44.3642 25.8549 44.3642C25.8549 44.3642 27.0435 47.2399 26.7182 48.8965C26.3929 50.5532 27.6565 56.2296 27.6565 56.2296C27.6565 56.2296 29.7459 66.4447 29.674 66.7322C29.6021 67.0198 27.5471 63.5314 27.5815 61.8123C27.6159 60.0931 25.8549 54.6917 25.6047 54.3667C25.3544 54.0416 23.6247 44.8018 23.6247 44.8018C23.6247 44.8018 22.2203 40.8695 21.3257 39.5817C20.4312 38.2939 19.3083 35.8308 18.8422 35.4088C18.5055 35.1181 18.1296 34.8761 17.7256 34.6899L17.8038 34.2241Z" fill="#0F4CC5"/>
<path d="M17.7756 34.2241C17.7756 34.2241 20.0246 33.0019 22.5456 36.1277C22.5456 36.1277 24.3785 37.1717 24.9197 37.4249C25.4608 37.6781 26.0707 44.3642 26.0707 44.3642C26.0707 44.3642 27.2593 47.2399 26.934 48.8965C26.6087 50.5532 27.8723 56.2296 27.8723 56.2296C27.8723 56.2296 29.9618 66.4447 29.8898 66.7322C29.8179 67.0198 27.766 63.5314 27.8004 61.806C27.8348 60.0806 26.0738 54.6855 25.8236 54.3604C25.5734 54.0353 23.8437 44.7955 23.8437 44.7955C23.8437 44.7955 22.4393 40.8758 21.5416 39.5817C20.6439 38.2876 19.5241 35.8308 19.0581 35.4088C18.6582 35.0949 18.2076 34.8517 17.7256 34.6899L17.7756 34.2241Z" fill="#4267B2"/>
<path opacity="0.1" d="M24.6754 83.7584C24.0499 85.1275 23.515 92.0011 23.1553 94.1828C22.6423 93.3076 22.023 92.2574 21.8166 91.9323C21.5507 91.5134 20.9126 89.7442 20.5654 88.7252C20.9721 87.7375 22.095 84.9055 22.095 83.8678C22.095 82.5987 24.1468 81.0077 24.1468 81.0077C24.5148 81.3513 24.7642 81.8028 24.8592 82.297C24.9542 82.7913 24.8899 83.303 24.6754 83.7584Z" fill="black"/>
<path opacity="0.1" d="M10.9131 104.876C10.9131 104.876 15.6612 102.854 17.0656 104.282C18.47 105.711 10.9131 104.876 10.9131 104.876Z" fill="black"/>
<path opacity="0.1" d="M13.5844 105.686C13.5844 105.686 8.77999 108.383 10.4284 108.843C12.0767 109.302 13.5844 105.686 13.5844 105.686Z" fill="black"/>
<path opacity="0.1" d="M27.9408 103.338C27.9408 103.338 25.8921 103.476 26.674 103.879C27.456 104.282 27.9408 103.338 27.9408 103.338Z" fill="black"/>
<path opacity="0.1" d="M30.5065 103.96C30.4783 104.095 24.5417 106.011 25.7021 106.873C26.8625 107.736 30.5065 103.96 30.5065 103.96Z" fill="black"/>
<path opacity="0.1" d="M11.6299 120.468C12.5213 120.33 17.4884 118.039 15.5428 119.683C15.0235 120.157 14.3848 120.48 13.6954 120.618C13.006 120.757 12.2919 120.704 11.6299 120.468Z" fill="black"/>
<path opacity="0.1" d="M14.0693 122.274C14.0693 122.274 14.501 123.947 16.1494 123.731C17.7977 123.515 14.0693 122.274 14.0693 122.274Z" fill="black"/>
<path opacity="0.1" d="M12.6924 125.672C12.9895 125.591 16.5271 123.971 16.6053 124.734C16.6835 125.497 13.2335 126.81 12.9645 126.406C12.8078 126.191 12.7136 125.937 12.6924 125.672Z" fill="black"/>
<path opacity="0.1" d="M24.1406 123.731C24.5723 123.703 28.6197 122.409 29.4298 123.568L24.1406 123.731Z" fill="black"/>
<path opacity="0.1" d="M27.8066 124.484C27.8066 124.484 28.5104 123.859 29.2111 124.172C29.9117 124.484 27.8066 124.484 27.8066 124.484Z" fill="black"/>
<path opacity="0.1" d="M18.8486 131.173C18.8947 131.401 19.0057 131.611 19.1683 131.777C19.3309 131.944 19.5382 132.06 19.7651 132.111L18.8486 131.173Z" fill="black"/>
<path d="M39.4386 133.705C39.1696 134.812 35.3912 134.918 33.5833 134.621C31.7754 134.324 28.0219 133.246 28.0219 133.246C28.0219 133.246 24.084 132.871 22.9235 132.383C21.7631 131.895 22.6796 130.658 22.6796 130.658V130.542C22.6514 130.092 22.5732 128.454 22.8516 128.013C23.1644 127.504 22.9861 125.825 22.9861 125.825C22.9861 125.825 28.5724 126.903 28.6788 126.391C28.7851 125.878 29.6516 125.141 30.055 124.987C30.4585 124.834 30.7588 126.338 30.7588 126.338C30.7588 126.338 33.2955 128.495 33.4581 129.276C33.6208 130.057 35.4006 130.464 35.4006 130.464C35.4006 130.464 38.0999 131.217 38.8005 131.595C39.0042 131.691 39.1796 131.838 39.31 132.021C39.4404 132.205 39.5213 132.419 39.545 132.642C39.5753 133 39.5393 133.361 39.4386 133.705Z" fill="#3F3D56"/>
<path opacity="0.1" d="M39.4386 133.705C39.1696 134.812 35.3912 134.918 33.5833 134.621C31.7754 134.324 28.0219 133.246 28.0219 133.246C28.0219 133.246 24.084 132.871 22.9235 132.383C21.7631 131.895 22.6796 130.658 22.6796 130.658V130.542L28.3285 131.792C28.3285 131.792 31.1091 132.98 32.8889 132.98C34.4528 132.98 37.9279 133.605 39.545 132.667C39.5723 133.017 39.5363 133.368 39.4386 133.705Z" fill="black"/>
<path opacity="0.1" d="M31.8012 129.448C31.8012 129.448 31.5322 131.226 30.4531 131.82L31.8012 129.448Z" fill="black"/>
<path opacity="0.1" d="M24.7161 23.5183C24.616 23.5724 24.5114 23.6173 24.4033 23.6528C23.8966 23.7872 23.4024 23.4465 22.952 23.1745C22.5016 22.9026 21.8823 22.6994 21.4913 23.0526C20.9846 23.5121 21.3537 24.4998 20.8313 24.9437C20.4998 25.225 19.9743 25.1281 19.6052 25.3594C19.2361 25.5907 19.1266 26.0971 19.0328 26.5347C18.939 26.9723 18.7544 27.4725 18.3259 27.6006C17.8974 27.7288 17.497 27.4474 17.0748 27.4631C16.9872 27.4631 16.8871 27.4787 16.8276 27.4131C16.808 27.3852 16.794 27.3538 16.7865 27.3205C16.7789 27.2873 16.7781 27.2529 16.7839 27.2193C16.839 26.6945 16.7933 26.164 16.6494 25.6564C16.5731 25.4036 16.4314 25.1754 16.2387 24.9948C16.0459 24.8143 15.8088 24.6877 15.5515 24.628C14.7945 24.5123 14.1565 25.175 13.7092 25.8002C13.2411 26.4573 12.8149 27.1432 12.433 27.8538C12.4094 27.8994 12.3885 27.9464 12.3705 27.9945C11.9989 27.158 11.8081 26.2527 11.8106 25.3376C11.8097 23.7513 12.3823 22.218 13.4229 21.0202C14.4636 19.8223 15.9022 19.0405 17.474 18.8187C19.0457 18.5969 20.6448 18.95 21.9766 19.8129C23.3085 20.6759 24.2836 21.9907 24.7224 23.5152L24.7161 23.5183Z" fill="black"/>
<path d="M13.7027 25.6939C14.1499 25.0688 14.7849 24.4092 15.545 24.5249C15.8014 24.5843 16.0374 24.7109 16.2287 24.8916C16.42 25.0723 16.5597 25.3007 16.6335 25.5533C16.7799 26.0605 16.8266 26.5912 16.7711 27.1162C16.7592 27.185 16.7749 27.2557 16.8149 27.3131C16.8743 27.3756 16.9744 27.3662 17.062 27.3631C17.4842 27.3631 17.9065 27.6225 18.3131 27.5006C18.7197 27.3787 18.9387 26.8755 19.0231 26.4347C19.1076 25.994 19.2139 25.497 19.5955 25.2594C19.9771 25.0219 20.487 25.125 20.8217 24.8406C21.3409 24.3967 20.9749 23.4121 21.4816 22.9495C21.8726 22.5994 22.4951 22.7995 22.9423 23.0714C23.3896 23.3433 23.8807 23.6966 24.3937 23.5496C24.5611 23.489 24.7251 23.419 24.8847 23.3402C25.6855 23.0276 26.7239 23.5528 27.387 23.0058C27.6267 22.7676 27.7984 22.4697 27.8844 22.143C28.0663 21.7027 28.1893 21.2402 28.2503 20.7677C28.3068 20.2912 28.1756 19.8114 27.8844 19.4299C27.4558 18.9235 26.7333 18.8047 26.1859 18.4265C25.7411 18.0783 25.3719 17.6433 25.1006 17.148C24.8294 16.6526 24.4726 16.2092 24.0465 15.8384C23.8301 15.656 23.5678 15.5365 23.2882 15.493C23.0085 15.4494 22.7223 15.4835 22.4607 15.5914C22.3026 15.7013 22.127 15.7837 21.9414 15.8352C21.7396 15.8386 21.5411 15.7844 21.369 15.6789C19.4923 14.7975 17.3185 14.9538 15.2666 15.2163C14.4395 15.2841 13.628 15.4802 12.8613 15.7977C12.4794 15.9599 12.137 16.2025 11.8574 16.5089C11.5778 16.8152 11.3676 17.1782 11.241 17.5732C11.0721 18.1983 11.2004 18.8954 11.0002 19.5174C10.8626 19.9425 10.5811 20.3051 10.4215 20.7208C9.98677 21.8586 10.5091 23.1089 10.7343 24.3061C10.9752 25.6158 10.8532 27.0318 11.4099 28.2696C11.5194 28.5134 11.6414 28.9385 11.9167 28.7791C12.12 28.6603 12.317 27.9695 12.4328 27.7538C12.8131 27.0417 13.2372 26.3537 13.7027 25.6939Z" fill="#192534"/>
<path opacity="0.1" d="M1.8546 46.7742L0.881836 49.5436C0.881836 49.5436 3.18394 58.102 4.26305 59.8993C5.34216 61.6966 6.93736 64.0003 6.93736 64.0003C8.74019 64.8114 10.7451 65.0629 12.6926 64.7224C15.7892 64.0972 24.8193 62.4906 24.8193 62.4906C25.0327 62.5292 25.2526 62.5095 25.4558 62.4336C25.6589 62.3577 25.8378 62.2283 25.9735 62.0592C26.3676 61.4841 28.4195 61.1965 28.4195 61.1965C28.4195 61.1965 30.7935 57.7582 27.8784 56.3078C27.8784 56.3078 27.5187 57.0986 25.9735 56.5579C24.4283 56.0171 23.956 56.9892 23.956 56.9892C23.956 56.9892 21.4537 57.4925 20.0337 57.3018C18.6136 57.1111 15.1417 57.0486 14.782 56.761C14.7361 56.7214 14.6828 56.6913 14.6252 56.6724C14.5676 56.6534 14.5068 56.6461 14.4463 56.6507C14.3858 56.6554 14.3269 56.6719 14.2728 56.6994C14.2188 56.727 14.1707 56.7649 14.1314 56.811C13.7129 56.6605 13.3228 56.4407 12.9773 56.1609C12.6895 55.8483 12.2954 56.5235 12.2954 56.5235C12.2954 56.5235 11.7918 56.2328 11.9357 55.8733C12.0796 55.5138 11.4665 54.1479 11.4665 54.1479C11.3042 53.6251 11.2678 53.0714 11.3602 52.5318C11.5384 51.8098 10.4593 49.2216 10.4593 49.2216C10.4456 48.7857 10.4941 48.3499 10.6032 47.9276C10.7846 47.2805 9.23634 45.9865 9.23634 45.9865C9.23634 45.9865 7.72558 38.6503 4.52266 41.0602C1.31974 43.4702 1.8546 46.7742 1.8546 46.7742Z" fill="#4267B2"/>
<path opacity="0.1" d="M25.0288 58.3521C24.9913 58.6052 24.1999 59.6024 24.4877 59.7899C24.7754 59.9775 25.2446 59.8618 24.8005 60.4401C24.3563 61.0183 24.4063 61.8779 24.6941 61.7685C24.9819 61.6591 25.451 60.3682 25.451 59.8618C25.3811 59.3414 25.239 58.8333 25.0288 58.3521Z" fill="#4267B2"/>
<g opacity="0.1">
<path opacity="0.1" d="M16.634 24.9281C16.5581 24.6759 16.4169 24.4483 16.2246 24.2683C16.0324 24.0882 15.796 23.9622 15.5393 23.9028C14.7792 23.7872 14.1442 24.4498 13.697 25.075C13.2289 25.7321 12.8027 26.418 12.4208 27.1286C12.3051 27.3443 12.108 28.032 11.9047 28.1507C11.6294 28.3133 11.5075 27.885 11.398 27.6412C10.8412 26.4066 10.9632 24.9875 10.7224 23.6778C10.5276 22.9164 10.373 22.1454 10.2594 21.3678C10.175 22.3055 10.5441 23.2964 10.7224 24.2529C10.9632 25.5626 10.8412 26.9817 11.398 28.2195C11.5075 28.4602 11.6294 28.8884 11.9047 28.7259C12.108 28.6071 12.3051 27.9194 12.4208 27.7038C12.8027 26.9931 13.2289 26.3072 13.697 25.6501C14.1442 25.025 14.7792 24.3623 15.5393 24.478C15.796 24.5373 16.0324 24.6634 16.2246 24.8434C16.4169 25.0235 16.5581 25.2511 16.634 25.5032C16.7217 25.7646 16.7712 26.0373 16.781 26.3128C16.8189 25.8461 16.7691 25.3764 16.634 24.9281Z" fill="black"/>
<path opacity="0.1" d="M27.8946 21.5241C27.8086 21.8508 27.6369 22.1486 27.3973 22.3868C26.7404 22.937 25.702 22.4181 24.895 22.7244C24.7352 22.8022 24.5713 22.8711 24.4039 22.9307C23.8972 23.0682 23.403 22.7275 22.9526 22.4556C22.5022 22.1836 21.8828 21.9805 21.4919 22.3337C20.9851 22.7932 21.3542 23.7778 20.8319 24.2248C20.4972 24.5061 19.9748 24.4092 19.6058 24.6405C19.2367 24.8718 19.1272 25.3782 19.0334 25.8158C18.9395 26.2534 18.755 26.7535 18.3233 26.8817C17.8917 27.0098 17.4976 26.7285 17.0722 26.7442C16.9846 26.7442 16.8845 26.7598 16.8251 26.6941C16.8118 26.6783 16.8012 26.6603 16.7938 26.641C16.7938 26.7848 16.7938 26.9317 16.7938 27.0755C16.788 27.1091 16.7889 27.1435 16.7964 27.1767C16.8039 27.21 16.8179 27.2414 16.8376 27.2693C16.897 27.3349 16.9971 27.3224 17.0847 27.3193C17.507 27.3193 17.9292 27.5787 18.3359 27.4568C18.7425 27.3349 18.9614 26.8317 19.0459 26.3941C19.1303 25.9565 19.2367 25.4563 19.6183 25.2157C19.9999 24.975 20.5097 25.0812 20.8444 24.7999C21.3667 24.3561 20.9977 23.3683 21.5044 22.9245C21.8954 22.5712 22.5178 22.7744 22.9651 23.0464C23.4124 23.3183 23.9034 23.6715 24.4164 23.5246C24.5884 23.4777 24.7292 23.3777 24.9075 23.3152C25.7082 23.0026 26.7467 23.5277 27.4098 22.9776C27.6449 22.7379 27.8122 22.4402 27.8946 22.1149C28.0761 21.6754 28.1991 21.2141 28.2605 20.7427C28.2777 20.5827 28.2777 20.4213 28.2605 20.2613C28.1887 20.6951 28.0658 21.119 27.8946 21.5241Z" fill="black"/>
</g>
<path d="M77.1802 19.3798H37.7192C35.3146 19.3798 33.3652 21.3279 33.3652 23.7309V77.2317C33.3652 79.6348 35.3146 81.5828 37.7192 81.5828H77.1802C79.5849 81.5828 81.5342 79.6348 81.5342 77.2317V23.7309C81.5342 21.3279 79.5849 19.3798 77.1802 19.3798Z" fill="#0F4CC5"/>
<path d="M57.4461 68.142C63.8377 68.142 69.0192 62.964 69.0192 56.5766C69.0192 50.1892 63.8377 45.0112 57.4461 45.0112C51.0545 45.0112 45.873 50.1892 45.873 56.5766C45.873 62.964 51.0545 68.142 57.4461 68.142Z" fill="#F2F2F2"/>
<path d="M74.6435 81.5829H40.2559C40.3726 78.9742 41.4916 76.5111 43.3799 74.7061C45.2682 72.9012 47.7802 71.8936 50.3932 71.8929H64.5061C67.1191 71.8936 69.6312 72.9012 71.5195 74.7061C73.4077 76.5111 74.5267 78.9742 74.6435 81.5829Z" fill="#F2F2F2"/>
<path d="M27.6533 56.6985C27.6533 56.6985 31.9354 53.8853 34.006 55.2794C36.0766 56.6735 39.4578 58.6239 36.1298 60.043C32.8018 61.4621 28.207 61.1871 28.207 61.1871L27.6533 56.6985Z" fill="#FEC2BE"/>
<path d="M1.63876 46.7742L0.681641 49.5436C0.681641 49.5436 2.98374 58.102 4.06285 59.8993C5.14196 61.6966 6.71214 64.0003 6.71214 64.0003C8.51497 64.8114 10.5199 65.0629 12.4674 64.7224C15.564 64.0972 24.5941 62.4906 24.5941 62.4906C24.8075 62.5292 25.0274 62.5095 25.2306 62.4336C25.4337 62.3577 25.6126 62.2283 25.7483 62.0592C26.1424 61.481 28.2068 61.1871 28.2068 61.1871C28.2068 61.1871 30.5808 57.7488 27.6656 56.2984C27.6656 56.2984 27.3059 57.0892 25.7608 56.5485C24.2156 56.0077 23.7433 56.9798 23.7433 56.9798C23.7433 56.9798 21.2254 57.4831 19.821 57.2924C18.4166 57.1018 14.929 57.0392 14.5693 56.7517C14.4783 56.6711 14.3592 56.6299 14.2378 56.6369C14.1165 56.6439 14.0029 56.6987 13.9219 56.7892C13.5034 56.6387 13.1132 56.4189 12.7677 56.139C12.4799 55.8264 12.0858 56.5016 12.0858 56.5016C12.0858 56.5016 11.5822 56.2109 11.7261 55.8514C11.87 55.492 11.2569 54.126 11.2569 54.126C11.0946 53.6032 11.0582 53.0495 11.1506 52.51C11.3289 51.7879 10.2497 49.1998 10.2497 49.1998C10.236 48.7638 10.2845 48.3281 10.3936 47.9057C10.575 47.2587 9.02676 45.9646 9.02676 45.9646C9.02676 45.9646 7.516 38.6284 4.31308 41.0384C1.11016 43.4484 1.63876 46.7742 1.63876 46.7742Z" fill="#4267B2"/>
<path d="M273.984 131.483C274.923 129.76 273.859 127.647 272.646 126.113C271.432 124.578 269.953 122.987 269.984 121.021C270.028 118.208 273.018 116.548 275.404 115.057C277.175 113.948 278.808 112.636 280.271 111.146C280.883 110.571 281.389 109.893 281.767 109.143C282.261 108.046 282.245 106.792 282.214 105.589C282.112 101.575 281.914 97.5649 281.62 93.5577" stroke="#3F3D56" stroke-width="4" stroke-miterlimit="10"/>
<path d="M286.158 93.3388C286.124 92.6041 285.906 91.8895 285.524 91.2612C285.141 90.6329 284.606 90.1112 283.968 89.7442L282.986 91.6884L283.014 89.3347C282.546 89.1964 282.057 89.1383 281.569 89.1628C280.705 89.2056 279.873 89.5033 279.178 90.0182C278.483 90.5331 277.956 91.2423 277.664 92.056C277.372 92.8698 277.328 93.7519 277.537 94.5908C277.746 95.4298 278.199 96.188 278.839 96.77C279.479 97.3519 280.277 97.7313 281.132 97.8605C281.988 97.9896 282.862 97.8627 283.645 97.4956C284.429 97.1286 285.086 96.5379 285.533 95.7981C285.981 95.0583 286.199 94.2025 286.161 93.3388H286.158Z" fill="#57B894"/>
<path d="M278.33 123.031C277.894 123.898 277.181 124.596 276.305 125.015C275.428 125.433 274.437 125.549 273.488 125.343C272.539 125.137 271.685 124.622 271.061 123.878C270.437 123.134 270.078 122.203 270.041 121.233C270.01 120.626 270.107 120.019 270.326 119.452C270.64 118.614 271.204 117.893 271.942 117.385C272.679 116.877 273.555 116.608 274.45 116.613C275.346 116.618 276.218 116.898 276.95 117.414C277.682 117.929 278.237 118.657 278.542 119.499L275.799 121.73L278.815 121.03C278.817 121.726 278.65 122.413 278.33 123.031Z" fill="#57B894"/>
<path d="M276.162 114.513C275.07 114.591 273.99 114.258 273.132 113.58C272.274 112.902 271.701 111.927 271.526 110.848C271.351 109.769 271.587 108.663 272.186 107.749C272.786 106.835 273.707 106.178 274.767 105.908L274.745 107.714L275.739 105.748C276.901 105.694 278.036 106.103 278.896 106.885C279.755 107.667 280.269 108.759 280.323 109.92C280.378 111.08 279.968 112.215 279.186 113.074C278.403 113.933 277.31 114.446 276.149 114.5L276.162 114.513Z" fill="#57B894"/>
<path d="M286.818 107.427C286.243 107.454 285.668 107.367 285.126 107.173C284.585 106.978 284.087 106.678 283.661 106.291C283.235 105.904 282.89 105.436 282.645 104.916C282.4 104.395 282.26 103.832 282.232 103.257C282.205 102.682 282.292 102.108 282.487 101.567C282.682 101.025 282.982 100.528 283.369 100.102C283.756 99.6766 284.224 99.3315 284.745 99.0866C285.266 98.8416 285.83 98.7016 286.405 98.6745C287.226 98.6338 288.042 98.8267 288.757 99.2309L287.981 101.353L289.58 99.8217C290.435 100.604 290.944 101.693 290.997 102.851C291.018 103.257 290.98 103.665 290.884 104.06C290.665 104.987 290.15 105.817 289.416 106.425C288.682 107.032 287.77 107.384 286.818 107.427Z" fill="#57B894"/>
<path opacity="0.1" d="M285.567 94.5079C284.554 94.6204 283.568 94.933 282.552 94.9987C281.535 95.0643 280.419 94.8174 279.774 94.0265C279.427 93.6014 279.255 93.0638 278.964 92.5981C278.685 92.167 278.305 91.8107 277.857 91.5603C277.592 92.1138 277.446 92.7168 277.428 93.3303C277.411 93.9439 277.524 94.5541 277.758 95.1214C277.992 95.6888 278.343 96.2005 278.788 96.6234C279.234 97.0463 279.763 97.3709 280.342 97.5761C280.92 97.7814 281.536 97.8626 282.148 97.8146C282.76 97.7666 283.356 97.5905 283.895 97.2976C284.435 97.0047 284.907 96.6016 285.281 96.1146C285.655 95.6275 285.922 95.0673 286.065 94.4704C285.899 94.4798 285.733 94.4892 285.567 94.5079Z" fill="black"/>
<path opacity="0.1" d="M286.819 107.427C286.062 107.465 285.307 107.306 284.63 106.966C283.953 106.626 283.375 106.116 282.955 105.486C282.534 104.856 282.284 104.127 282.229 103.372C282.175 102.616 282.317 101.859 282.643 101.175C282.992 101.409 283.292 101.71 283.525 102.06C283.838 102.529 284.026 103.076 284.395 103.507C285.08 104.31 286.246 104.576 287.307 104.526C288.367 104.476 289.387 104.176 290.434 104.079C290.581 104.079 290.729 104.057 290.876 104.054C290.658 104.981 290.145 105.811 289.413 106.42C288.681 107.028 287.77 107.382 286.819 107.427Z" fill="black"/>
<path opacity="0.1" d="M276.161 114.513C275.411 114.551 274.663 114.396 273.99 114.063C273.317 113.729 272.742 113.228 272.318 112.607C271.895 111.987 271.639 111.268 271.574 110.52C271.509 109.772 271.638 109.02 271.948 108.336C272.314 108.574 272.632 108.877 272.886 109.23C273.227 109.709 273.44 110.265 273.825 110.709C274.563 111.531 275.808 111.822 276.931 111.797C278.054 111.772 279.064 111.506 280.146 111.422C279.882 112.285 279.357 113.045 278.644 113.598C277.931 114.152 277.063 114.471 276.161 114.513Z" fill="black"/>
<path opacity="0.1" d="M278.33 123.031C277.894 123.898 277.181 124.596 276.305 125.015C275.428 125.433 274.437 125.549 273.488 125.343C272.539 125.137 271.685 124.622 271.061 123.878C270.437 123.134 270.078 122.203 270.041 121.233C270.01 120.626 270.107 120.019 270.326 119.452C270.687 119.689 271.012 119.979 271.289 120.311C271.705 120.821 271.98 121.396 272.465 121.874C273.363 122.752 274.811 123.124 276.1 123.149C276.845 123.154 277.589 123.114 278.33 123.031Z" fill="black"/>
<path d="M267.366 129.498C267.366 129.498 270.832 129.392 271.873 128.651C272.915 127.91 277.191 127.019 277.463 128.21C277.735 129.401 282.671 134.149 278.758 134.168C274.845 134.187 269.668 133.561 268.627 132.917C267.585 132.274 267.366 129.498 267.366 129.498Z" fill="#656380"/>
<path opacity="0.2" d="M278.83 133.755C274.917 133.786 269.74 133.146 268.696 132.505C267.904 132.02 267.588 130.289 267.482 129.489H267.366C267.366 129.489 267.585 132.283 268.617 132.927C269.65 133.571 274.839 134.202 278.748 134.177C279.878 134.177 280.269 133.768 280.247 133.174C280.1 133.524 279.668 133.749 278.83 133.755Z" fill="black"/>
</g>
<defs>
<clipPath id="clip0">
<rect width="291" height="138" fill="white"/>
</clipPath>
</defs>
</svg>
