<svg width="191" height="195" viewBox="0 0 191 195" fill="none" xmlns="http://www.w3.org/2000/svg">
<g clip-path="url(#clip0)">
<path d="M81.7996 12.6181L0.0166016 35.5688L30.2576 142.855L112.041 119.904L81.7996 12.6181Z" fill="url(#paint0_linear)"/>
<path d="M82.3312 13.4643L-0.00195312 36.0463L11.3133 77.1194L93.6465 54.5374L82.3312 13.4643Z" fill="url(#paint1_linear)"/>
<path d="M81.4458 14.7149L1.40332 36.6686L30.3993 141.921L110.442 119.967L81.4458 14.7149Z" fill="#EEEEEE"/>
<path d="M81.5091 14.5901L1.28223 36.5944L12.3337 76.7099L92.5606 54.7056L81.5091 14.5901Z" fill="#0F4CC5"/>
<path d="M54.0879 77.431L32.3252 83.4L32.7813 85.0557L54.544 79.0867L54.0879 77.431Z" fill="#BDBDBD"/>
<path d="M55.9141 84.0576L34.1514 90.0266L34.6075 91.6822L56.3702 85.7132L55.9141 84.0576Z" fill="#F5F5F5"/>
<path d="M90.0441 71.1336L33.2393 86.7137L33.6954 88.3694L90.5002 72.7892L90.0441 71.1336Z" fill="#69F0AE"/>
<path d="M58.6211 36.9985L36.8584 42.9675L37.3145 44.6231L59.0772 38.6541L58.6211 36.9985Z" fill="white"/>
<path d="M72.9132 37.0358L37.8711 46.647L38.3272 48.3026L73.3693 38.6914L72.9132 37.0358Z" fill="white"/>
<path opacity="0.2" d="M66.8124 43.8577L46.6105 49.3986C46.1795 49.5168 45.9261 49.9612 46.0446 50.3913L46.1224 50.6735C46.2408 51.1036 46.6863 51.3564 47.1173 51.2381L67.3192 45.6973C67.7502 45.579 68.0036 45.1346 67.8851 44.7045L67.8073 44.4223C67.6889 43.9923 67.2434 43.7395 66.8124 43.8577Z" fill="black"/>
<path d="M24.6115 91.753C26.7512 91.1661 28.0089 88.9597 27.4208 86.8247C26.8326 84.6898 24.6213 83.4348 22.4816 84.0217C20.342 84.6085 19.0842 86.815 19.6724 88.9499C20.2605 91.0849 22.4719 92.3398 24.6115 91.753Z" fill="#69F0AE"/>
<path d="M58.503 93.4418L36.7402 99.4108L37.1963 101.066L58.9591 95.0974L58.503 93.4418Z" fill="#BDBDBD"/>
<path d="M60.3252 100.068L38.5625 106.037L39.0186 107.693L60.7813 101.724L60.3252 100.068Z" fill="#F5F5F5"/>
<path d="M94.4552 87.1443L37.6504 102.724L38.1065 104.38L94.9113 88.7999L94.4552 87.1443Z" fill="#E0E0E0"/>
<path d="M29.0217 107.764C31.1614 107.178 32.4191 104.971 31.8309 102.836C31.2428 100.701 29.0314 99.4462 26.8918 100.033C24.7521 100.62 23.4944 102.826 24.0825 104.961C24.6707 107.096 26.882 108.351 29.0217 107.764Z" fill="#E0E0E0"/>
<path d="M62.9112 109.451L41.1484 115.42L41.6045 117.075L63.3673 111.106L62.9112 109.451Z" fill="#BDBDBD"/>
<path d="M64.7373 116.075L42.9746 122.044L43.4307 123.699L65.1934 117.73L64.7373 116.075Z" fill="#F5F5F5"/>
<path d="M98.8644 103.153L42.0596 118.733L42.5157 120.389L99.3205 104.809L98.8644 103.153Z" fill="#E0E0E0"/>
<path d="M33.4328 123.775C35.5725 123.188 36.8302 120.982 36.2421 118.847C35.6539 116.712 33.4426 115.457 31.3029 116.044C29.1633 116.631 27.9055 118.837 28.4937 120.972C29.0818 123.107 31.2932 124.362 33.4328 123.775Z" fill="#E0E0E0"/>
<path d="M10.275 54.9399C10.837 56.8835 11.9228 58.6358 13.4143 60.0059C14.9057 61.376 16.7454 62.3114 18.7329 62.71C20.7205 63.1086 22.7795 62.9552 24.6857 62.2664C26.5919 61.5777 28.272 60.3801 29.5429 58.8042C30.8138 57.2282 31.6268 55.3344 31.8933 53.3291C32.1597 51.3239 31.8693 49.2841 31.0538 47.4322C30.2383 45.5802 28.929 43.9872 27.2686 42.8267C25.6081 41.6662 23.6602 40.9827 21.6372 40.8508L22.423 43.5871C22.6951 44.5408 22.5779 45.5632 22.0969 46.4309C21.616 47.2986 20.8104 47.9412 19.8562 48.2181C18.9004 48.4896 17.8757 48.3727 17.0061 47.8928C16.1364 47.4129 15.4925 46.6091 15.2149 45.657L14.4291 42.9207C12.5812 44.254 11.1906 46.1237 10.4471 48.2748C9.70367 50.4259 9.64355 52.7535 10.275 54.9399Z" fill="url(#paint2_linear)"/>
<path d="M31.3281 47.9568C30.7898 46.0062 29.7251 44.2406 28.2501 42.8523C26.7751 41.464 24.9464 40.5065 22.9635 40.084C20.9805 39.6616 18.9194 39.7905 17.0048 40.4567C15.0902 41.1229 13.3957 42.3008 12.106 43.862C10.8163 45.4232 9.98091 47.3077 9.69096 49.3101C9.40101 51.3125 9.66762 53.3559 10.4617 55.2175C11.2558 57.0791 12.5468 58.6874 14.1941 59.8671C15.8414 61.0468 17.7817 61.7525 19.8034 61.9074L19.0465 59.1633C18.7858 58.2069 18.915 57.1864 19.4057 56.3247C19.8964 55.4629 20.7089 54.8298 21.6657 54.5636C22.6242 54.3036 23.647 54.4324 24.5106 54.9221C25.3743 55.4117 26.0088 56.2224 26.2756 57.1771L27.0325 59.9212C28.895 58.61 30.3069 56.7576 31.0756 54.6165C31.8443 52.4754 31.9325 50.1498 31.3281 47.9568Z" fill="#0F4CC5"/>
<path d="M21.374 53.5241C23.6406 52.9025 24.9729 50.5651 24.3499 48.3035C23.7268 46.0419 21.3843 44.7125 19.1177 45.3342C16.8511 45.9559 15.5188 48.2932 16.1418 50.5548C16.7648 52.8164 19.1074 54.1458 21.374 53.5241Z" fill="white" stroke="white" stroke-miterlimit="10"/>
<path d="M21.6612 54.5636C20.7043 54.8298 19.8919 55.4629 19.4012 56.3246C18.9104 57.1864 18.7813 58.2069 19.0419 59.1633L19.7989 61.9074C22.367 62.1021 24.9231 61.4009 27.0306 59.9238L26.2737 57.1797C26.0074 56.2239 25.3728 55.4121 24.5085 54.9219C23.6441 54.4317 22.6204 54.3029 21.6612 54.5636Z" fill="white" stroke="white" stroke-miterlimit="10"/>
<path d="M16.0479 50.3298C15.544 49.7854 15.1966 49.1155 15.0421 48.3907C14.8914 47.6597 15.0334 46.899 15.4376 46.2712C15.896 45.5995 16.6556 45.197 17.423 44.92C18.1904 44.643 18.9946 44.4626 19.7227 44.0994C20.3247 43.7957 20.8602 43.3757 21.2982 42.8638C21.7361 42.3519 22.0678 41.7583 22.2738 41.1174C22.516 41.6955 22.6773 42.304 22.7532 42.9259C22.7895 43.2372 22.7618 43.5526 22.6717 43.8527C22.5816 44.1529 22.4311 44.4316 22.2293 44.6717C22.7741 44.2118 22.892 44.9069 22.8684 45.3486C23.2796 45.6361 24.0471 45.4924 24.2199 45.9628C24.415 46.4256 24.4958 46.9284 24.4557 47.4289C24.3902 47.9255 24.8066 48.652 24.3352 48.8193" fill="white"/>
<path d="M16.0479 50.3298C15.544 49.7854 15.1966 49.1155 15.0421 48.3907C14.8914 47.6597 15.0334 46.899 15.4376 46.2712C15.896 45.5995 16.6556 45.197 17.423 44.92C18.1904 44.643 18.9946 44.4626 19.7227 44.0994C20.3247 43.7957 20.8602 43.3757 21.2982 42.8638C21.7361 42.3519 22.0678 41.7583 22.2738 41.1174C22.516 41.6955 22.6773 42.304 22.7532 42.9259C22.7895 43.2372 22.7618 43.5526 22.6717 43.8527C22.5816 44.1529 22.4311 44.4316 22.2293 44.6717C22.7741 44.2118 22.892 44.9069 22.8684 45.3486C23.2796 45.6361 24.0471 45.4924 24.2199 45.9628C24.415 46.4256 24.4958 46.9284 24.4557 47.4289C24.3902 47.9255 24.8066 48.652 24.3352 48.8193" stroke="white" stroke-miterlimit="10"/>
<path d="M22.4229 44.5097C22.4229 44.5097 25.3564 43.9739 24.4842 48.7748L22.4229 44.5097Z" fill="white"/>
<path d="M167.047 186.666H139.433V74.6871H191L167.047 186.666Z" fill="url(#paint3_linear)"/>
<path d="M165.672 186.666H138.603V74.6871H189.151L165.672 186.666Z" fill="#BDBDBD"/>
<path d="M172.127 39.8711L87.4111 48.83L99.2159 159.964L183.932 151.005L172.127 39.8711Z" fill="url(#paint4_linear)"/>
<path d="M172.214 39.7567L87.3027 48.7363L91.8022 91.0957L176.714 82.1161L172.214 39.7567Z" fill="url(#paint5_linear)"/>
<path d="M171.136 40.8453L88.5869 49.5751L100.117 158.123L182.666 149.393L171.136 40.8453Z" fill="#F5F5F5"/>
<path d="M171.22 40.733L88.4805 49.4828L92.875 90.8546L175.614 82.1048L171.22 40.733Z" fill="#0F4CC5"/>
<path d="M133.964 98.314L111.52 100.688L111.701 102.395L134.145 100.021L133.964 98.314Z" fill="#BDBDBD"/>
<path d="M134.689 105.146L112.245 107.52L112.426 109.227L134.871 106.854L134.689 105.146Z" fill="#F5F5F5"/>
<path d="M170.465 97.9086L111.881 104.104L112.062 105.811L170.646 99.6161L170.465 97.9086Z" fill="#69F0AE"/>
<path d="M144.998 59.1473L122.554 61.5209L122.735 63.2284L145.179 60.8548L144.998 59.1473Z" fill="white"/>
<path d="M159.095 61.4959L122.955 65.3177L123.136 67.0252L159.276 63.2034L159.095 61.4959Z" fill="white"/>
<path opacity="0.2" d="M151.966 67.2367L131.131 69.44C130.687 69.487 130.364 69.8847 130.411 70.3282L130.442 70.6193C130.49 71.0628 130.888 71.3842 131.333 71.3372L152.167 69.1339C152.612 69.0869 152.934 68.6893 152.887 68.2457L152.856 67.9547C152.809 67.5111 152.41 67.1897 151.966 67.2367Z" fill="black"/>
<path d="M102.549 107.683C104.755 107.449 106.354 105.475 106.121 103.274C105.887 101.072 103.908 99.476 101.702 99.7094C99.4949 99.9427 97.8957 101.917 98.1295 104.119C98.3634 106.32 100.342 107.916 102.549 107.683Z" fill="#69F0AE"/>
<path d="M135.719 114.824L113.274 117.197L113.456 118.905L135.9 116.531L135.719 114.824Z" fill="#BDBDBD"/>
<path d="M136.444 121.656L114 124.029L114.181 125.737L136.626 123.363L136.444 121.656Z" fill="#F5F5F5"/>
<path d="M172.22 114.418L113.637 120.614L113.818 122.321L172.402 116.126L172.22 114.418Z" fill="#E0E0E0"/>
<path d="M104.304 124.192C106.511 123.959 108.11 121.985 107.876 119.783C107.643 117.581 105.664 115.986 103.457 116.219C101.251 116.452 99.6515 118.427 99.8854 120.628C100.119 122.83 102.098 124.426 104.304 124.192Z" fill="#E0E0E0"/>
<path d="M137.472 131.334L115.027 133.707L115.209 135.415L137.653 133.041L137.472 131.334Z" fill="#BDBDBD"/>
<path d="M138.196 138.166L115.752 140.539L115.933 142.247L138.378 139.873L138.196 138.166Z" fill="#F5F5F5"/>
<path d="M173.973 130.928L115.39 137.124L115.571 138.831L174.155 132.636L173.973 130.928Z" fill="#E0E0E0"/>
<path d="M106.056 140.702C108.263 140.469 109.862 138.495 109.628 136.293C109.395 134.091 107.416 132.496 105.209 132.729C103.003 132.962 101.403 134.936 101.637 137.138C101.871 139.34 103.85 140.936 106.056 140.702Z" fill="#E0E0E0"/>
<path d="M94.3713 69.0447C94.6078 71.0544 95.3929 72.9606 96.6409 74.5556C97.8889 76.1505 99.5518 77.3729 101.448 78.0894C103.345 78.8059 105.402 78.9891 107.396 78.6188C109.39 78.2486 111.243 77.3393 112.754 75.9899C114.266 74.6406 115.377 72.9032 115.966 70.967C116.555 69.0309 116.601 66.9705 116.097 65.0105C115.593 63.0505 114.559 61.2661 113.109 59.8521C111.658 58.438 109.846 57.4485 107.871 56.9915L108.206 59.8193C108.316 60.8011 108.034 61.7866 107.421 62.5621C106.807 63.3376 105.912 63.8405 104.929 63.9616C103.942 64.0751 102.95 63.7942 102.17 63.1801C101.389 62.566 100.884 61.6688 100.765 60.6843L100.43 57.8566C98.3883 58.8724 96.711 60.492 95.6267 62.4945C94.5424 64.4969 94.104 66.7844 94.3713 69.0447Z" fill="url(#paint6_linear)"/>
<path d="M116.279 65.561C116.064 63.5494 115.3 61.6351 114.071 60.0269C112.841 58.4186 111.192 57.1781 109.304 56.4405C107.416 55.7029 105.362 55.4966 103.365 55.844C101.367 56.1914 99.504 57.0792 97.9777 58.4107C96.4513 59.7422 95.3206 61.4662 94.7087 63.3948C94.0969 65.3234 94.0274 67.3826 94.5078 69.3479C94.9882 71.3132 96.0001 73.1092 97.4332 74.5401C98.8663 75.971 100.666 76.9819 102.635 77.4626L102.334 74.6323C102.232 73.6458 102.525 72.6591 103.15 71.8879C103.775 71.1166 104.68 70.6234 105.668 70.5161C106.657 70.4143 107.645 70.707 108.418 71.3304C109.191 71.9538 109.686 72.8571 109.793 73.843L110.095 76.6734C112.146 75.681 113.84 74.0813 114.947 72.0926C116.054 70.1039 116.519 67.823 116.279 65.561Z" fill="#0F4CC5"/>
<path d="M105.561 69.4356C107.899 69.1884 109.593 67.0972 109.345 64.7648C109.098 62.4324 107.002 60.742 104.664 60.9892C102.327 61.2364 100.632 63.3276 100.88 65.66C101.128 67.9924 103.224 69.6828 105.561 69.4356Z" fill="white" stroke="white" stroke-miterlimit="10"/>
<path d="M105.668 70.5161C104.68 70.6235 103.774 71.1166 103.149 71.8879C102.525 72.6592 102.231 73.6458 102.333 74.6323L102.635 77.4627C105.137 78.0716 107.774 77.7944 110.094 76.6786L109.793 73.8483C109.687 72.8614 109.193 71.9568 108.42 71.3323C107.647 70.7078 106.657 70.4144 105.668 70.5161Z" fill="white" stroke="white" stroke-miterlimit="10"/>
<path d="M100.817 65.4304C100.408 64.8113 100.174 64.0935 100.139 63.3527C100.109 62.6079 100.372 61.881 100.872 61.3272C101.433 60.7366 102.25 60.4622 103.052 60.3132C103.853 60.1642 104.668 60.1277 105.453 59.8663C106.097 59.664 106.693 59.3362 107.209 58.9019C107.724 58.4676 108.148 57.9355 108.455 57.3365C108.601 57.9456 108.661 58.5717 108.636 59.1973C108.621 59.5105 108.542 59.8173 108.405 60.0991C108.267 60.3809 108.073 60.6316 107.834 60.8359C108.445 60.47 108.45 61.173 108.358 61.6069C108.717 61.9571 109.498 61.9388 109.592 62.4327C109.711 62.9204 109.711 63.4295 109.592 63.9172C109.445 64.3954 109.741 65.1821 109.246 65.2683" fill="white"/>
<path d="M100.817 65.4304C100.408 64.8113 100.174 64.0935 100.139 63.3527C100.109 62.6079 100.372 61.881 100.872 61.3272C101.433 60.7366 102.25 60.4622 103.052 60.3132C103.853 60.1642 104.668 60.1277 105.453 59.8663C106.097 59.664 106.693 59.3362 107.209 58.9019C107.724 58.4676 108.148 57.9355 108.455 57.3365C108.601 57.9456 108.661 58.5717 108.636 59.1973C108.621 59.5105 108.542 59.8173 108.405 60.0991C108.267 60.3809 108.073 60.6316 107.834 60.8359C108.445 60.47 108.45 61.173 108.358 61.6069C108.717 61.9571 109.498 61.9388 109.592 62.4327C109.711 62.9204 109.711 63.4295 109.592 63.9172C109.445 64.3954 109.741 65.1821 109.246 65.2683" stroke="white" stroke-miterlimit="10"/>
<path d="M108.054 60.7183C108.054 60.7183 111.034 60.6634 109.397 65.2605L108.054 60.7183Z" fill="white"/>
<path d="M142.893 0.104553H57.7021V111.861H142.893V0.104553Z" fill="url(#paint7_linear)"/>
<path d="M142.99 0H57.6025V42.5966H142.99V0Z" fill="url(#paint8_linear)"/>
<path d="M141.802 0.969604H58.791V110.126H141.802V0.969604Z" fill="#F5F5F5"/>
<path d="M141.9 0.867676H58.6973V42.4712H141.9V0.867676Z" fill="#0F4CC5"/>
<path d="M98.7663 54.2082H76.1963V55.9252H98.7663V54.2082Z" fill="#BDBDBD"/>
<path d="M98.7663 61.0789H76.1963V62.796H98.7663V61.0789Z" fill="#F5F5F5"/>
<path d="M135.108 57.6449H76.1963V59.3619H135.108V57.6449Z" fill="#69F0AE"/>
<path d="M113.877 16.423H91.3066V18.14H113.877V16.423Z" fill="white"/>
<path d="M127.649 20.2386H91.3066V21.9556H127.649V20.2386Z" fill="white"/>
<path opacity="0.2" d="M119.953 25.2015H99.0017C98.5547 25.2015 98.1924 25.563 98.1924 26.009V26.3017C98.1924 26.7477 98.5547 27.1093 99.0017 27.1093H119.953C120.4 27.1093 120.762 26.7477 120.762 26.3017V26.009C120.762 25.563 120.4 25.2015 119.953 25.2015Z" fill="black"/>
<path d="M66.5394 60.2217C68.7584 60.2217 70.5573 58.4268 70.5573 56.2127C70.5573 53.9986 68.7584 52.2037 66.5394 52.2037C64.3204 52.2037 62.5215 53.9986 62.5215 56.2127C62.5215 58.4268 64.3204 60.2217 66.5394 60.2217Z" fill="#69F0AE"/>
<path d="M98.7663 70.8115H76.1963V72.5285H98.7663V70.8115Z" fill="#BDBDBD"/>
<path d="M98.7663 77.6822H76.1963V79.3992H98.7663V77.6822Z" fill="#F5F5F5"/>
<path d="M135.108 74.2482H76.1963V75.9652H135.108V74.2482Z" fill="#E0E0E0"/>
<path d="M66.5394 76.8249C68.7584 76.8249 70.5573 75.03 70.5573 72.8159C70.5573 70.6018 68.7584 68.8069 66.5394 68.8069C64.3204 68.8069 62.5215 70.6018 62.5215 72.8159C62.5215 75.03 64.3204 76.8249 66.5394 76.8249Z" fill="#E0E0E0"/>
<path d="M98.7663 87.4173H76.1963V89.1343H98.7663V87.4173Z" fill="#BDBDBD"/>
<path d="M98.7663 94.2855H76.1963V96.0025H98.7663V94.2855Z" fill="#F5F5F5"/>
<path d="M135.108 90.8514H76.1963V92.5684H135.108V90.8514Z" fill="#E0E0E0"/>
<path d="M66.5394 93.4282C68.7584 93.4282 70.5573 91.6333 70.5573 89.4192C70.5573 87.2051 68.7584 85.4102 66.5394 85.4102C64.3204 85.4102 62.5215 87.2051 62.5215 89.4192C62.5215 91.6333 64.3204 93.4282 66.5394 93.4282Z" fill="#E0E0E0"/>
<path d="M62.4978 20.9416C62.5232 22.9642 63.1046 24.9411 64.1786 26.6567C65.2526 28.3723 66.778 29.7609 68.5885 30.671C70.399 31.5811 72.4252 31.9779 74.4461 31.818C76.4671 31.6582 78.4053 30.9479 80.0495 29.7645C81.6937 28.5812 82.9808 26.9702 83.7705 25.1071C84.5602 23.2441 84.8222 21.2005 84.5279 19.1991C84.2337 17.1977 83.3945 15.3153 82.1018 13.7571C80.8091 12.1989 79.1125 11.0246 77.1969 10.3623L77.231 13.2084C77.2429 14.2033 76.8583 15.1622 76.1618 15.8742C75.4654 16.5863 74.514 16.9933 73.5169 17.0057C72.5234 17.0148 71.5666 16.6313 70.8555 15.9389C70.1445 15.2465 69.7368 14.3015 69.7216 13.3103L69.6876 10.4642C67.5554 11.2617 65.7212 12.6954 64.4347 14.5701C63.1482 16.4449 62.4719 18.6696 62.4978 20.9416Z" fill="url(#paint9_linear)"/>
<path d="M84.6434 19.7786C84.6425 17.7557 84.0851 15.7719 83.0319 14.0434C81.9787 12.3148 80.4702 10.908 78.6708 9.97611C76.8713 9.04424 74.85 8.62312 72.8272 8.75866C70.8044 8.89421 68.8577 9.58121 67.1993 10.7448C65.5409 11.9084 64.2345 13.5038 63.4224 15.3573C62.6103 17.2108 62.3237 19.2512 62.5939 21.256C62.8641 23.2609 63.6807 25.1532 64.9546 26.7269C66.2285 28.3005 67.911 29.495 69.8185 30.1801V27.3314C69.8213 26.3397 70.2173 25.3894 70.9201 24.6882C71.6229 23.9869 72.5754 23.5917 73.5693 23.589C74.5632 23.5917 75.5156 23.9869 76.2184 24.6882C76.9212 25.3894 77.3173 26.3397 77.32 27.3314V30.1775C79.4646 29.4064 81.3186 27.9941 82.6291 26.1331C83.9397 24.2721 84.6431 22.0531 84.6434 19.7786Z" fill="#0F4CC5"/>
<path d="M73.5736 22.507C75.9243 22.507 77.8299 20.6056 77.8299 18.2602C77.8299 15.9147 75.9243 14.0133 73.5736 14.0133C71.223 14.0133 69.3174 15.9147 69.3174 18.2602C69.3174 20.6056 71.223 22.507 73.5736 22.507Z" fill="white" stroke="white" stroke-miterlimit="10"/>
<path d="M73.5672 23.589C72.5732 23.5917 71.6208 23.9869 70.918 24.6882C70.2152 25.3894 69.8192 26.3397 69.8164 27.3314V30.1775C72.2414 31.0448 74.8929 31.0448 77.3179 30.1775V27.3314C77.3151 26.3397 76.9191 25.3894 76.2163 24.6882C75.5135 23.9869 74.5611 23.5917 73.5672 23.589Z" fill="white" stroke="white" stroke-miterlimit="10"/>
<path d="M69.2808 18.0224C68.9398 17.3634 68.7832 16.6249 68.8277 15.8846C68.8762 15.1401 69.2146 14.4441 69.7706 13.9454C70.3914 13.4227 71.2322 13.2319 72.0441 13.1614C72.8561 13.0908 73.6785 13.1352 74.48 12.9784C75.1409 12.8447 75.7685 12.5812 76.3265 12.2035C76.8845 11.8257 77.3617 11.3412 77.7305 10.7779C77.8102 11.3987 77.804 12.0274 77.7122 12.6465C77.6645 12.9562 77.5539 13.2529 77.3873 13.5185C77.2206 13.7841 77.0014 14.013 76.743 14.1911C77.39 13.8931 77.3193 14.5909 77.1804 15.0117C77.5 15.3985 78.2805 15.4612 78.3198 15.963C78.385 16.4611 78.3293 16.9675 78.1574 17.4396C77.961 17.8995 78.1705 18.7123 77.6702 18.7463" fill="white"/>
<path d="M69.2808 18.0224C68.9398 17.3634 68.7832 16.6249 68.8277 15.8846C68.8762 15.1401 69.2146 14.4441 69.7706 13.9454C70.3914 13.4227 71.2322 13.2319 72.0441 13.1614C72.8561 13.0908 73.6785 13.1352 74.48 12.9784C75.1409 12.8447 75.7685 12.5812 76.3265 12.2035C76.8845 11.8257 77.3617 11.3412 77.7305 10.7779C77.8102 11.3987 77.804 12.0274 77.7122 12.6465C77.6645 12.9562 77.5539 13.2529 77.3873 13.5185C77.2206 13.7841 77.0014 14.013 76.743 14.1911C77.39 13.8931 77.3193 14.5909 77.1804 15.0117C77.5 15.3985 78.2805 15.4612 78.3198 15.963C78.385 16.4611 78.3293 16.9675 78.1574 17.4396C77.961 17.8995 78.1705 18.7123 77.6702 18.7463" stroke="white" stroke-miterlimit="10"/>
<path d="M76.9746 14.0996C76.9746 14.0996 79.9448 14.361 77.8311 18.7568L76.9746 14.0996Z" fill="white"/>
<path d="M49.9198 79.6423L31.2787 66.6194H5.46875V79.6423V86.0217V195H166.777V79.6423H49.9198Z" fill="url(#paint10_linear)"/>
<path d="M6.84863 80.9595V87.1534V192.938H165.671V80.9595H50.6161" fill="white"/>
<path d="M50.6161 80.9594L32.2605 68.3182H6.84863V80.9594" fill="#BDBDBD"/>
<path d="M130.003 97.4843H42.5205V176.411H130.003V97.4843Z" fill="url(#paint11_linear)"/>
<path d="M129.207 98.0593H43.71V174.976H129.207V98.0593Z" fill="white"/>
<path d="M103.86 155.628H70.2451V158.375H103.86V155.628Z" fill="#BDBDBD"/>
<path d="M123.185 161.124H49.7314V163.871H123.185V161.124Z" fill="#E0E0E0"/>
<path d="M123.185 166.621H49.7314V169.367H123.185V166.621Z" fill="#E0E0E0"/>
<path d="M65.5415 127.468C65.5894 131.288 66.6871 135.02 68.7148 138.26C70.7426 141.5 73.6226 144.122 77.0411 145.841C80.4595 147.56 84.2853 148.309 88.1013 148.008C91.9174 147.707 95.5774 146.366 98.6824 144.132C101.787 141.898 104.218 138.857 105.71 135.339C107.202 131.822 107.698 127.963 107.143 124.184C106.589 120.405 105.005 116.85 102.565 113.907C100.125 110.964 96.922 108.746 93.3054 107.494L93.3709 112.87C93.3884 114.742 92.6627 116.544 91.3523 117.884C90.042 119.224 88.2535 119.992 86.3775 120.02C84.5014 120.038 82.6947 119.313 81.3519 118.006C80.0092 116.699 79.2396 114.914 79.2113 113.042L79.1458 107.666C75.1113 109.169 71.6397 111.877 69.2049 115.421C66.7701 118.965 65.4908 123.172 65.5415 127.468Z" fill="url(#paint12_linear)"/>
<path d="M107.37 125.276C107.369 121.455 106.317 117.709 104.329 114.444C102.341 111.179 99.4923 108.522 96.0943 106.761C92.6963 105.001 88.8791 104.205 85.0589 104.461C81.2387 104.716 77.5622 106.013 74.4301 108.211C71.298 110.408 68.8307 113.421 67.297 116.921C65.7633 120.422 65.2221 124.275 65.7326 128.061C66.243 131.848 67.7854 135.421 70.1916 138.393C72.5978 141.364 75.7754 143.62 79.3781 144.913V139.537C79.3857 137.668 80.1332 135.878 81.4578 134.556C82.7824 133.234 84.5768 132.489 86.45 132.481C88.3233 132.489 90.1177 133.234 91.4423 134.556C92.7669 135.878 93.5144 137.668 93.522 139.537V144.913C97.5754 143.46 101.081 140.795 103.559 137.28C106.038 133.766 107.368 129.573 107.37 125.276Z" fill="#BDBDBD"/>
<path d="M87.1629 128.793C87.1629 128.101 86.6 127.539 85.9057 127.539C85.2113 127.539 84.6484 128.101 84.6484 128.793V135.131C84.6484 135.824 85.2113 136.386 85.9057 136.386C86.6 136.386 87.1629 135.824 87.1629 135.131V128.793Z" fill="white" stroke="white" stroke-miterlimit="10"/>
<path d="M85.9193 128.728C90.3588 128.728 93.9577 125.137 93.9577 120.707C93.9577 116.278 90.3588 112.687 85.9193 112.687C81.4798 112.687 77.8809 116.278 77.8809 120.707C77.8809 125.137 81.4798 128.728 85.9193 128.728Z" fill="white" stroke="white" stroke-miterlimit="10"/>
<path d="M85.9059 130.772C84.0327 130.779 82.2383 131.525 80.9137 132.847C79.5891 134.169 78.8416 135.959 78.834 137.828V143.204C83.4121 144.841 88.418 144.841 92.9962 143.204V137.839C92.9914 135.965 92.2425 134.169 90.9137 132.844C89.5848 131.52 87.7842 130.775 85.9059 130.772Z" fill="white" stroke="white" stroke-miterlimit="10"/>
<path d="M77.8127 120.263C77.1686 119.019 76.8727 117.625 76.9562 116.228C77.0487 114.823 77.6878 113.51 78.7373 112.569C79.9081 111.573 81.4954 111.221 83.0302 111.098C84.5651 110.975 86.1183 111.048 87.627 110.753C88.8746 110.501 90.0595 110.004 91.113 109.291C92.1665 108.578 93.0676 107.663 93.7639 106.6C93.8608 107.776 93.9577 108.97 93.7298 110.131C93.5019 111.291 92.9048 112.428 91.8963 113.047C93.1169 112.483 92.9833 113.805 92.7188 114.597C93.3238 115.326 94.7932 115.447 94.8692 116.39C94.9451 117.333 94.932 118.308 94.5627 119.179C94.1934 120.049 94.5889 121.58 93.646 121.648" fill="white"/>
<path d="M77.8127 120.263C77.1686 119.019 76.8727 117.625 76.9562 116.228C77.0487 114.823 77.6878 113.51 78.7373 112.569C79.9081 111.573 81.4954 111.221 83.0302 111.098C84.5651 110.975 86.1183 111.048 87.627 110.753C88.8746 110.501 90.0595 110.004 91.113 109.291C92.1665 108.578 93.0676 107.663 93.7639 106.6C93.8608 107.776 93.9577 108.97 93.7298 110.131C93.5019 111.291 92.9048 112.428 91.8963 113.047C93.1169 112.483 92.9833 113.805 92.7188 114.597C93.3238 115.326 94.7932 115.447 94.8692 116.39C94.9451 117.333 94.932 118.308 94.5627 119.179C94.1934 120.049 94.5889 121.58 93.646 121.648" stroke="white" stroke-miterlimit="10"/>
<path d="M92.3418 112.854C92.3418 112.854 97.9496 113.343 93.9579 121.648L92.3418 112.854Z" fill="white"/>
</g>
<defs>
<linearGradient id="paint0_linear" x1="71.1479" y1="131.38" x2="41.0306" y2="24.0591" gradientUnits="userSpaceOnUse">
<stop stop-color="#808080" stop-opacity="0.25"/>
<stop offset="0.54" stop-color="#808080" stop-opacity="0.12"/>
<stop offset="1" stop-color="#808080" stop-opacity="0.1"/>
</linearGradient>
<linearGradient id="paint1_linear" x1="52.4792" y1="65.8259" x2="41.2104" y2="24.74" gradientUnits="userSpaceOnUse">
<stop stop-color="#B3B3B3" stop-opacity="0.25"/>
<stop offset="0.54" stop-color="#B3B3B3" stop-opacity="0.1"/>
<stop offset="1" stop-color="#B3B3B3" stop-opacity="0.05"/>
</linearGradient>
<linearGradient id="paint2_linear" x1="24.3176" y1="63.2095" x2="17.4194" y2="42.7374" gradientUnits="userSpaceOnUse">
<stop stop-opacity="0.12"/>
<stop offset="0.55" stop-opacity="0.09"/>
<stop offset="1" stop-opacity="0.02"/>
</linearGradient>
<linearGradient id="paint3_linear" x1="32667.2" y1="80055.3" x2="32667.2" y2="32075.9" gradientUnits="userSpaceOnUse">
<stop stop-color="#808080" stop-opacity="0.25"/>
<stop offset="0.54" stop-color="#808080" stop-opacity="0.12"/>
<stop offset="1" stop-color="#808080" stop-opacity="0.1"/>
</linearGradient>
<linearGradient id="paint4_linear" x1="70502.4" y1="68201.9" x2="65476.5" y2="20676.5" gradientUnits="userSpaceOnUse">
<stop stop-color="#808080" stop-opacity="0.25"/>
<stop offset="0.54" stop-color="#808080" stop-opacity="0.12"/>
<stop offset="1" stop-color="#808080" stop-opacity="0.1"/>
</linearGradient>
<linearGradient id="paint5_linear" x1="64535.9" y1="10695.6" x2="63805.8" y2="3791.56" gradientUnits="userSpaceOnUse">
<stop stop-color="#B3B3B3" stop-opacity="0.25"/>
<stop offset="0.54" stop-color="#B3B3B3" stop-opacity="0.1"/>
<stop offset="1" stop-color="#B3B3B3" stop-opacity="0.05"/>
</linearGradient>
<linearGradient id="paint6_linear" x1="-14201.7" y1="-5452.67" x2="-14486.5" y2="-7232.93" gradientUnits="userSpaceOnUse">
<stop stop-opacity="0.12"/>
<stop offset="0.55" stop-opacity="0.09"/>
<stop offset="1" stop-opacity="0.02"/>
</linearGradient>
<linearGradient id="paint7_linear" x1="32678.9" y1="47835.2" x2="32678.9" y2="44.8094" gradientUnits="userSpaceOnUse">
<stop stop-color="#808080" stop-opacity="0.25"/>
<stop offset="0.54" stop-color="#808080" stop-opacity="0.12"/>
<stop offset="1" stop-color="#808080" stop-opacity="0.1"/>
</linearGradient>
<linearGradient id="paint8_linear" x1="32754" y1="6942.82" x2="32754" y2="0" gradientUnits="userSpaceOnUse">
<stop stop-color="#B3B3B3" stop-opacity="0.25"/>
<stop offset="0.54" stop-color="#B3B3B3" stop-opacity="0.1"/>
<stop offset="1" stop-color="#B3B3B3" stop-opacity="0.05"/>
</linearGradient>
<linearGradient id="paint9_linear" x1="-16120.9" y1="-10415" x2="-16210.6" y2="-12189.1" gradientUnits="userSpaceOnUse">
<stop stop-opacity="0.12"/>
<stop offset="0.55" stop-opacity="0.09"/>
<stop offset="1" stop-opacity="0.02"/>
</linearGradient>
<linearGradient id="paint10_linear" x1="53045.3" y1="95856.5" x2="53045.3" y2="32792.1" gradientUnits="userSpaceOnUse">
<stop stop-color="#808080" stop-opacity="0.25"/>
<stop offset="0.54" stop-color="#808080" stop-opacity="0.12"/>
<stop offset="1" stop-color="#808080" stop-opacity="0.1"/>
</linearGradient>
<linearGradient id="paint11_linear" x1="28854" y1="53373.5" x2="28854" y2="29537.7" gradientUnits="userSpaceOnUse">
<stop stop-color="#808080" stop-opacity="0.25"/>
<stop offset="0.54" stop-color="#808080" stop-opacity="0.12"/>
<stop offset="1" stop-color="#808080" stop-opacity="0.1"/>
</linearGradient>
<linearGradient id="paint12_linear" x1="-28474" y1="-1830.8" x2="-28793.8" y2="-8155.19" gradientUnits="userSpaceOnUse">
<stop stop-opacity="0.12"/>
<stop offset="0.55" stop-opacity="0.09"/>
<stop offset="1" stop-opacity="0.02"/>
</linearGradient>
<clipPath id="clip0">
<rect width="191" height="195" fill="white"/>
</clipPath>
</defs>
</svg>
