<svg width="259" height="177" viewBox="0 0 259 177" fill="none" xmlns="http://www.w3.org/2000/svg">
<g clip-path="url(#clip0)">
<path opacity="0.1" d="M25.2762 134.299C24.1695 136.672 25.7535 139.233 25.204 141.683C24.51 144.775 20.532 147.181 16.247 148.717C11.962 150.252 7.17648 151.185 2.99981 152.839C1.19396 153.552 -0.68928 154.869 0.249761 156.08C0.574814 156.5 1.18364 156.793 1.77957 157.069C13.9458 162.675 28.9834 165.721 44.008 165.623C59.8995 165.517 75.4608 162.016 91.3393 162.418C111.818 162.933 131.625 169.905 151.877 167.895C160.472 167.037 168.454 164.605 176.826 163.085C189.136 160.851 202.084 160.627 214.834 159.893C224.407 159.342 235.348 157.912 239.922 152.537C243.229 148.652 241.841 143.52 237.182 140.23C232.523 136.94 225.08 135.533 218.205 136.172C214.509 136.515 210.835 137.404 207.138 137.051C204.992 136.845 203.01 136.231 201.052 135.629C185.906 130.939 170.216 126.261 153.404 125.581C126.058 124.465 100.712 133.967 74.0703 138.076C69.922 138.715 65.4177 139.207 61.499 138.135C57.3713 137.004 54.6626 134.333 50.5272 133.207C48.564 132.671 46.3763 132.516 44.4466 131.934C39.1426 130.331 41.6089 128.129 34.2462 129.615C30.3997 130.398 26.5145 131.653 25.2762 134.299Z" fill="#0F4CC5"/>
<path d="M28.2952 53.3466C28.2952 53.3466 42.6801 67.7125 34.5641 89.0294C26.4481 110.346 48.4949 145.795 48.4949 145.795C48.4949 145.795 48.2576 145.761 47.8216 145.684C18.2625 140.475 3.58349 106.732 20.0116 81.6713C26.1179 72.3422 31.133 61.4106 28.2952 53.3466Z" fill="#0F4CC5"/>
<path opacity="0.1" d="M28.2952 53.3466C28.2952 53.3466 42.6801 67.7125 34.5641 89.0294C26.4481 110.346 48.4949 145.795 48.4949 145.795C48.4949 145.795 48.2576 145.761 47.8216 145.684C18.2625 140.475 3.58349 106.732 20.0116 81.6713C26.1179 72.3422 31.133 61.4106 28.2952 53.3466Z" fill="black"/>
<path d="M28.295 53.3466C28.295 53.3466 36.4162 70.9561 28.295 85.322C20.1738 99.6879 26.9019 140.003 48.4792 145.795" stroke="#535461" stroke-miterlimit="10"/>
<path d="M2.6748 111.449C2.6748 111.449 19.09 108.839 20.5863 123.53C22.0825 138.22 52.1473 140.258 52.1473 140.258C52.1473 140.258 51.9513 140.392 51.5824 140.632C26.7597 156.902 3.02824 150.999 6.60382 129.388C7.93499 121.348 7.82405 113.283 2.6748 111.449Z" fill="#0F4CC5"/>
<path opacity="0.2" d="M2.6748 111.449C2.6748 111.449 19.09 108.839 20.5863 123.53C22.0825 138.22 52.1473 140.258 52.1473 140.258C52.1473 140.258 51.9513 140.392 51.5824 140.632C26.7597 156.902 3.02824 150.999 6.60382 129.388C7.93499 121.348 7.82405 113.283 2.6748 111.449Z" fill="#F5F5F5"/>
<path d="M2.6748 111.449C2.6748 111.449 15.4164 114.242 14.369 125.812C13.3216 137.383 33.2891 151.252 52.1473 140.258" stroke="#535461" stroke-miterlimit="10"/>
<path d="M174.584 145.47H39.5508V61.2303H56.8199L63.9246 69.9951H174.584V145.47Z" fill="#0F4CC5"/>
<path opacity="0.1" d="M174.584 145.47H39.5508V61.2303H56.8199L63.9246 69.9951H174.584V145.47Z" fill="black"/>
<path d="M125.453 26.2569L64.6797 48.2095L98.8999 142.694L159.673 120.741L125.453 26.2569Z" fill="#F1F1F4"/>
<path d="M93.3296 48.3707L76.1582 54.5734L77.6195 58.6081L94.7909 52.4054L93.3296 48.3707Z" fill="white"/>
<path d="M121.044 51.1944L83.2646 64.6664L84.5893 68.3715L122.369 54.8994L121.044 51.1944Z" fill="white"/>
<path d="M123.875 59.1121L86.0957 72.5841L87.4204 76.2891L125.2 62.8171L123.875 59.1121Z" fill="white"/>
<path d="M126.703 67.0297L88.9238 80.5017L90.2485 84.2067L128.028 70.7347L126.703 67.0297Z" fill="white"/>
<path d="M129.535 74.9446L91.7559 88.4167L93.0806 92.1217L130.86 78.6497L129.535 74.9446Z" fill="white"/>
<path d="M132.365 82.8598L94.5859 96.3318L95.9106 100.037L133.69 86.5648L132.365 82.8598Z" fill="white"/>
<path d="M135.196 90.7774L97.417 104.249L98.7417 107.954L136.521 94.4824L135.196 90.7774Z" fill="white"/>
<path d="M142.555 103.916L132.773 107.404L136.266 117.172L146.047 113.684L142.555 103.916Z" fill="white"/>
<path d="M52.331 31.4902L18.2471 88.7728L107.541 141.764L141.625 84.4814L52.331 31.4902Z" fill="url(#paint0_linear)"/>
<path d="M53.1891 33.201L20.1621 88.7073L106.686 140.055L139.713 84.5483L53.1891 33.201Z" fill="#F1F1F4"/>
<path d="M42.3513 70.6699L33.0195 86.3533L36.7143 88.5459L46.0461 72.8626L42.3513 70.6699Z" fill="white"/>
<path d="M65.1959 54.6831L44.7031 89.124L48.0897 91.1337L68.5825 56.6929L65.1959 54.6831Z" fill="white"/>
<path d="M72.4313 58.9784L51.9385 93.4193L55.325 95.429L75.8178 60.9881L72.4313 58.9784Z" fill="white"/>
<path d="M79.6045 63.1451L59.1455 97.5991L62.5333 99.6055L82.9923 65.1515L79.6045 63.1451Z" fill="white"/>
<path d="M86.902 67.5651L66.4092 102.006L69.7957 104.016L90.2885 69.5748L86.902 67.5651Z" fill="white"/>
<path d="M94.1383 71.8604L73.6455 106.301L77.0321 108.311L97.5248 73.8701L94.1383 71.8604Z" fill="white"/>
<path d="M101.378 76.1558L80.8848 110.597L84.2713 112.606L104.764 78.1655L101.378 76.1558Z" fill="white"/>
<path d="M115.346 81.4444L110.049 90.3647L118.981 95.6547L124.278 86.7344L115.346 81.4444Z" fill="white"/>
<path d="M247.189 32.7433C247.189 32.6162 247.177 32.4951 247.151 32.38C247.125 32.2649 247.103 32.1318 247.084 31.9807C247.036 31.7196 246.98 31.4671 246.919 31.2232C246.888 31.1012 246.856 30.9819 246.823 30.8651C246.453 29.5117 245.792 28.2553 244.886 27.1834L244.731 27.0082C244.628 26.8949 244.525 26.7875 244.424 26.6862C244.322 26.5849 244.223 26.4912 244.125 26.4054C244.027 26.3178 243.931 26.2379 243.838 26.1606C243.655 26.0112 243.482 25.8849 243.322 25.7819C243.162 25.6788 243.106 25.6402 243.015 25.5861C242.795 25.4556 242.548 25.3756 242.293 25.3516L240.701 25.197L238.55 24.9858L230.782 21.9894L230.475 22.0977C230.248 21.4759 230.056 20.842 229.9 20.1989C230.135 20.0975 230.345 19.9452 230.514 19.7531C230.697 19.6115 230.843 19.4264 230.937 19.2147C231.133 18.7664 230.759 17.808 230.834 17.2618C230.957 16.3832 231.417 15.533 231.791 14.7369C232.59 13.0262 233.173 11.1738 233.081 9.2956C232.988 7.41742 232.123 5.51347 230.527 4.46231C229.701 3.91869 228.721 3.62756 227.872 3.1329C227.204 2.74644 226.616 2.24404 225.978 1.80864C224.409 0.771925 222.598 0.157266 220.721 0.0241189C218.845 -0.109028 216.965 0.243846 215.265 1.0486C213.65 1.83955 212.272 3.01954 210.747 3.96507C209.223 4.9106 207.427 5.64229 205.645 5.36147C205.619 5.43248 205.601 5.50584 205.59 5.58046L205.441 5.56243C205.134 6.3946 205.887 7.21389 206.581 7.78327C207.897 8.8602 209.39 9.93713 211.109 9.97319C211.772 9.98865 212.473 9.84953 213.077 10.12C213.208 10.1804 213.331 10.2565 213.443 10.3468C213.061 11.867 213.11 13.4635 213.584 14.9577C214.059 16.4518 214.94 17.7848 216.129 18.8076L212.161 17.3906C212.161 17.3906 211.996 17.4756 211.738 17.6354L206.225 13.9949C206.225 13.9949 195.176 9.99896 192.106 16.1926C189.036 22.3862 205.407 19.1889 205.407 19.1889L208.911 21.1006C208.795 21.8188 208.93 22.5551 209.295 23.1849L218.84 29.0436C216.911 29.6336 213.74 30.5894 213.165 30.5894C212.347 30.5894 210.095 31.3881 208.663 34.5854C207.231 37.7827 202.115 53.3698 197.614 55.9693C193.112 58.5689 181.242 75.9518 181.242 75.9518L181.297 76.0883C181.085 76.1433 180.878 76.2043 180.675 76.2712C177.706 77.2297 175.709 79.2521 174.504 80.8881C174.303 81.1662 174.179 81.4921 174.144 81.8331C174.109 82.1741 174.165 82.5183 174.305 82.8313C174.445 83.1443 174.664 83.4151 174.942 83.6167C175.22 83.8182 175.545 83.9434 175.887 83.9798C180.572 84.5672 183.131 82.434 184.361 80.8057C184.441 80.7001 184.516 80.597 184.586 80.4965C184.952 80.6519 185.363 80.6702 185.742 80.548L191.471 75.9518C191.471 75.9518 186.988 80.3316 189.616 84.3224L189.418 84.5981C184.985 90.8706 181.729 97.8942 179.808 105.328C179.808 105.328 177.352 107.131 177.148 114.319C176.945 121.507 174.489 133.104 174.489 133.104C174.489 133.104 172.85 146.892 173.875 151.089C173.875 151.089 173.993 151.257 174.21 151.512C174.133 151.602 174.05 151.7 173.952 151.8C173.059 152.759 171.447 154.081 169.566 153.686C166.7 153.086 166.7 158.082 170.794 158.484C173.431 158.741 178.608 159.911 181.965 160.71C182.329 160.803 182.711 160.807 183.078 160.721C183.444 160.636 183.785 160.464 184.071 160.22C184.357 159.976 184.58 159.666 184.721 159.318C184.862 158.97 184.918 158.592 184.883 158.218C184.681 156.428 184.318 154.261 183.655 152.718C183.613 152.622 183.572 152.53 183.528 152.437C183.649 152.326 183.768 152.21 183.889 152.086C183.889 152.086 183.889 143.293 185.321 140.895C185.321 140.895 189.209 122.711 189.005 118.114C188.845 114.507 199.089 100.512 203.55 94.5971L203.514 94.3729C204.654 92.8631 205.376 91.9356 205.376 91.9356L208.854 113.716C208.854 113.716 210.523 118.514 212.569 121.105C212.569 121.105 221.368 137.692 222.39 142.886C223.164 146.825 224.763 149.155 225.486 150.051C225.401 150.136 225.313 150.221 225.228 150.309C224.296 151.156 222.921 152.007 221.358 151.682C218.502 151.079 218.502 156.075 222.596 156.474C225.233 156.732 230.411 157.901 233.767 158.7C234.131 158.793 234.513 158.797 234.88 158.712C235.246 158.627 235.587 158.455 235.873 158.21C236.159 157.966 236.382 157.657 236.523 157.308C236.664 156.96 236.72 156.583 236.685 156.209C236.452 154.13 235.996 151.543 235.113 150.025C235.04 149.897 234.962 149.775 234.881 149.662C235.193 149.538 235.471 149.343 235.694 149.093C235.694 149.093 230.369 136.492 230.369 133.093C230.369 133.093 228.117 120.103 220.548 115.316C220.548 115.316 221.265 99.0722 223.419 90.0291C223.473 89.8058 223.527 89.5868 223.582 89.3721C225.519 89.0707 227.511 88.6662 229.551 88.1381L229.755 82.1428L230.787 86.94L242.236 79.94C242.236 79.94 242.136 78.6802 241.942 76.7479C241.844 75.7817 241.725 74.6481 241.581 73.4192C241.467 72.435 241.336 71.3916 241.194 70.3275C241.158 70.0613 241.121 69.7934 241.083 69.5237C240.933 68.4468 240.768 67.357 240.59 66.2903C240.523 65.8901 240.454 65.4942 240.384 65.1026C240.291 64.5873 240.193 64.0721 240.092 63.5723C240.043 63.3232 239.991 63.0776 239.938 62.8354C239.884 62.5932 239.831 62.3562 239.778 62.1243C239.724 61.8925 239.67 61.6649 239.615 61.4416L239.533 61.1118C239.476 60.8954 239.419 60.6841 239.362 60.478C239.122 59.6238 238.983 58.7444 238.947 57.8578C238.933 57.5143 238.933 57.1622 238.947 56.8015C238.961 56.4408 238.995 56.0904 239.05 55.7504C239.074 55.5786 239.104 55.4068 239.138 55.2351C239.27 54.5389 239.464 53.856 239.718 53.1946C239.846 52.8631 239.988 52.5359 240.147 52.213C240.518 51.4581 240.921 50.6388 241.323 49.7757C241.528 49.3446 241.734 48.904 241.942 48.454C242.15 48.004 242.36 47.5472 242.572 47.0834C244.563 42.6778 246.529 37.7672 247.055 34.5442C247.109 34.2041 247.151 33.8846 247.171 33.5832C247.196 33.3039 247.202 33.0233 247.189 32.7433Z" fill="url(#paint1_linear)"/>
<path d="M213.01 19.6217L206.261 15.0615C206.261 15.0615 195.542 11.0965 192.565 17.2412C189.588 23.3858 205.464 20.2143 205.464 20.2143L212.213 23.981L213.01 19.6217Z" fill="#F7BBC3"/>
<path d="M174.052 1.11587L139.381 55.6132L224.332 109.516L259.003 55.0189L174.052 1.11587Z" fill="#F1F1F4"/>
<path d="M162.1 38.2451L152.304 53.6433L155.931 55.9451L165.728 40.5469L162.1 38.2451Z" fill="white"/>
<path d="M185.413 22.9471L163.9 56.762L167.225 58.8717L188.738 25.0569L185.413 22.9471Z" fill="white"/>
<path d="M192.518 27.4543L171.005 61.2692L174.33 63.3789L195.843 29.5641L192.518 27.4543Z" fill="white"/>
<path d="M199.622 31.9629L178.109 65.7778L181.434 67.8875L202.947 34.0727L199.622 31.9629Z" fill="white"/>
<path d="M207.307 37.7541L185.645 71.4068L188.954 73.5312L210.616 39.8785L207.307 37.7541Z" fill="white"/>
<path d="M213.832 40.9787L192.319 74.7935L195.644 76.9033L217.157 43.0884L213.832 40.9787Z" fill="white"/>
<path d="M221.534 46.8609L199.871 80.5136L203.18 82.638L224.843 48.9853L221.534 46.8609Z" fill="white"/>
<path d="M234.827 51.3314L229.257 60.0863L238.023 65.6488L243.593 56.8939L234.827 51.3314Z" fill="white"/>
<path d="M232.976 158.6C229.72 157.806 224.697 156.647 222.141 156.392C218.17 155.995 218.17 151.04 220.949 151.636C222.455 151.958 223.787 151.12 224.692 150.273C224.969 150.009 225.228 149.728 225.469 149.43C225.799 149.035 226.254 148.763 226.758 148.657C228.247 148.333 231.345 147.843 233.252 148.869C233.693 149.14 234.05 149.529 234.284 149.992C235.14 151.509 235.574 154.073 235.808 156.137C235.846 156.502 235.796 156.872 235.661 157.214C235.526 157.556 235.31 157.861 235.032 158.102C234.755 158.344 234.423 158.515 234.065 158.602C233.707 158.688 233.333 158.687 232.976 158.6Z" fill="#B77983"/>
<path d="M182.759 160.583C179.503 159.79 174.48 158.63 171.924 158.375C167.954 157.979 167.954 153.024 170.732 153.619C172.538 154.011 174.114 152.697 174.978 151.749C175.084 151.633 175.18 151.522 175.262 151.419C175.593 151.024 176.047 150.752 176.552 150.646C178.041 150.322 181.139 149.832 183.045 150.857C183.603 151.159 184.049 151.818 184.405 152.661C185.047 154.191 185.401 156.34 185.597 158.115C185.636 158.482 185.586 158.853 185.451 159.196C185.316 159.539 185.1 159.845 184.822 160.087C184.543 160.33 184.21 160.501 183.851 160.588C183.492 160.674 183.117 160.672 182.759 160.583Z" fill="#B77983"/>
<path opacity="0.1" d="M184.397 152.656C179.658 157.533 175.595 152.566 174.979 151.746C175.084 151.63 175.18 151.52 175.262 151.417C175.593 151.021 176.047 150.749 176.552 150.644C178.041 150.319 181.139 149.829 183.045 150.855C183.595 151.143 184.041 151.803 184.397 152.656Z" fill="black"/>
<path opacity="0.1" d="M234.28 149.984C232.217 151.386 225.316 151.04 225.316 151.04C225.089 150.798 224.88 150.54 224.691 150.268C224.968 150.006 225.228 149.726 225.468 149.43C225.799 149.035 226.253 148.763 226.758 148.657C228.246 148.333 231.345 147.843 233.251 148.869C233.69 149.139 234.047 149.525 234.28 149.984Z" fill="black"/>
<path d="M234.644 149.059C233.254 150.842 225.316 150.448 225.316 150.448C225.316 150.448 222.934 148.07 221.941 142.914C220.948 137.759 212.414 121.309 212.414 121.309C210.43 118.733 208.841 113.974 208.841 113.974L205.467 92.3684C205.467 92.3684 189.191 113.776 189.389 118.336C189.588 122.896 185.816 140.928 185.816 140.928C184.426 143.306 184.426 152.027 184.426 152.027C179.266 157.378 174.899 151.035 174.899 151.035C173.906 146.872 175.495 133.196 175.495 133.196C175.495 133.196 177.876 121.701 178.075 114.564C178.273 107.427 180.654 105.644 180.654 105.644C182.508 98.2902 185.665 91.3264 189.975 85.0824C191.175 83.3665 191.967 82.4519 191.967 82.4519L224.121 86.2186C223.605 87.2491 223.143 88.7254 222.738 90.4722C220.649 99.4406 219.955 115.556 219.955 115.556C227.299 120.317 229.482 133.199 229.482 133.199C229.482 136.569 234.644 149.059 234.644 149.059Z" fill="#8499F0"/>
<g opacity="0.05">
<path opacity="0.05" d="M203.694 95.0066L203.281 92.3658C203.281 92.3658 187.005 113.773 187.204 118.333C187.403 122.893 183.634 140.928 183.634 140.928C182.243 143.306 182.243 152.027 182.243 152.027C181.162 153.148 180.115 153.756 179.147 154.016C180.711 154.426 182.612 154.127 184.637 152.027C184.637 152.027 184.637 143.306 186.028 140.928C186.028 140.928 189.799 122.893 189.601 118.331C189.433 114.765 199.37 100.876 203.694 95.0066Z" fill="black"/>
<path opacity="0.05" d="M229.68 133.199C229.68 133.199 227.498 120.317 220.153 115.558C220.153 115.558 220.847 99.4458 222.937 90.4748C223.344 88.728 223.801 87.2543 224.319 86.2212L192.168 82.4442C192.168 82.4442 192.093 82.5318 191.956 82.7019L221.941 86.2135C221.425 87.244 220.963 88.7203 220.558 90.4671C218.469 99.4355 217.775 115.551 217.775 115.551C225.117 120.317 227.299 133.199 227.299 133.199C227.299 136.569 232.459 149.057 232.459 149.057C231.641 150.108 228.545 150.401 226.141 150.466C228.047 150.515 233.689 150.533 234.84 149.057C234.842 149.059 229.68 136.569 229.68 133.199Z" fill="black"/>
</g>
<path d="M186.015 79.6823C185.775 80.2685 185.458 80.8203 185.073 81.3235C183.879 82.9286 181.397 85.0541 176.851 84.4718C176.517 84.4286 176.2 84.2997 175.93 84.0977C175.661 83.8957 175.448 83.6275 175.313 83.3191C175.178 83.0108 175.125 82.6727 175.16 82.3379C175.194 82.0031 175.315 81.6829 175.51 81.4085C176.676 79.7854 178.606 77.7784 181.495 76.8277C182.316 76.5551 183.166 76.3821 184.028 76.3124L186.015 79.6823Z" fill="#F7BBC3"/>
<path d="M227.932 24.2463L212.015 18.4314C212.015 18.4314 207.449 20.8094 209.236 24.1793L224.715 33.8923L227.932 24.2463Z" fill="#D39999"/>
<path opacity="0.1" d="M227.932 24.2463L212.015 18.4314C212.015 18.4314 207.449 20.8094 209.236 24.1793L224.715 33.8923L227.932 24.2463Z" fill="black"/>
<path d="M228.492 14.6648C228.492 14.6648 228.293 23.981 232.462 27.1525C236.631 30.324 220.355 32.1069 220.355 32.1069C220.355 32.1069 222.935 22.5923 220.355 17.6379C217.775 12.6835 228.492 14.6648 228.492 14.6648Z" fill="#F7BBC3"/>
<path opacity="0.1" d="M224.124 86.2212C223.608 87.2517 223.146 88.728 222.741 90.4748C203.545 93.4016 190.184 85.4277 190.184 85.4277C190.112 85.3117 190.042 85.1984 189.978 85.085C191.177 83.3691 191.969 82.4545 191.969 82.4545L224.124 86.2212Z" fill="black"/>
<path opacity="0.1" d="M186.015 79.6823C185.775 80.2684 185.458 80.8203 185.073 81.3235C183.236 81.0194 181.766 77.5104 181.495 76.8251C182.316 76.5525 183.166 76.3795 184.028 76.3098L186.015 79.6823Z" fill="black"/>
<path d="M230.078 22.9891L222.932 25.5655L219.955 29.5305C219.955 29.5305 213.802 31.5117 213.007 31.5117C212.213 31.5117 210.03 32.3053 208.64 35.4768C207.249 38.6483 202.291 54.104 197.923 56.6804C193.556 59.2568 182.045 76.5186 182.045 76.5186C182.045 76.5186 184.029 81.8697 186.412 81.0788L191.969 76.5186C191.969 76.5186 187.602 80.8804 190.184 84.8429C190.184 84.8429 206.46 94.5558 228.881 88.6095L229.08 82.6632L230.073 87.4192L241.204 80.4733C241.204 80.4733 240.209 67.679 238.416 61.1659C237.675 58.4277 237.95 55.5145 239.19 52.9627C242.071 46.9649 246.519 36.9479 245.977 33.2946C245.337 28.9895 242.902 27.1113 241.973 26.5548C241.761 26.4261 241.522 26.3469 241.274 26.3229L237.642 25.9596L230.078 22.9891Z" fill="#4267B2"/>
<path opacity="0.05" d="M217.87 42.9122C217.87 42.9122 213.9 61.3462 209.535 64.3194C205.17 67.2925 193.458 76.8071 193.061 78.3941" fill="#F9FAFF"/>
<path d="M216.085 42.3171C216.085 42.3171 212.115 60.7511 207.75 63.7242C203.385 66.6974 191.673 76.212 191.275 77.8067" fill="#4267B2"/>
<path opacity="0.1" d="M219.857 29.4326C219.857 29.4326 233.553 24.8724 237.521 26.0627L219.857 29.4326Z" fill="black"/>
<g opacity="0.05">
<path opacity="0.05" d="M239.169 52.9652C242.051 46.9674 246.498 36.9505 245.957 33.2971C245.317 28.992 242.881 27.1138 241.953 26.5573C241.74 26.4287 241.501 26.3494 241.254 26.3254L239.706 26.1709C239.868 26.2098 240.022 26.2732 240.165 26.3589C241.094 26.9257 243.519 28.7936 244.169 33.0988C244.711 36.7495 240.263 46.769 237.381 52.7669C236.142 55.3187 235.867 58.2319 236.607 60.9701C238.413 67.4832 239.396 80.2775 239.396 80.2775L229.825 86.2521L230.068 87.4141L241.205 80.4733C241.205 80.4733 240.209 67.679 238.416 61.1659C237.669 58.431 237.937 55.5189 239.169 52.9652Z" fill="black"/>
<path opacity="0.05" d="M235.833 25.7664L237.554 25.9364L230.078 22.989L229.407 23.2312L235.833 25.7664Z" fill="black"/>
</g>
<path opacity="0.05" d="M216.085 61.5446C216.085 61.5446 222.238 58.1747 224.222 58.9682C226.205 59.7617 233.55 58.7698 233.55 58.7698" fill="black"/>
<path opacity="0.05" d="M227.789 17.1432C227.562 15.1569 228.483 15.4583 228.483 15.4583C228.483 15.4583 217.764 13.4771 220.347 18.4314C220.992 19.6732 221.314 21.1985 221.435 22.7907H221.536C224.534 22.7933 226.27 19.4671 227.789 17.1432Z" fill="black"/>
<path d="M221.544 21.9972C226.257 21.9972 230.078 18.1814 230.078 13.4745C230.078 8.76754 226.257 4.95181 221.544 4.95181C216.831 4.95181 213.01 8.76754 213.01 13.4745C213.01 18.1814 216.831 21.9972 221.544 21.9972Z" fill="#F7BBC3"/>
<path opacity="0.1" d="M230.857 15.9968C231.631 14.3015 232.198 12.462 232.103 10.5864C232.007 8.71077 231.174 6.83259 229.626 5.79173C228.826 5.25327 227.882 4.96471 227.046 4.4752C226.399 4.09132 225.826 3.59408 225.21 3.16124C223.697 2.13427 221.94 1.52374 220.115 1.39121C218.291 1.25868 216.464 1.60883 214.818 2.40636C213.252 3.17928 211.916 4.36184 210.433 5.29964C208.949 6.23745 207.213 6.96141 205.482 6.68316C205.185 7.5076 205.915 8.32174 206.589 8.88597C207.866 9.95516 209.313 11.0218 210.974 11.0579C211.619 11.0733 212.298 10.9342 212.883 11.2047C213.278 11.4215 213.613 11.7321 213.859 12.109C214.661 13.1725 215.34 14.3228 215.884 15.5382C216.106 16.0354 216.333 16.5687 216.792 16.8702C217.566 17.3597 218.554 16.9526 219.462 16.9165C220.876 16.8624 222.145 17.7487 223.192 18.702C224.24 19.6552 225.233 20.7373 226.546 21.2397C227.531 21.6133 229.502 21.6004 230.005 20.423C230.194 19.9799 229.833 19.0292 229.907 18.4856C230.047 17.6276 230.496 16.7877 230.857 15.9968Z" fill="black"/>
<path d="M231.056 15.7984C231.83 14.1031 232.398 12.2636 232.302 10.388C232.207 8.51235 231.373 6.63416 229.825 5.59331C229.026 5.05484 228.082 4.76629 227.246 4.27677C226.598 3.89289 226.025 3.39565 225.409 2.96282C223.896 1.93585 222.139 1.32532 220.315 1.19279C218.49 1.06026 216.663 1.41041 215.018 2.20794C213.452 2.98085 212.115 4.16341 210.632 5.10122C209.149 6.03902 207.412 6.76298 205.681 6.48473C205.385 7.30917 206.115 8.12331 206.788 8.68754C208.065 9.75674 209.512 10.8234 211.174 10.8594C211.819 10.8749 212.497 10.7358 213.083 11.0063C213.477 11.2231 213.812 11.5337 214.058 11.9106C214.86 12.974 215.539 14.1243 216.083 15.3398C216.305 15.837 216.532 16.3703 216.991 16.6717C217.765 17.1613 218.753 16.7542 219.661 16.7181C221.075 16.664 222.344 17.5503 223.391 18.5036C224.439 19.4568 225.432 20.5389 226.745 21.0413C227.731 21.4149 229.702 21.402 230.205 20.2246C230.393 19.7814 230.032 18.8308 230.107 18.2871C230.246 17.4318 230.695 16.5893 231.056 15.7984Z" fill="black"/>
<path d="M174.584 149.046H39.5508V64.8063H56.8199L63.9246 73.5711H174.584V149.046Z" fill="#0F4CC5"/>
<path d="M47.2044 157.45C47.2044 157.45 41.3819 156.288 39.8288 154.737C38.2758 153.186 31.2898 150.474 30.5132 152.419C29.7367 154.364 20.0342 160.947 26.6436 162.111C33.253 163.276 42.1687 163.657 44.1113 162.884C46.0539 162.111 47.2044 157.45 47.2044 157.45Z" fill="#A8A8A8"/>
<path opacity="0.2" d="M26.6333 161.382C33.2324 162.544 42.1585 162.928 44.1011 162.155C45.5793 161.565 46.606 158.728 47.011 157.407L47.2045 157.448C47.2045 157.448 46.041 162.101 44.1088 162.874C42.1765 163.647 33.2402 163.26 26.6411 162.101C24.7372 161.766 24.1929 160.977 24.3967 159.978C24.5514 160.632 25.2144 161.132 26.6333 161.382Z" fill="black"/>
<path d="M167.521 168.106C167.521 168.106 158.639 166.331 156.268 163.966C153.897 161.601 143.24 157.461 142.056 160.418C140.872 163.376 126.062 173.429 136.123 175.204C146.184 176.979 159.81 177.569 162.772 176.387C165.733 175.204 167.521 168.106 167.521 168.106Z" fill="#A8A8A8"/>
<path opacity="0.2" d="M136.135 174.104C146.196 175.879 159.822 176.469 162.784 175.287C165.039 174.385 166.607 170.057 167.226 168.044L167.523 168.106C167.523 168.106 165.745 175.194 162.779 176.384C159.812 177.575 146.196 176.977 136.13 175.202C133.222 174.686 132.391 173.486 132.706 171.966C132.959 172.958 133.97 173.723 136.135 174.104Z" fill="black"/>
<path opacity="0.1" d="M120.728 104.349H90.8027V109.501H120.728V104.349Z" fill="black"/>
</g>
<defs>
<linearGradient id="paint0_linear" x1="124.584" y1="113.122" x2="35.349" y2="60.0257" gradientUnits="userSpaceOnUse">
<stop stop-color="#808080" stop-opacity="0.25"/>
<stop offset="0.54" stop-color="#808080" stop-opacity="0.12"/>
<stop offset="1" stop-color="#808080" stop-opacity="0.1"/>
</linearGradient>
<linearGradient id="paint1_linear" x1="72001.8" y1="117856" x2="72001.8" y2="17525.6" gradientUnits="userSpaceOnUse">
<stop stop-color="#808080" stop-opacity="0.25"/>
<stop offset="0.54" stop-color="#808080" stop-opacity="0.12"/>
<stop offset="1" stop-color="#808080" stop-opacity="0.1"/>
</linearGradient>
<clipPath id="clip0">
<rect width="259" height="177" fill="white"/>
</clipPath>
</defs>
</svg>
