<svg width="241" height="189" viewBox="0 0 241 189" fill="none" xmlns="http://www.w3.org/2000/svg">
<g clip-path="url(#clip0)">
<path opacity="0.1" d="M152.898 25.2533C140.085 24.8092 127.88 20.6608 116.224 16.1356C104.569 11.6105 93.0249 6.57376 80.5181 4.16935C72.4725 2.62299 63.274 2.40441 56.7898 6.72724C50.5538 10.8873 48.5377 18.0703 47.4543 24.7324C46.6377 29.7459 46.1598 35.0245 48.3939 39.717C49.9436 42.9725 52.6974 45.7141 54.6021 48.8347C61.2278 59.6965 56.5438 73.0882 49.3636 83.6918C45.9951 88.6541 42.086 93.4001 39.49 98.6856C36.8939 103.971 35.6876 110.05 37.9611 115.449C40.2161 120.797 45.5868 124.825 51.4168 127.655C63.2369 133.399 77.1681 135.043 90.7421 135.975C120.804 138.035 151.026 137.138 181.169 136.249C192.323 135.919 203.526 135.584 214.499 133.854C220.594 132.894 226.885 131.371 231.31 127.692C236.926 123.023 238.318 115.114 234.557 109.259C228.245 99.4367 210.79 96.9974 206.379 86.4566C203.951 80.6549 206.444 74.1904 209.973 68.8095C217.545 57.2665 230.235 47.1395 230.904 33.9455C231.368 24.8766 225.261 15.8077 215.824 11.5198C205.936 7.02488 192.228 7.58994 184.932 15.0311C177.413 22.7001 164.212 25.6486 152.898 25.2533Z" fill="#0F4CC5"/>
<path d="M116.728 174.343C116.728 174.343 106.056 155.389 89.9744 149.927C83.2257 147.634 77.3353 143.323 73.3079 137.431C71.4021 134.632 69.7559 131.665 68.3896 128.566" stroke="#535461" stroke-width="2" stroke-miterlimit="10"/>
<path d="M58.2796 125.06C60.11 126.841 68.6428 128.685 68.6428 128.685C68.6428 128.685 66.5548 120.193 64.7174 118.409C63.8316 117.586 62.6593 117.142 61.4513 117.174C60.2434 117.206 59.096 117.71 58.2545 118.58C57.4131 119.449 56.9446 120.614 56.9493 121.825C56.9539 123.036 57.4315 124.197 58.2796 125.06Z" fill="#0F4CC5"/>
<path d="M63.1049 140.428C65.6104 140.926 73.7766 137.826 73.7766 137.826C73.7766 137.826 67.413 131.836 64.9098 131.338C64.3093 131.207 63.6888 131.197 63.0844 131.309C62.48 131.42 61.904 131.652 61.3899 131.989C60.8758 132.327 60.434 132.764 60.0903 133.274C59.7466 133.785 59.508 134.359 59.3883 134.964C59.2686 135.568 59.2703 136.19 59.3933 136.793C59.5163 137.397 59.7581 137.97 60.1046 138.479C60.4511 138.988 60.8953 139.422 61.4112 139.757C61.9272 140.091 62.5045 140.32 63.1095 140.428H63.1049Z" fill="#0F4CC5"/>
<path d="M80.6805 157.052C83.0933 156.215 88.5683 149.409 88.5683 149.409C88.5683 149.409 80.0611 147.458 77.6484 148.295C76.5256 148.723 75.6132 149.572 75.1043 150.663C74.5954 151.754 74.53 153 74.922 154.138C75.314 155.277 76.1326 156.217 77.2044 156.761C78.2762 157.305 79.5171 157.409 80.6643 157.052H80.6805Z" fill="#0F4CC5"/>
<path d="M96.8047 166.639C99.3241 166.223 105.876 160.445 105.876 160.445C105.876 160.445 97.8185 157.08 95.299 157.496C94.1091 157.718 93.0533 158.398 92.3582 159.391C91.6631 160.384 91.3842 161.611 91.5813 162.807C91.7784 164.004 92.4358 165.076 93.4124 165.792C94.389 166.509 95.6069 166.813 96.8047 166.639Z" fill="#0F4CC5"/>
<path d="M80.8869 131.189C80.8869 133.747 76.2679 141.172 76.2679 141.172C76.2679 141.172 71.642 133.752 71.6396 131.194C71.6396 129.965 72.1268 128.786 72.9939 127.917C73.861 127.048 75.037 126.56 76.2633 126.56C77.4895 126.56 78.6656 127.048 79.5327 127.917C80.3998 128.786 80.8869 129.965 80.8869 131.194V131.189Z" fill="#0F4CC5"/>
<path d="M99.6018 142.635C98.8386 145.076 92.2151 150.773 92.2151 150.773C92.2151 150.773 90.0158 142.307 90.7791 139.865C90.9398 139.261 91.2209 138.695 91.6055 138.203C91.99 137.71 92.4701 137.301 93.0167 136.999C93.5633 136.697 94.1653 136.51 94.7862 136.447C95.4071 136.385 96.0341 136.449 96.6296 136.636C97.2251 136.824 97.7766 137.13 98.2509 137.536C98.7253 137.942 99.1127 138.441 99.3897 139.001C99.6668 139.562 99.8278 140.172 99.863 140.797C99.8983 141.421 99.8071 142.047 99.5949 142.635H99.6018Z" fill="#0F4CC5"/>
<path d="M116.269 156.261C115.93 158.796 110.362 165.535 110.362 165.535C110.362 165.535 106.767 157.564 107.115 155.027C107.195 154.424 107.394 153.843 107.699 153.317C108.004 152.79 108.409 152.33 108.892 151.961C109.374 151.592 109.925 151.322 110.511 151.166C111.098 151.01 111.71 150.971 112.311 151.053C112.913 151.134 113.492 151.333 114.017 151.638C114.542 151.944 115.002 152.35 115.37 152.834C115.738 153.318 116.008 153.869 116.163 154.457C116.318 155.045 116.357 155.658 116.276 156.261H116.269Z" fill="#0F4CC5"/>
<path opacity="0.25" d="M58.2796 125.06C60.11 126.841 68.6428 128.685 68.6428 128.685C68.6428 128.685 66.5548 120.193 64.7174 118.409C63.8316 117.586 62.6593 117.142 61.4513 117.174C60.2434 117.206 59.096 117.71 58.2545 118.58C57.4131 119.449 56.9446 120.614 56.9493 121.825C56.9539 123.036 57.4315 124.197 58.2796 125.06Z" fill="black"/>
<path opacity="0.25" d="M63.1049 140.428C65.6104 140.926 73.7766 137.826 73.7766 137.826C73.7766 137.826 67.413 131.836 64.9098 131.338C64.3093 131.207 63.6888 131.197 63.0844 131.309C62.48 131.42 61.904 131.652 61.3899 131.989C60.8758 132.327 60.434 132.764 60.0903 133.274C59.7466 133.785 59.508 134.359 59.3883 134.964C59.2686 135.568 59.2703 136.19 59.3933 136.793C59.5163 137.397 59.7581 137.97 60.1046 138.479C60.4511 138.988 60.8953 139.422 61.4112 139.757C61.9272 140.091 62.5045 140.32 63.1095 140.428H63.1049Z" fill="black"/>
<path opacity="0.25" d="M80.6805 157.052C83.0933 156.215 88.5683 149.409 88.5683 149.409C88.5683 149.409 80.0611 147.458 77.6484 148.295C76.5256 148.723 75.6132 149.572 75.1043 150.663C74.5954 151.754 74.53 153 74.922 154.138C75.314 155.277 76.1326 156.217 77.2044 156.761C78.2762 157.305 79.5171 157.409 80.6643 157.052H80.6805Z" fill="black"/>
<path opacity="0.25" d="M96.8047 166.639C99.3241 166.223 105.876 160.445 105.876 160.445C105.876 160.445 97.8185 157.08 95.299 157.496C94.1091 157.718 93.0533 158.398 92.3582 159.391C91.6631 160.384 91.3842 161.611 91.5813 162.807C91.7784 164.004 92.4358 165.076 93.4124 165.792C94.389 166.509 95.6069 166.813 96.8047 166.639Z" fill="black"/>
<path opacity="0.25" d="M80.8869 131.189C80.8869 133.747 76.2679 141.172 76.2679 141.172C76.2679 141.172 71.642 133.752 71.6396 131.194C71.6396 129.965 72.1268 128.786 72.9939 127.917C73.861 127.048 75.037 126.56 76.2633 126.56C77.4895 126.56 78.6656 127.048 79.5327 127.917C80.3998 128.786 80.8869 129.965 80.8869 131.194V131.189Z" fill="black"/>
<path opacity="0.25" d="M99.6018 142.635C98.8386 145.076 92.2151 150.773 92.2151 150.773C92.2151 150.773 90.0158 142.307 90.7791 139.865C90.9398 139.261 91.2209 138.695 91.6055 138.203C91.99 137.71 92.4701 137.301 93.0167 136.999C93.5633 136.697 94.1653 136.51 94.7862 136.447C95.4071 136.385 96.0341 136.449 96.6296 136.636C97.2251 136.824 97.7766 137.13 98.2509 137.536C98.7253 137.942 99.1127 138.441 99.3897 139.001C99.6668 139.562 99.8278 140.172 99.863 140.797C99.8983 141.421 99.8071 142.047 99.5949 142.635H99.6018Z" fill="black"/>
<path opacity="0.25" d="M116.269 156.261C115.93 158.796 110.362 165.535 110.362 165.535C110.362 165.535 106.767 157.564 107.115 155.027C107.195 154.424 107.394 153.843 107.699 153.317C108.004 152.79 108.409 152.33 108.892 151.961C109.374 151.592 109.925 151.322 110.511 151.166C111.098 151.01 111.71 150.971 112.311 151.053C112.913 151.134 113.492 151.333 114.017 151.638C114.542 151.944 115.002 152.35 115.37 152.834C115.738 153.318 116.008 153.869 116.163 154.457C116.318 155.045 116.357 155.658 116.276 156.261H116.269Z" fill="black"/>
<path d="M116.112 173.967C116.112 173.967 114.025 152.301 101.527 140.777C96.2839 135.94 92.6416 129.615 91.3425 122.583C90.7307 119.25 90.4255 115.868 90.4307 112.48" stroke="#535461" stroke-width="2" stroke-miterlimit="10"/>
<path d="M82.604 105.171C83.5575 107.545 90.6124 112.696 90.6124 112.696C90.6124 112.696 92.132 104.08 91.1785 101.706C90.9515 101.141 90.6157 100.627 90.1904 100.192C89.765 99.757 89.2583 99.4104 88.6993 99.1718C88.1403 98.9332 87.5398 98.8073 86.9322 98.8013C86.3247 98.7952 85.7219 98.9092 85.1582 99.1367C84.5946 99.3642 84.0812 99.7008 83.6474 100.127C83.2135 100.554 82.8677 101.061 82.6296 101.622C82.3916 102.182 82.266 102.784 82.26 103.393C82.254 104.002 82.3677 104.606 82.5947 105.171H82.604Z" fill="#0F4CC5"/>
<path d="M80.801 121.181C82.8889 122.653 91.6049 123.134 91.6049 123.134C91.6049 123.134 88.2109 115.075 86.1229 113.6C85.6271 113.238 85.0642 112.977 84.467 112.835C83.8698 112.693 83.2502 112.671 82.6446 112.771C82.0389 112.871 81.4592 113.091 80.9392 113.418C80.4193 113.745 79.9695 114.173 79.6162 114.676C79.2628 115.179 79.013 115.748 78.8812 116.349C78.7495 116.95 78.7384 117.571 78.8487 118.176C78.959 118.782 79.1884 119.359 79.5236 119.874C79.8588 120.39 80.293 120.833 80.801 121.179V121.181Z" fill="#0F4CC5"/>
<path d="M90.1459 143.523C92.6979 143.737 100.456 139.742 100.456 139.742C100.456 139.742 93.4658 134.496 90.9208 134.289C90.3084 134.224 89.6892 134.282 89.0995 134.459C88.5098 134.637 87.9615 134.931 87.4867 135.324C87.0119 135.717 86.6203 136.202 86.3347 136.749C86.0492 137.295 85.8755 137.894 85.8239 138.509C85.7723 139.124 85.8438 139.743 86.0342 140.33C86.2245 140.917 86.53 141.46 86.9326 141.927C87.3352 142.394 87.8268 142.776 88.3786 143.05C88.9304 143.324 89.5313 143.485 90.1459 143.523Z" fill="#0F4CC5"/>
<path d="M101.013 158.833C103.486 159.475 111.812 156.852 111.812 156.852C111.812 156.852 105.806 150.504 103.335 149.862C102.156 149.576 100.912 149.765 99.8705 150.391C98.8295 151.016 98.0754 152.026 97.771 153.203C97.4665 154.381 97.636 155.631 98.243 156.684C98.85 157.737 99.8457 158.509 101.015 158.833H101.013Z" fill="#0F4CC5"/>
<path d="M100.795 119.956C99.76 122.297 92.5357 127.206 92.5357 127.206C92.5357 127.206 91.3062 118.544 92.3385 116.205C92.8388 115.087 93.7602 114.213 94.9014 113.774C96.0425 113.336 97.3106 113.368 98.4283 113.864C99.546 114.359 100.422 115.278 100.866 116.42C101.309 117.562 101.284 118.833 100.795 119.956Z" fill="#0F4CC5"/>
<path d="M113.275 138.021C111.591 139.944 103.232 142.463 103.232 142.463C103.232 142.463 104.645 133.829 106.33 131.908C106.73 131.451 107.216 131.077 107.761 130.808C108.305 130.54 108.897 130.381 109.503 130.342C110.109 130.302 110.716 130.383 111.291 130.579C111.865 130.775 112.396 131.082 112.852 131.484C113.308 131.885 113.681 132.373 113.949 132.918C114.217 133.464 114.375 134.057 114.415 134.665C114.454 135.272 114.374 135.881 114.178 136.456C113.983 137.032 113.676 137.564 113.275 138.021Z" fill="#0F4CC5"/>
<path d="M123.006 157.25C121.66 159.431 113.856 163.33 113.856 163.33C113.856 163.33 113.791 154.582 115.127 152.401C115.769 151.353 116.8 150.603 117.993 150.316C119.187 150.03 120.445 150.23 121.491 150.874C122.537 151.517 123.285 152.55 123.571 153.746C123.857 154.943 123.657 156.204 123.015 157.252L123.006 157.25Z" fill="#0F4CC5"/>
<path opacity="0.1" d="M138.7 189C173.142 189 201.063 186.988 201.063 184.505C201.063 182.023 173.142 180.01 138.7 180.01C104.258 180.01 76.3379 182.023 76.3379 184.505C76.3379 186.988 104.258 189 138.7 189Z" fill="#0F4CC5"/>
<path d="M226.916 59.0291C227.097 58.5338 225.74 55.7852 225.74 55.6503C225.74 55.5155 224.336 53.9831 224.336 53.1273C224.336 52.2716 222.48 50.4253 222.48 50.4253C222.48 50.4253 219.991 49.3882 219.719 47.1349C219.448 44.8816 216.738 44.8375 216.731 44.8375C216.731 44.8375 216.743 44.6305 216.748 44.3212C216.748 43.6236 216.727 42.3679 216.413 41.6843C215.949 40.6937 214.873 40.3774 214.873 40.3774C214.873 40.3774 214.602 38.6195 214.059 38.0777C213.755 37.7599 213.538 37.3697 213.427 36.944C213.316 36.5183 213.315 36.0713 213.425 35.6453C213.697 34.7919 213.063 32.6224 211.75 32.3131C210.437 32.0038 208.943 31.5016 208.943 31.5016C208.943 31.5016 208.797 31.5295 208.581 31.5597L208.4 31.5016C208.086 31.5602 207.768 31.5998 207.449 31.6201C207.172 31.6279 206.9 31.5382 206.681 31.3667C206.217 30.8714 202.563 29.925 201.884 29.925C201.204 29.925 199.257 29.0227 199.257 29.0227C199.257 29.0227 197.9 27.9879 197.313 27.5368C196.766 27.1206 195.757 25.4301 195.611 25.1812L195.592 25.1487H195.58C195.442 24.8286 195.323 24.5001 195.225 24.1651C195.205 24.0953 195.188 24.0255 195.17 23.9558C195.832 23.259 196.398 22.477 196.854 21.6304C196.9 21.5421 196.942 21.4514 196.986 21.363C197.086 21.3627 197.186 21.347 197.281 21.3165C197.321 21.303 197.361 21.2875 197.399 21.27C197.858 21.0278 198.203 20.6143 198.36 20.119C198.392 20.0213 198.42 19.9213 198.446 19.8213L198.466 19.7213C198.483 19.6539 198.497 19.5841 198.51 19.5144C198.524 19.4446 198.522 19.4376 198.529 19.3981C198.536 19.3586 198.55 19.2632 198.559 19.1958C198.568 19.1284 198.559 19.1191 198.575 19.0818C198.587 18.9958 198.596 18.9121 198.608 18.8261C198.645 18.5075 198.682 18.1889 198.749 17.8773C198.748 17.8727 198.748 17.868 198.749 17.8634C199.019 16.6402 199.754 15.6078 200.274 14.4776C200.348 14.3149 200.417 14.1498 200.482 13.9847C200.547 13.8196 200.608 13.6219 200.661 13.4359C200.677 13.3801 200.689 13.3243 200.705 13.2685C200.739 13.132 200.769 12.9948 200.796 12.8569C200.807 12.7987 200.819 12.7406 200.828 12.6802C200.861 12.4941 200.886 12.3058 200.9 12.1174C200.993 11.0407 200.834 9.95697 200.436 8.95261C200.097 8.10618 199.592 7.34347 199.248 6.49936C198.729 5.21577 198.592 3.76475 197.956 2.54626C196.891 0.497628 194.381 -0.527852 192.319 0.241839C191.335 0.609245 190.481 1.32313 189.481 1.63705C188.145 2.06492 186.714 1.74402 185.329 1.55101C183.944 1.35801 182.415 1.34173 181.301 2.24862C180.018 3.2927 179.677 5.2553 178.466 6.39937C177.96 6.88072 177.332 7.18767 176.798 7.63181C176.423 7.93353 176.134 8.32895 175.961 8.77821C175.961 8.81076 175.94 8.84332 175.93 8.87587C175.921 8.90843 175.91 8.95261 175.9 8.99214C175.891 9.03167 175.884 9.08283 175.877 9.12701C175.87 9.17119 175.877 9.1898 175.877 9.22003C175.871 9.2974 175.871 9.37519 175.877 9.45256C175.885 9.53076 175.897 9.60841 175.914 9.6851C175.918 9.70559 175.924 9.72579 175.93 9.74555C175.946 9.8101 175.964 9.87375 175.986 9.93623C175.986 9.93623 175.986 9.95949 175.986 9.97111C176.012 10.0409 176.04 10.1083 176.067 10.1781L176.111 10.2781C176.111 10.306 176.137 10.3339 176.149 10.3641C176.325 10.6971 176.466 11.0478 176.568 11.4105C176.626 11.6418 176.612 11.8854 176.527 12.1081C176.405 12.3596 176.235 12.5841 176.026 12.7685C175.124 13.7072 174.428 14.8239 173.982 16.0473C173.931 16.1868 173.882 16.3263 173.836 16.4682C173.836 16.4682 173.836 16.4682 173.836 16.4798L173.896 16.4961C174.026 16.5336 174.159 16.5623 174.293 16.5821C174.369 16.5821 174.446 16.6007 174.525 16.6053C174.836 16.6233 175.148 16.5998 175.453 16.5356C175.531 16.5193 175.608 16.5007 175.685 16.4798C175.999 16.3946 176.306 16.2818 176.601 16.1426C176.601 16.2356 176.601 16.3263 176.601 16.4193C176.601 16.4705 176.601 16.5216 176.601 16.5728C176.603 18.5658 177.161 20.5185 178.21 22.2115C179.259 23.9044 180.759 25.2703 182.54 26.1556C182.554 26.2556 182.566 26.3509 182.579 26.4486C182.593 26.5462 182.6 26.6137 182.61 26.6951L182.487 26.5765C182.487 26.5765 181.672 26.1718 180.902 27.3438C180.132 28.5158 178.684 29.0553 178.684 29.0553C178.684 29.0553 170.446 30.3621 170.131 31.4434L166.282 31.676C166.282 31.676 164.925 31.855 164.79 34.6989C164.656 37.5428 163.929 37.8079 163.929 37.8079C163.929 37.8079 162.345 40.5983 162.482 42.0424C162.619 43.4864 161.259 44.205 161.259 44.205L161.078 46.7628C161.078 46.7628 159.584 46.5303 159.176 48.2953C158.768 50.0602 158.046 50.8531 158.046 50.8531C158.046 50.8531 155.554 52.9274 155.42 54.683L153.882 55.6294C153.882 55.6294 150.304 54.8179 149.49 53.3761L149.24 53.1436C149.231 53.1328 149.224 53.1211 149.219 53.1087C149.218 53.1141 149.218 53.1196 149.219 53.125C148.685 52.6204 147.548 51.5601 147.722 51.8042C147.827 52.031 147.853 52.2864 147.797 52.5297L147.53 52.2344L146.818 51.4415C146.818 51.4415 141.498 45.3165 138.104 44.8863L137.846 44.377C137.776 44.2393 137.655 44.1351 137.508 44.0871C137.362 44.0392 137.202 44.0515 137.065 44.1212L131.944 46.6791C131.876 46.713 131.815 46.7601 131.765 46.8176C131.715 46.8752 131.677 46.9421 131.653 47.0145C131.629 47.0869 131.619 47.1633 131.625 47.2395C131.63 47.3156 131.65 47.3899 131.685 47.4581L132.258 48.5859H132.246C132.239 48.5891 132.234 48.5936 132.229 48.5991C132.224 48.6047 132.221 48.6111 132.218 48.6181C132.216 48.6251 132.215 48.6324 132.216 48.6397C132.217 48.6469 132.219 48.654 132.223 48.6603L132.425 49.058C132.431 49.0712 132.443 49.0813 132.457 49.0861C132.47 49.0909 132.486 49.09 132.499 49.0835L132.71 49.4998C132.695 49.5073 132.684 49.5202 132.679 49.5359C132.674 49.5516 132.675 49.5687 132.682 49.5835L133.065 50.3369C133.068 50.3444 133.073 50.3512 133.08 50.3567C133.086 50.3622 133.093 50.3664 133.101 50.369C133.109 50.3716 133.117 50.3726 133.125 50.3719C133.133 50.3712 133.141 50.3688 133.148 50.3648L133.304 50.6694C133.29 50.6769 133.28 50.6892 133.275 50.7039C133.271 50.7186 133.272 50.7346 133.278 50.7485L133.668 51.5159C133.671 51.523 133.676 51.5294 133.682 51.5347C133.688 51.5399 133.694 51.5439 133.702 51.5463C133.709 51.5487 133.717 51.5495 133.725 51.5487C133.733 51.5479 133.74 51.5454 133.747 51.5414L137.459 58.8919C137.529 59.0295 137.65 59.1339 137.797 59.1822C137.943 59.2306 138.103 59.219 138.241 59.15L142.171 57.1804L142.31 57.2827L143.47 58.7779C143.273 59.243 143.108 59.7081 142.969 60.1243C142.966 60.1377 142.962 60.1509 142.957 60.1639C142.927 60.2522 142.899 60.3406 142.874 60.4243L142.846 60.5127C142.818 60.5987 142.792 60.6824 142.769 60.7615L142.728 60.9103C142.728 60.9382 142.709 60.9684 142.702 60.9963C142.574 61.4474 142.493 61.7962 142.449 61.9893L142.15 61.8962L142.442 62.0218C142.442 62.0381 142.442 62.0567 142.442 62.0683C142.428 62.1288 142.424 62.1637 142.424 62.1637C142.512 62.2055 142.605 62.245 142.702 62.2846C144.287 62.9822 152.2 66.4563 152.606 66.9841C153.058 67.5701 156.046 69.2816 158.763 67.8398C161.48 66.3981 162.067 64.1914 162.067 64.1914C162.067 64.1914 164.693 60.5406 164.783 60.0057C164.874 59.4709 166.911 58.8431 166.911 58.8431C166.911 58.8431 167.092 64.889 166.05 67.0888C165.008 69.2885 163.062 79.0713 163.062 79.0713C163.189 79.0461 163.318 79.0383 163.447 79.048L163.333 79.6131C163.491 79.5832 163.653 79.5832 163.811 79.6131C163.667 80.7223 162.837 85.8916 162.837 85.8916C162.837 85.8916 162.565 88.2355 162.111 89.0447C161.656 89.854 161.614 94.0907 161.614 94.0907L160.89 97.1556C160.89 97.1556 160.985 97.3672 161.164 97.6834V97.695C161.164 97.695 161.941 99.4251 163.252 100.395C163.192 100.874 163.069 101.343 162.888 101.79C162.424 102.69 162.526 103.953 162.526 103.953C162.526 103.953 161.758 107.42 161.846 108.413C161.934 109.406 161.331 111.836 161.331 111.836L160.517 119.674C160.517 119.674 159.974 126.476 160.245 128.325C160.517 130.173 160.064 132.694 160.064 132.694C160.064 132.694 160.607 138.056 160.47 138.64C160.334 139.224 159.656 141.749 160.064 143.146C160.473 144.544 160.245 148.371 160.245 148.371C160.245 148.371 160.517 153.42 160.832 155.041C161.148 156.661 160.742 158.736 160.742 158.736C160.742 158.736 160.424 162.205 160.278 162.205C160.132 162.205 158.965 164.591 161.364 166.935C163.762 169.279 162.282 168.911 162.282 168.911C162.282 168.911 160.38 167.965 160.607 169.902C160.821 171.746 161.12 171.265 161.148 171.213L160.684 172.695C160.684 172.695 160.802 172.709 161.002 172.739L160.74 173.055C160.465 173.399 160.159 173.716 159.825 174.004C159.283 174.408 159.236 175.308 159.236 175.308C159.236 175.308 155.889 178.959 152.766 180.805C151.123 181.777 149.704 182.601 149.086 183.28C148.53 183.891 148.622 184.387 149.782 184.77C152.228 185.582 156.527 185.986 159.603 184.952C161.438 184.338 163.089 183.268 164.4 181.843C164.4 181.843 166.349 180.85 168.249 181.21C170.149 181.571 173.952 179.094 173.952 179.094L173.882 178.455L173.68 176.615C173.68 176.615 173.216 176.073 173.362 175.49C173.425 175.225 173.33 174.541 173.207 173.862C173.174 173.683 173.14 173.506 173.105 173.339L173.453 173.274C173.453 173.274 173.003 170.976 173.817 170.525C174.631 170.074 174.404 164.172 174.404 164.172C174.404 164.172 173.362 162.821 172.819 162.596C172.277 162.37 172.773 159.573 172.866 159.217C172.959 158.861 173.68 151.873 173.68 151.873C173.68 151.873 173.409 149.667 173.771 148.72C174.133 147.774 173.318 144.125 173.318 144.125C173.318 144.125 173.047 143.674 173.55 143.132C174.054 142.591 173.859 137.786 173.859 137.786C173.859 137.786 173.815 135.354 173.815 134.722C173.815 134.089 174.358 131.794 174.854 131.029C175.351 130.264 175.037 127.873 175.037 127.873L175.065 127.694C175.065 127.627 175.088 127.539 175.105 127.439L175.146 127.206C175.364 125.886 175.658 124.58 176.028 123.295C176.617 121.402 177.297 118.07 177.297 118.07L181.515 107.057L181.563 106.927C181.563 106.927 183.507 110.531 183.507 113.868C183.507 113.868 184.009 117.877 183.872 118.958C183.735 120.039 184.28 125.13 184.28 125.13C184.28 125.13 184.867 132.427 184.867 132.743C184.867 133.059 185.591 138.691 186.045 139.549C186.5 140.407 185.581 143.016 185.319 143.286C185.057 143.556 185.41 150.181 185.41 150.181C185.41 150.181 184.73 155.406 184.595 156.487C184.461 157.568 183.916 161.714 184.363 163.337C184.811 164.961 184.635 165.184 184.635 165.184C184.635 165.184 186.259 166.851 185.315 166.986C184.37 167.121 182.918 168.337 183.503 170.274C184.087 172.211 185.498 175.097 185.498 175.097C185.498 175.097 185.779 175.034 186.247 174.939V175.473L186.303 178.159C186.303 178.159 186.618 180.717 186.437 181.315C186.305 181.74 186.124 183.761 186.036 184.803C186.004 185.189 185.985 185.447 185.985 185.447C185.985 185.447 185.985 187.833 191.008 187.114C196.03 186.396 196.938 184.41 196.938 184.41L196.975 184.161C197.049 183.696 197.207 182.74 197.344 182.203C197.527 181.48 195.898 178.236 195.898 178.236C195.898 178.236 195.624 176.032 195.172 175.534C194.985 175.248 194.86 174.925 194.808 174.587C194.766 174.406 194.731 174.218 194.701 174.032C194.819 174.048 194.933 174.069 195.035 174.092C195.035 174.092 194.764 172.516 195.808 172.018C196.852 171.52 196.576 170.488 196.441 170.037C196.307 169.586 196.847 167.065 196.847 167.065C196.774 166.814 196.769 166.548 196.833 166.295C196.897 166.042 197.026 165.81 197.209 165.623C197.845 164.991 198.341 160.575 198.341 160.575L198.45 143.565C198.45 143.565 198.768 140.542 198.406 139.328C198.044 138.114 197.68 135.77 198.174 135.143C198.668 134.515 198.22 131.585 198.22 131.585C198.22 131.585 198.22 125.411 198.898 123.881C199.575 122.351 199.362 112.661 199.362 112.661L199.541 106.31C199.541 106.31 201.018 104.915 200.668 97.5951C202.246 97.4974 204.025 97.4393 204.294 97.6578C204.791 98.0624 208.006 100.137 209.906 98.8205C210.314 98.6391 212.168 97.0625 212.168 97.0625L211.37 83.5546C211.869 84.308 212.17 84.8079 212.17 84.8079C212.17 82.9151 217.506 76.7878 217.506 76.7878C217.506 76.7878 222.485 70.3466 223.57 69.5792C224.656 68.8118 226.784 64.7588 226.784 64.7588C227.099 63.9855 227.462 63.233 227.872 62.5055C228.363 61.6893 226.735 59.5267 226.916 59.0291ZM215.237 63.7612C213.88 63.896 211.029 67.005 210.982 67.6794C210.959 68.0352 210.66 68.5142 210.382 68.8909C210.361 68.6188 210.338 68.3421 210.314 68.0607C209.994 64.0797 209.651 59.2244 209.809 58.7593C210.08 57.9478 209.987 54.2993 209.987 54.2993L210.038 54.2296C210.952 57.0572 213.785 60.3917 213.785 60.3917C213.785 60.3917 214.284 61.8335 214.871 61.8776C215.458 61.9218 215.237 63.7612 215.237 63.7612Z" fill="url(#paint0_linear)"/>
<path d="M142.667 62.731C142.667 62.731 144.316 54.0575 149.627 54.0133L153.506 62.0172L150.919 63.8054C150.919 63.8054 145.298 63.9844 142.667 62.731Z" fill="#65617D"/>
<path opacity="0.1" d="M153.506 62.0148L150.919 63.8053C150.919 63.8053 146.975 63.9309 144.136 63.2333C143.631 63.1151 143.139 62.9468 142.667 62.731C142.667 62.731 142.667 62.6845 142.697 62.5915C142.697 62.5807 142.697 62.5698 142.697 62.5589C142.941 61.4704 143.277 60.4046 143.702 59.3732C143.864 58.9849 144.05 58.5826 144.249 58.1826C145.026 56.6828 146.119 55.2132 147.613 54.4853C148.166 54.2129 148.768 54.0547 149.383 54.0203H149.541H149.62L149.703 54.197L151.016 56.9014L153.506 62.0148Z" fill="black"/>
<path d="M197.579 98.0555C197.579 98.0555 203.147 97.5183 203.646 97.9206C204.145 98.3229 207.305 100.381 209.177 99.0833C211.049 97.7857 209.801 93.2699 209.801 93.0908C209.801 92.9118 209.625 86.5194 209.625 86.5194L206.277 82.0036L202.085 74.0974L193.52 73.2486L193.752 85.8055L193.707 92.2444L197.579 98.0555Z" fill="#65617D"/>
<path opacity="0.1" d="M197.579 98.0555C197.579 98.0555 203.147 97.5183 203.646 97.9206C204.145 98.3229 207.305 100.381 209.177 99.0833C211.049 97.7857 209.801 93.2699 209.801 93.0908C209.801 92.9118 209.625 86.5194 209.625 86.5194L206.277 82.0036L202.085 74.0974L193.52 73.2486L193.752 85.8055L193.707 92.2444L197.579 98.0555Z" fill="black"/>
<path d="M148.508 53.79C148.508 53.79 148.065 59.2453 144.673 59.3337C144.673 59.3337 143.713 58.7523 142.421 57.785C139.442 55.5503 134.714 51.2554 136.02 47.2605C137.894 41.5378 146.993 52.0902 146.993 52.0902L147.689 52.8762L148.508 53.79Z" fill="#FBBEBE"/>
<path opacity="0.1" d="M148.508 53.7901C148.508 53.7901 148.065 59.2454 144.674 59.3337C144.674 59.3337 143.713 58.7524 142.421 57.785L142.131 57.413C142.706 57.7138 143.339 57.8844 143.987 57.9129C144.838 57.9315 145.796 57.6153 146.411 56.3828C146.764 55.6806 147.074 54.9577 147.339 54.2179C147.502 53.7845 147.617 53.3346 147.682 52.8762L148.508 53.7901Z" fill="#4267B2"/>
<path d="M147.038 63.6705L146.275 62.6868L143.7 59.3732L142.392 57.6803C142.966 57.9826 143.6 58.1541 144.248 58.1826C145.099 58.2012 146.057 57.885 146.674 56.6502C147.027 55.9481 147.337 55.2251 147.602 54.4853C148.027 53.2785 148.017 52.6576 147.869 52.4483C147.721 52.239 148.816 53.2598 149.342 53.7598L149.361 53.7784C149.512 53.9179 149.609 54.0109 149.609 54.0109L149.699 54.1923L150.992 56.7828L151.006 56.892C151.124 57.7152 151.56 62.931 147.038 63.6705Z" fill="#E7EFFD"/>
<path d="M173.759 178.761C173.759 178.761 170.012 181.222 168.14 180.854C166.268 180.487 164.347 181.482 164.347 181.482C163.056 182.896 161.429 183.957 159.617 184.568C156.584 185.596 152.348 185.193 149.94 184.386C148.799 184.007 148.708 183.514 149.256 182.91C149.866 182.233 151.265 181.417 152.884 180.452C155.96 178.62 159.262 174.997 159.262 174.997C159.262 174.997 159.306 174.104 159.842 173.701C160.17 173.42 160.471 173.109 160.742 172.771C161.22 172.204 161.67 171.609 161.67 171.609L172.689 171.967C172.689 171.967 172.877 172.764 173.024 173.578C173.147 174.246 173.242 174.925 173.179 175.187C173.044 175.766 173.492 176.304 173.492 176.304L173.689 178.129L173.759 178.761Z" fill="#65617D"/>
<path d="M196.826 181.845C196.694 182.38 196.534 183.34 196.462 183.791C196.436 183.945 196.425 184.038 196.425 184.038C196.425 184.038 195.531 186.005 190.581 186.721C185.63 187.437 185.63 185.065 185.63 185.065C185.63 185.065 185.648 184.81 185.681 184.426C185.767 183.38 185.945 181.377 186.075 180.952C186.254 180.371 185.943 177.822 185.943 177.822L185.89 175.157L185.853 173.297L194.061 172.446C194.113 173.061 194.201 173.673 194.325 174.278C194.376 174.611 194.499 174.928 194.685 175.208C195.13 175.704 195.399 177.892 195.399 177.892C195.399 177.892 197 181.129 196.826 181.845Z" fill="#65617D"/>
<path opacity="0.1" d="M172.699 171.964C172.699 171.964 172.887 172.762 173.033 173.576C171.843 173.794 166.64 174.699 165.338 174.067C163.867 173.35 160.698 172.948 160.698 172.948L160.752 172.767C161.23 172.199 161.68 171.604 161.68 171.604L172.699 171.964Z" fill="black"/>
<path opacity="0.1" d="M194.321 174.287C192.233 173.934 187.681 174.79 185.886 175.157L185.849 173.297L194.057 172.446C194.108 173.064 194.197 173.679 194.321 174.287Z" fill="black"/>
<path d="M198.962 106.506L198.784 112.81C198.784 112.81 199.016 122.423 198.338 123.944C197.661 125.464 197.668 131.589 197.668 131.589C197.668 131.589 198.116 134.496 197.624 135.119C197.132 135.742 197.489 138.072 197.856 139.279C198.222 140.486 197.898 143.484 197.898 143.484L197.809 160.384C197.809 160.384 197.32 164.765 196.694 165.393C196.514 165.579 196.386 165.809 196.324 166.06C196.261 166.311 196.266 166.575 196.339 166.823C196.339 166.823 195.803 169.325 195.937 169.774C196.072 170.223 196.339 171.248 195.313 171.739C194.288 172.23 194.552 173.797 194.552 173.797C192.1 173.216 185.143 174.783 185.143 174.783C185.143 174.783 183.751 171.92 183.178 169.997C182.605 168.074 184.027 166.867 184.962 166.742C185.897 166.616 184.293 164.951 184.293 164.951C184.293 164.951 184.472 164.719 184.027 163.119C183.581 161.519 184.115 157.394 184.259 156.322C184.402 155.25 185.061 150.062 185.061 150.062C185.061 150.062 184.706 143.491 184.973 143.221C185.24 142.951 186.133 140.358 185.688 139.5C185.242 138.642 184.528 133.061 184.528 132.757C184.528 132.452 183.948 125.199 183.948 125.199C183.948 125.199 183.414 120.146 183.546 119.074C183.679 118.002 183.189 114.024 183.189 114.024C183.189 110.712 181.273 107.136 181.273 107.136L181.224 107.264L177.078 118.193C177.078 118.193 176.41 121.5 175.828 123.379C175.463 124.654 175.172 125.95 174.958 127.26L174.919 127.492C174.902 127.592 174.888 127.678 174.879 127.743L174.851 127.925C174.851 127.925 175.162 130.294 174.673 131.055C174.183 131.815 173.626 134.094 173.626 134.729C173.626 135.363 173.668 137.773 173.668 137.773C173.668 137.773 173.849 142.556 173.357 143.093C172.865 143.63 173.125 144.077 173.125 144.077C173.125 144.077 173.93 147.697 173.573 148.637C173.216 149.576 173.485 151.764 173.485 151.764C173.485 151.764 172.777 158.68 172.698 159.043C172.62 159.405 172.118 162.172 172.652 162.396C173.186 162.619 174.213 163.961 174.213 163.961C174.213 163.961 174.445 169.818 173.636 170.265C172.826 170.711 173.276 172.992 173.276 172.992C173.276 172.992 166.81 174.246 165.337 173.529C163.864 172.813 160.697 172.411 160.697 172.411L161.14 170.941C161.115 170.992 160.82 171.469 160.609 169.639C160.377 167.716 162.261 168.656 162.261 168.656C162.261 168.656 163.732 169.014 161.365 166.688C158.999 164.363 160.161 161.993 160.296 161.993C160.431 161.993 160.741 158.552 160.741 158.552C160.741 158.552 161.143 156.494 160.83 154.885C160.516 153.276 160.252 148.267 160.252 148.267C160.252 148.267 160.484 144.467 160.073 143.081C159.663 141.695 160.34 139.191 160.475 138.607C160.609 138.024 160.073 132.706 160.073 132.706C160.073 132.706 160.521 130.203 160.252 128.371C159.983 126.539 160.521 119.786 160.521 119.786L161.324 112.005C161.324 112.005 161.901 109.592 161.813 108.608C161.725 107.624 162.481 104.19 162.481 104.19C162.481 104.19 162.393 102.936 162.839 102.043C163.284 101.151 163.465 98.1997 163.465 98.1997L167.748 88.3611L169.836 79.6875L198.162 79.4201C198.162 79.4201 198.266 80.1712 198.436 81.5385C198.605 82.9058 198.851 84.9312 199.132 87.4286C199.378 89.6982 199.647 92.3677 199.911 95.3348C200.746 104.806 198.962 106.506 198.962 106.506Z" fill="#8499F0"/>
<path d="M196.332 28.2135L189.727 35.2803C189.727 35.2803 181.255 31.8806 182.146 30.7179C182.491 30.2668 182.436 28.8576 182.236 27.2811C181.923 24.8069 181.255 21.9537 181.255 21.9537C181.255 21.9537 196.063 19.54 194.813 22.042C194.349 22.9582 194.437 24.0256 194.72 25.0115C195.082 26.159 195.626 27.2403 196.332 28.2135Z" fill="#FBBEBE"/>
<path opacity="0.1" d="M194.813 22.042C194.349 22.9582 194.14 23.0466 194.425 24.0325C192.488 26.1254 190.017 28.3926 186.964 28.3926C185.324 28.3952 183.705 28.0146 182.236 27.2811C181.923 24.8069 181.255 21.9537 181.255 21.9537C181.255 21.9537 196.063 19.54 194.813 22.042Z" fill="black"/>
<path d="M197.58 17.482C197.601 18.8927 197.342 20.2936 196.818 21.603C196.293 22.9124 195.515 24.1043 194.527 25.1093C193.539 26.1143 192.361 26.9124 191.063 27.4572C189.764 28.0019 188.371 28.2824 186.963 28.2824C185.555 28.2824 184.162 28.0019 182.863 27.4572C181.565 26.9124 180.387 26.1143 179.399 25.1093C178.412 24.1043 177.633 22.9124 177.109 21.603C176.584 20.2936 176.325 18.8927 176.346 17.482C176.346 17.4308 176.346 17.3797 176.346 17.3285C176.366 14.5064 177.504 11.8079 179.509 9.8268C181.515 7.84565 184.223 6.74409 187.038 6.76444C189.854 6.78479 192.546 7.92539 194.523 9.93532C196.499 11.9453 197.598 14.6599 197.578 17.482H197.58Z" fill="#FBBEBE"/>
<path opacity="0.1" d="M199.118 87.6867C197.712 87.6984 193.028 87.7379 187.795 87.8216H187.732L186.001 87.8495H185.948C179.742 87.9495 173.627 86.7333 171.172 86.9659C165.952 87.4565 173.044 82.1361 173.044 82.1361C173.044 82.1361 178.694 83.6476 184.934 83.3407L186.435 83.2639C191.179 82.9942 195.947 82.5477 198.434 81.799C198.608 83.1802 198.849 85.1986 199.118 87.6867Z" fill="black"/>
<path d="M199.118 87.4193C197.712 87.4193 193.028 87.4704 187.795 87.5518H187.732L186.001 87.5821H185.948C179.742 87.682 173.627 86.4659 171.172 86.6961C165.952 87.1867 173.044 81.8687 173.044 81.8687C173.044 81.8687 178.694 83.3778 184.934 83.0732L186.435 82.9941C191.179 82.7267 195.947 82.2779 198.434 81.5292C198.608 82.9104 198.849 84.9219 199.118 87.4193Z" fill="#E3A79F"/>
<path opacity="0.1" d="M184.108 31.1644L175.9 35.0105L169.566 84.1033C169.566 84.1033 173.313 82.4058 175.454 83.4778C177.596 84.5498 184.196 83.5685 184.196 83.5685C184.196 83.5685 189.014 83.2988 189.729 83.8359C190.444 84.3731 198.828 81.6013 198.828 81.6013C198.828 81.6013 200.345 78.2016 199.185 77.6668C198.025 77.1319 199.542 71.8534 199.542 71.8534L198.828 36.4406L197.401 31.8806L193.564 29.5552L189.634 32.6852L187.778 32.9526L184.108 31.1644Z" fill="black"/>
<path d="M184.108 30.6272L175.9 34.4734L169.566 83.5709C169.566 83.5709 173.313 81.871 175.454 82.9453C177.596 84.0196 184.196 83.0337 184.196 83.0337C184.196 83.0337 189.014 82.7663 189.729 83.3011C190.444 83.8359 198.828 81.0664 198.828 81.0664C198.828 81.0664 200.345 77.6691 199.185 77.1319C198.025 76.5948 199.542 71.3186 199.542 71.3186L198.828 35.9011L197.401 31.3411L193.564 29.0157L189.634 32.148L187.778 32.4131L184.108 30.6272Z" fill="#E7EFFD"/>
<path opacity="0.1" d="M183.974 32.9084C183.974 32.9084 186.338 35.7244 186.294 36.3057C186.25 36.8871 186.162 38.273 186.162 38.273L184.376 41.8959C184.376 41.8959 183.394 46.4117 183.394 47.3512C183.394 48.2906 181.833 56.42 181.833 56.42L179.961 68.9397L177.597 85.3497L180.005 89.5075L182.861 87.0937L186.651 57.8501L187.454 52.0832C187.454 52.0832 188.301 41.7099 188.301 40.6379C188.301 39.5659 187.811 36.7476 187.811 36.7476C187.811 36.7476 188.391 34.0641 190.799 33.4386C193.208 32.8131 190.621 33.3037 190.621 33.3037L189.229 32.1852L188.025 32.6782C188.025 32.6782 184.689 31.6574 183.974 32.9084Z" fill="black"/>
<path d="M183.707 32.6456C183.707 32.6456 186.071 35.4616 186.027 36.043C185.983 36.6243 185.892 38.0102 185.892 38.0102L184.108 41.6331C184.108 41.6331 183.139 46.1443 183.139 47.0814C183.139 48.0185 181.577 56.1503 181.577 56.1503L179.691 68.6886L177.339 85.087L179.749 89.247L182.591 86.8263L186.387 57.5897L187.189 51.8228C187.189 51.8228 188.036 41.4494 188.036 40.3751C188.036 39.3008 187.547 36.4848 187.547 36.4848C187.547 36.4848 188.127 33.8037 190.535 33.1758C192.943 32.548 190.356 33.0433 190.356 33.0433L188.964 31.9248L187.779 32.4131C187.779 32.4131 184.422 31.3876 183.707 32.6456Z" fill="#3F3D56"/>
<path opacity="0.1" d="M182.145 27.9461C182.145 27.9461 181.788 28.2135 181.7 30.0017C181.612 31.7899 180.361 35.8151 180.361 35.8151C180.361 35.8151 185.001 32.5945 187.321 32.9526L182.145 27.9461Z" fill="black"/>
<path d="M182.145 27.4089C182.145 27.4089 181.788 27.6764 181.7 29.4669C181.612 31.2574 180.361 35.2803 180.361 35.2803C180.361 35.2803 185.001 32.062 187.321 32.4201L182.145 27.4089Z" fill="#E7EFFD"/>
<path opacity="0.1" d="M194.814 26.5137L187.497 32.9526C187.497 32.9526 193.654 36.6197 194.457 37.5149C195.26 38.4102 196.062 28.7507 196.062 28.7507L194.814 26.5137Z" fill="black"/>
<path d="M195.082 25.9788L187.778 32.4131C187.778 32.4131 193.933 36.0778 194.738 36.9731C195.543 37.8684 196.346 28.2088 196.346 28.2088L195.082 25.9788Z" fill="#E7EFFD"/>
<path opacity="0.1" d="M182.412 27.9461C182.412 27.9461 181.61 27.5438 180.851 28.7065C180.092 29.8692 178.666 30.404 178.666 30.404C178.666 30.404 170.546 31.7015 170.235 32.7735L166.444 33.0061C166.444 33.0061 165.106 33.1828 164.971 36.0011C164.836 38.8194 164.115 39.0799 164.115 39.0799C164.115 39.0799 162.554 41.8517 162.686 43.2818C162.818 44.7119 161.482 45.4281 161.482 45.4281L167.05 59.9592C167.05 59.9592 167.228 65.9517 166.201 68.1421C165.173 70.3326 163.257 80.0363 163.257 80.0363C163.257 80.0363 164.062 79.8573 164.015 80.3921C163.969 80.9269 163.034 86.7868 163.034 86.7868C163.034 86.7868 162.767 89.1122 162.322 89.9167C161.876 90.7213 161.83 94.9255 161.83 94.9255L161.115 97.9648C161.115 97.9648 162.811 101.767 165.398 101.22C167.985 100.674 172.699 90.5469 172.699 90.5469L175.687 79.5922L178.007 68.7723L178.675 61.4405L179.747 45.2095L181.308 34.478C181.308 34.478 183.039 28.7065 182.412 27.9461Z" fill="black"/>
<path d="M182.146 27.4089C182.146 27.4089 181.343 27.0066 180.584 28.1693C179.826 29.332 178.399 29.8692 178.399 29.8692C178.399 29.8692 170.279 31.1644 169.968 32.2387L166.175 32.4712C166.175 32.4712 164.837 32.6503 164.704 35.4663C164.572 38.2823 163.855 38.552 163.855 38.552C163.855 38.552 162.294 41.3238 162.429 42.7539C162.563 44.184 161.224 44.9002 161.224 44.9002L166.792 59.4314C166.792 59.4314 166.971 65.4238 165.946 67.6143C164.92 69.8048 163.002 79.5085 163.002 79.5085C163.002 79.5085 163.804 79.3294 163.76 79.8666C163.716 80.4037 162.779 86.259 162.779 86.259C162.779 86.259 162.512 88.5843 162.064 89.3889C161.617 90.1935 161.575 94.3977 161.575 94.3977L160.867 97.4276C160.867 97.4276 162.563 101.23 165.15 100.683C167.737 100.137 172.42 89.9981 172.42 89.9981L175.411 79.0434L177.731 68.2212L178.401 60.8894L179.471 44.6584L181.032 33.9269C181.032 33.9269 182.77 28.1693 182.146 27.4089Z" fill="#4267B2"/>
<path opacity="0.1" d="M153.506 62.0148L150.919 63.8053C150.919 63.8053 146.975 63.9309 144.136 63.2333L142.697 62.5915L142.407 62.4659L142.704 62.5589C144.196 63.0031 145.363 62.9938 146.275 62.6868C149.935 61.4521 149.522 55.3922 149.39 54.0202C149.376 53.8831 149.367 53.7877 149.36 53.7598C149.36 53.7544 149.36 53.7489 149.36 53.7435L149.381 53.7784C149.431 53.8607 149.487 53.9386 149.55 54.0109C149.601 54.0691 149.655 54.1295 149.713 54.1853L151.005 56.7758L151.019 56.8851L153.506 62.0148Z" fill="black"/>
<path d="M162.472 44.5328L161.224 44.8909L161.046 47.4488C161.046 47.4488 159.572 47.2163 159.171 48.9696C158.77 50.7229 158.057 51.5275 158.057 51.5275C158.057 51.5275 155.603 53.5854 155.468 55.3271L153.953 56.2573C153.953 56.2573 150.427 55.4341 149.627 54.0133C149.627 54.0133 151.232 65.5494 142.667 62.731C142.667 62.731 152.258 66.9353 152.703 67.5166C153.148 68.0979 156.095 69.7954 158.77 68.3654C161.445 66.9353 162.027 64.7355 162.027 64.7355C162.027 64.7355 164.614 61.1126 164.704 60.5754C164.795 60.0383 166.792 59.4128 166.792 59.4128L170.629 50.1114L162.472 44.5328Z" fill="#4267B2"/>
<path opacity="0.1" d="M193.789 31.8806L195.081 25.9788C195.081 25.9788 195.661 27.9019 196.241 28.3484L198.16 29.8226C198.16 29.8226 200.079 30.7179 200.747 30.7179C201.415 30.7179 205.029 31.648 205.475 32.148C205.92 32.6479 207.707 32.2829 207.707 32.2829C207.707 32.2829 209.177 32.7735 210.472 33.0874C211.766 33.4013 212.39 35.5476 212.121 36.3964C212.014 36.819 212.015 37.2621 212.124 37.6842C212.234 38.1063 212.448 38.4937 212.748 38.8101C213.281 39.3473 213.55 41.0913 213.55 41.0913C214.206 41.3054 214.751 41.7711 215.065 42.3865C215.513 43.3701 215.379 45.5164 215.379 45.5164L208.732 54.9062C208.732 54.9062 208.82 58.5291 208.553 59.3244C208.286 60.1197 209.481 73.8113 209.481 73.8113L210.873 97.33C210.873 97.33 209.045 98.8949 208.644 99.074C208.242 99.253 207.839 90.7562 207.839 90.4446C207.839 90.133 197.536 74.974 197.536 74.974C197.536 74.974 196.144 72.737 196.144 72.2464C196.144 71.7557 194.849 67.2376 194.849 67.2376L192.887 58.5198L193.789 31.8806Z" fill="black"/>
<path d="M215.931 45.0049C215.931 45.3118 215.915 45.5164 215.915 45.5164L209.273 54.8992C209.273 54.8992 209.365 58.5198 209.096 59.3174C208.941 59.7825 209.282 64.596 209.597 68.5467C209.829 71.3999 210.034 73.8044 210.034 73.8044L210.62 83.7801L211.414 97.323C211.414 97.323 209.586 98.8879 209.184 99.067C208.783 99.246 208.382 90.7492 208.382 90.4353C208.382 90.1214 198.077 74.967 198.077 74.967C198.077 74.967 196.685 72.73 196.685 72.2394C196.685 71.7487 195.392 67.2306 195.392 67.2306L193.43 58.5105L194.321 31.8643L195.079 25.9626C195.079 25.9626 196.195 27.8856 196.775 28.3298C197.355 28.7739 198.691 29.8064 198.691 29.8064C198.691 29.8064 200.61 30.7016 201.28 30.7016C201.951 30.7016 205.563 31.6318 206.008 32.1317C206.454 32.6317 208.24 32.2666 208.24 32.2666C208.24 32.2666 209.711 32.7572 211.003 33.0712C212.295 33.3851 212.922 35.5314 212.655 36.3778C212.547 36.8006 212.547 37.244 212.656 37.6665C212.765 38.0891 212.98 38.477 213.279 38.7939C213.815 39.331 214.082 41.0727 214.082 41.0727C214.739 41.2883 215.284 41.7555 215.599 42.3726C215.912 43.0679 215.942 44.3073 215.931 45.0049Z" fill="#4267B2"/>
<path opacity="0.1" d="M161.403 164.14C161.635 164.14 170.994 164.498 170.815 166.019C170.637 167.539 161.403 164.14 161.403 164.14Z" fill="black"/>
<path opacity="0.1" d="M163.5 166.688C163.5 166.688 169.789 167.716 168.14 168.655C166.49 169.595 163.5 166.688 163.5 166.688Z" fill="black"/>
<path opacity="0.1" d="M186.874 163.156C186.874 163.156 197.314 164.051 195.752 165.212C194.191 166.372 190.489 166.553 190.31 166.607C190.131 166.66 186.874 163.156 186.874 163.156Z" fill="black"/>
<path opacity="0.1" d="M185.625 167.763C185.625 167.763 191.425 168.746 191.601 169.855C191.778 170.965 185.625 167.763 185.625 167.763Z" fill="black"/>
<path opacity="0.1" d="M188.836 140.844C188.836 140.844 194.144 142.095 194.457 142.937L188.836 140.844Z" fill="black"/>
<path opacity="0.1" d="M168.36 144.69C168.36 144.69 165.595 145.495 168.272 147.104C170.949 148.713 168.36 144.69 168.36 144.69Z" fill="black"/>
<path opacity="0.1" d="M180.628 101.72C180.941 101.72 185.804 100.111 187.497 100.827C189.191 101.543 191.29 101.541 191.29 101.541L180.628 101.72Z" fill="black"/>
<path opacity="0.1" d="M181.254 106.824L181.206 107.266L177.06 118.195C177.06 118.195 176.392 121.502 175.809 123.381C175.444 124.656 175.154 125.952 174.939 127.262L178.621 104.378L181.254 106.824Z" fill="black"/>
<path d="M187.731 87.5518L186.001 87.5821H185.947L184.934 83.0755C185.432 83.05 185.931 83.0244 186.435 82.9941L187.731 87.5518Z" fill="#3F3D56"/>
<path d="M208.776 82.0942L207.665 83.0104L203.953 86.0706C203.953 86.0706 193.915 91.4375 191.15 86.3403C188.711 81.8501 200.093 78.6434 202.833 77.9435C203.206 77.8481 203.417 77.8016 203.417 77.8016L208.776 82.0942Z" fill="#FBBEBE"/>
<path opacity="0.1" d="M165.908 38.1404C165.908 38.1404 167.871 39.0334 168.316 40.2867C168.762 41.5401 165.908 38.1404 165.908 38.1404Z" fill="black"/>
<path opacity="0.1" d="M159.841 51.553C159.841 51.553 156.985 55.0411 158.145 56.3828C159.305 57.7245 159.841 51.553 159.841 51.553Z" fill="black"/>
<path opacity="0.1" d="M210.873 40.1077C210.873 40.1077 208.196 40.3751 208.107 42.7004L210.873 40.1077Z" fill="black"/>
<path opacity="0.1" d="M186.071 76.7716C186.338 76.5041 192.495 67.3818 193.922 68.1863L186.071 76.7716Z" fill="black"/>
<path opacity="0.1" d="M197.581 17.482C197.583 19.2345 197.152 20.9602 196.326 22.5048L196.247 22.4908C195.574 22.349 195.224 21.5607 194.709 21.0724C194.393 20.7708 193.991 20.5758 193.559 20.5149C193.127 20.4541 192.687 20.5303 192.301 20.7329C191.91 20.9674 191.593 21.3065 191.384 21.7119C191.175 22.1173 191.082 22.573 191.117 23.028C190.779 21.5956 190.885 20.0725 190.554 18.6377C190.222 17.203 189.222 15.7519 187.856 15.7264C187.266 15.7264 186.577 15.945 186.153 15.4938C185.895 15.2264 185.842 14.7962 185.649 14.4823C184.673 12.8964 181.705 13.6987 180.485 14.5102C179.311 15.2915 177.859 16.6216 176.349 17.3192C176.369 14.4971 177.507 11.7987 179.512 9.81752C181.517 7.83637 184.226 6.73481 187.041 6.75516C189.857 6.77551 192.549 7.91611 194.526 9.92604C196.502 11.936 197.601 14.6506 197.581 17.4727V17.482Z" fill="black"/>
<path d="M185.649 14.2219C185.844 14.5451 185.895 14.9683 186.152 15.2334C186.577 15.6752 187.266 15.4496 187.855 15.4659C189.221 15.4892 190.221 16.9425 190.553 18.3773C190.885 19.812 190.785 21.3328 191.117 22.7652C191.082 22.3103 191.174 21.8547 191.384 21.4496C191.593 21.0445 191.911 20.7061 192.302 20.4724C192.688 20.27 193.128 20.1938 193.559 20.2542C193.991 20.3147 194.392 20.5089 194.708 20.8096C195.223 21.3002 195.573 22.0862 196.246 22.228C196.919 22.3699 197.569 21.7234 197.81 21.0119C198.051 20.3003 198.042 19.5213 198.195 18.7842C198.499 17.389 199.406 16.2472 199.909 14.9218C200.507 13.3077 200.49 11.5296 199.863 9.92693C199.529 9.08748 199.03 8.33174 198.703 7.49229C198.188 6.218 198.053 4.78093 197.429 3.56709C196.378 1.53474 193.905 0.516231 191.873 1.28127C190.903 1.64635 190.061 2.35326 189.078 2.67648C187.758 3.0997 186.349 2.78112 184.983 2.59045C183.616 2.39977 182.111 2.38116 181.014 3.28805C179.751 4.32283 179.406 6.26915 178.23 7.40625C177.731 7.88295 177.111 8.18757 176.585 8.62939C176.058 9.0712 175.606 9.72695 175.657 10.4455C175.736 11.3756 176.64 12.2128 176.306 13.0708C176.186 13.3187 176.018 13.5406 175.812 13.7242C174.817 14.7677 174.078 16.0287 173.652 17.4076C176.04 18.154 178.624 15.5171 180.492 14.2707C181.7 13.4405 184.672 12.6476 185.649 14.2219Z" fill="black"/>
<path opacity="0.1" d="M208.776 82.0942L207.664 83.0104C206.685 81.3827 202.665 78.1109 202.665 78.1109L202.839 77.9435C203.213 77.8481 203.424 77.8016 203.424 77.8016L208.776 82.0942Z" fill="black"/>
<path d="M209.848 80.4386C209.848 80.4386 209.449 81.4339 209.036 82.2989C208.623 83.1639 208.175 83.9406 208.152 83.3058C208.108 82.0524 202.935 77.8482 202.935 77.8482L203.631 77.1645L204.445 76.3739L209.848 80.4386Z" fill="#E7EFFD"/>
<path opacity="0.1" d="M210.027 73.8206L210.614 83.7964C209.222 81.6361 205.424 76.0995 202.977 76.2785L208.911 69.4397C209.158 69.1636 209.385 68.8706 209.591 68.563C209.818 71.4162 210.027 73.8206 210.027 73.8206Z" fill="black"/>
<path opacity="0.1" d="M209.848 80.4386C209.848 80.4386 209.449 81.4339 209.036 82.2989C207.481 80.1619 205.342 77.6366 203.635 77.1645L204.449 76.3739L209.848 80.4386Z" fill="black"/>
<path d="M214.309 44.2724L215.914 45.5234C215.914 45.5234 218.589 45.5699 218.858 47.8046C219.127 50.0393 221.58 51.0601 221.58 51.0601C221.58 51.0601 223.408 52.8925 223.408 53.7412C223.408 54.59 224.8 56.1131 224.8 56.2456C224.8 56.3782 226.138 59.1082 225.96 59.5988C225.781 60.0894 227.386 62.2381 226.888 63.0426C226.484 63.7642 226.126 64.5106 225.816 65.2773C225.816 65.2773 223.728 69.3025 222.649 70.0629C221.57 70.8233 216.673 77.2157 216.673 77.2157C216.673 77.2157 211.409 83.2965 211.409 85.1754C211.409 85.1754 206.277 76.5901 203.245 76.8041L209.177 69.9629C209.177 69.9629 210.205 68.8467 210.249 68.1747C210.293 67.5027 213.103 64.4193 214.441 64.2844C214.441 64.2844 214.673 62.452 214.084 62.4078C213.495 62.3636 213.014 60.9312 213.014 60.9312C213.014 60.9312 209.089 56.2805 209.045 53.3297C209.001 50.3788 214.309 44.2724 214.309 44.2724Z" fill="#4267B2"/>
<path opacity="0.1" d="M216.673 48.5138C216.673 48.5138 212.924 51.2856 213.73 52.1785C214.535 53.0715 216.673 48.5138 216.673 48.5138Z" fill="black"/>
<path opacity="0.1" d="M216.852 59.9592C216.852 59.9592 223.811 57.7246 224.524 59.9592H216.852Z" fill="black"/>
<path opacity="0.1" d="M173.759 178.761C173.759 178.761 170.012 181.222 168.14 180.854C166.268 180.487 164.347 181.482 164.347 181.482C163.056 182.896 161.429 183.957 159.617 184.568C156.584 185.596 152.348 185.193 149.94 184.386C148.799 184.007 148.708 183.514 149.256 182.91C151.875 183.433 157.728 184.472 159.306 183.717C161.357 182.733 164.301 180.587 164.301 180.587C164.301 180.587 168.14 180.05 168.674 180.05C169.054 180.05 172.017 178.824 173.689 178.12L173.759 178.761Z" fill="black"/>
<path opacity="0.1" d="M196.457 183.794C196.431 183.947 196.42 184.04 196.42 184.04C196.42 184.04 195.526 186.007 190.576 186.723C185.625 187.44 185.625 185.068 185.625 185.068C185.625 185.068 185.644 184.812 185.676 184.428C187.242 185.021 190.662 185.689 196.457 183.794Z" fill="black"/>
<path opacity="0.1" d="M167.759 47.9767C167.759 47.9767 167.759 58.171 166.889 59.1779C166.019 60.1848 167.759 47.9767 167.759 47.9767Z" fill="black"/>
<path opacity="0.1" d="M207.974 51.2624L209.266 54.9062C209.266 54.9062 209.781 51.3298 207.974 51.2624Z" fill="black"/>
<g opacity="0.1">
<path opacity="0.1" d="M176.431 12.1825C176.758 11.3431 175.902 10.5222 175.791 9.62463C175.677 9.87832 175.627 10.1563 175.647 10.4339C175.705 11.1105 176.204 11.7454 176.343 12.3709C176.378 12.3111 176.408 12.2481 176.431 12.1825Z" fill="black"/>
<path opacity="0.1" d="M191.237 21.8118C190.917 20.4003 191.005 18.9075 190.685 17.4983C190.365 16.0891 189.356 14.6102 187.989 14.5869C187.4 14.5869 186.711 14.8032 186.284 14.3544C186.029 14.0893 185.975 13.6568 185.783 13.3429C184.806 11.757 181.839 12.5616 180.616 13.3731C178.791 14.5893 176.285 17.1309 173.946 16.5542C173.833 16.8263 173.728 17.1007 173.643 17.382C176.03 18.1285 178.614 15.4915 180.482 14.2451C181.7 13.4336 184.672 12.6174 185.648 14.2149C185.843 14.5381 185.894 14.9613 186.152 15.2264C186.576 15.6682 187.265 15.4427 187.855 15.459C189.221 15.4822 190.221 16.9356 190.553 18.3703C190.884 19.805 190.785 21.3258 191.116 22.7582C191.093 22.4379 191.134 22.1161 191.237 21.8118Z" fill="black"/>
<path opacity="0.1" d="M197.944 20.1329C197.712 20.8445 197.065 21.4956 196.378 21.3491C195.692 21.2026 195.355 20.4189 194.842 19.9306C194.526 19.6294 194.124 19.4349 193.692 19.3744C193.261 19.3139 192.821 19.3905 192.434 19.5934C192.062 19.8162 191.756 20.1346 191.548 20.5156C191.34 20.8967 191.238 21.3265 191.251 21.7606C191.429 21.2134 191.804 20.7519 192.302 20.4654C192.688 20.2631 193.128 20.1868 193.559 20.2472C193.99 20.3077 194.392 20.5019 194.708 20.8026C195.223 21.2932 195.573 22.0792 196.246 22.2211C196.919 22.3629 197.568 21.7165 197.81 21.0049C197.937 20.5871 198.02 20.1568 198.056 19.7213C198.027 19.8606 197.989 19.998 197.944 20.1329Z" fill="black"/>
<path opacity="0.1" d="M200.041 14.0428C199.54 15.3683 198.631 16.5123 198.329 17.9075C198.269 18.1889 198.234 18.4773 198.199 18.7656C198.505 17.3704 199.408 16.2356 199.909 14.9148C200.132 14.3168 200.271 13.6908 200.322 13.0545C200.253 13.3906 200.16 13.721 200.041 14.0428Z" fill="black"/>
</g>
<path d="M139.311 47.3802L139.286 47.3927C139.242 47.4147 139.225 47.4678 139.247 47.5114L139.921 48.8531C139.943 48.8967 139.996 48.9142 140.039 48.8922L140.064 48.8797C140.108 48.8577 140.125 48.8046 140.103 48.761L139.429 47.4194C139.407 47.3758 139.354 47.3582 139.311 47.3802Z" fill="#3A3768"/>
<path d="M132.641 49.2495L132.627 49.2568C132.602 49.269 132.593 49.2983 132.605 49.3224L132.81 49.7295C132.822 49.7535 132.851 49.7632 132.875 49.7511L132.889 49.7438C132.914 49.7316 132.923 49.7023 132.911 49.6782L132.706 49.2711C132.694 49.2471 132.665 49.2374 132.641 49.2495Z" fill="#3A3768"/>
<path d="M133.1 50.1765L133.086 50.1838C133.058 50.1977 133.047 50.2312 133.061 50.2588L133.443 51.0189C133.457 51.0464 133.49 51.0575 133.518 51.0436L133.532 51.0363C133.56 51.0224 133.571 50.9889 133.557 50.9614L133.175 50.2012C133.161 50.1737 133.128 50.1626 133.1 50.1765Z" fill="#3A3768"/>
<path d="M133.681 51.3376L133.667 51.3449C133.64 51.3582 133.63 51.3903 133.643 51.4167L134.03 52.1872C134.044 52.2136 134.076 52.2242 134.102 52.211L134.116 52.2036C134.143 52.1904 134.153 52.1582 134.14 52.1318L133.753 51.3613C133.74 51.3349 133.708 51.3243 133.681 51.3376Z" fill="#3A3768"/>
<path d="M137.429 44.8121L132.286 47.4081C132.03 47.5374 131.927 47.8506 132.056 48.1076L137.803 59.5469C137.933 59.8038 138.245 59.9072 138.501 59.7778L143.644 57.1819C143.9 57.0525 144.004 56.7393 143.875 56.4824L138.127 45.043C137.998 44.7861 137.686 44.6827 137.429 44.8121Z" fill="#3A3768"/>
<path d="M136.721 45.563C136.691 45.5762 136.665 45.5955 136.643 45.6197C136.621 45.6438 136.605 45.6723 136.595 45.7032C136.585 45.7341 136.581 45.7667 136.584 45.799C136.588 45.8314 136.598 45.8626 136.614 45.8908L136.637 45.935C136.653 45.9634 136.663 45.9948 136.666 46.0272C136.669 46.0596 136.666 46.0924 136.655 46.1233C136.645 46.1542 136.629 46.1826 136.607 46.2066C136.585 46.2307 136.558 46.2499 136.528 46.2629L133.955 47.5628C133.927 47.5789 133.896 47.589 133.864 47.5923C133.831 47.5956 133.799 47.5921 133.768 47.582C133.737 47.572 133.709 47.5555 133.685 47.5338C133.661 47.512 133.641 47.4855 133.628 47.4558L133.605 47.4093C133.592 47.3796 133.572 47.3531 133.548 47.3313C133.524 47.3096 133.496 47.2931 133.465 47.283C133.434 47.273 133.402 47.2695 133.369 47.2728C133.337 47.2761 133.306 47.2862 133.278 47.3023L132.777 47.5535C132.722 47.5809 132.673 47.6189 132.633 47.6654C132.593 47.7118 132.562 47.7658 132.543 47.8242C132.524 47.8826 132.516 47.9442 132.521 48.0055C132.526 48.0668 132.542 48.1266 132.57 48.1813L138.043 59.0709C138.07 59.126 138.108 59.175 138.155 59.2153C138.201 59.2555 138.255 59.2861 138.313 59.3054C138.371 59.3246 138.433 59.3321 138.494 59.3274C138.555 59.3227 138.615 59.3058 138.669 59.2779L143.158 57.0107C143.213 56.9833 143.262 56.9453 143.302 56.899C143.342 56.8527 143.372 56.799 143.391 56.7409C143.41 56.6828 143.418 56.6214 143.414 56.5604C143.409 56.4993 143.392 56.4398 143.365 56.3851L137.899 45.4932C137.872 45.4387 137.834 45.3901 137.787 45.3503C137.741 45.3105 137.687 45.2802 137.629 45.2612C137.572 45.2422 137.51 45.2348 137.45 45.2395C137.389 45.2442 137.329 45.2609 137.275 45.2886L136.721 45.563Z" fill="#0F4CC5"/>
<path d="M135.233 46.3853L134.535 46.7378C134.493 46.7586 134.477 46.8089 134.498 46.8502L134.509 46.8731C134.53 46.9144 134.58 46.931 134.621 46.9102L135.319 46.5577C135.361 46.5369 135.377 46.4866 135.356 46.4453L135.345 46.4224C135.324 46.3811 135.274 46.3645 135.233 46.3853Z" fill="#E6E8EC"/>
<path d="M135.575 46.4163C135.635 46.4163 135.684 46.3674 135.684 46.307C135.684 46.2467 135.635 46.1978 135.575 46.1978C135.515 46.1978 135.466 46.2467 135.466 46.307C135.466 46.3674 135.515 46.4163 135.575 46.4163Z" fill="#E6E8EC"/>
<path opacity="0.1" d="M22.5057 6.06684C22.5057 6.06684 45.0416 4.70419 42.3853 20.5329C42.3853 20.5329 42.9119 23.3233 40.3832 24.5999C40.3832 24.5999 40.3437 23.4372 38.0632 23.8256C37.254 23.9602 36.4317 23.9992 35.6134 23.9418C34.5078 23.8679 33.4568 23.4334 32.6207 22.7047C32.6207 22.7047 26.2965 20.0887 23.8304 9.7037C23.8304 9.7037 22.0093 7.4388 22.0812 6.85746L25.8836 8.48521C25.8836 8.48521 24.5844 11.2361 25.6075 13.5219C25.6075 13.5219 25.7304 8.5852 26.4612 8.70147C26.6097 8.72705 28.4378 9.65486 28.4378 9.65486C28.4378 9.65486 26.2014 14.4451 27.888 17.9261C27.888 17.9261 27.2477 12.0244 29.1361 10.0013L31.8133 11.5686C31.8133 11.5686 29.1987 16.5147 30.9712 20.5538C30.9712 20.5538 30.5072 14.3614 32.3631 11.95L34.7898 13.8451C34.7898 13.8451 32.3353 18.7284 33.8317 22.0699C33.8317 22.0699 34.0265 14.8613 35.3141 14.3172C35.3141 14.3172 37.4369 16.1938 37.7616 16.9634C37.7616 16.9634 36.0797 20.5026 37.1237 22.3722C37.1237 22.3722 37.7616 17.5704 38.2836 17.5471C38.2836 17.5471 40.3994 20.7305 40.6198 22.9094C40.6198 22.9094 40.527 19.6655 38.7963 17.2425C38.7963 17.2425 40.8402 17.5936 42.0443 18.9237C42.0443 18.9237 41.7148 16.6728 38.2836 16.4774C38.2836 16.4774 36.5367 14.0637 36.0681 13.9196C36.0681 13.9196 39.4807 13.6335 41.5501 14.5521C41.5501 14.5521 39.729 12.429 35.444 13.3894L33.0498 11.4314C33.0498 11.4314 37.5413 10.8129 39.4459 11.4942C39.4459 11.4942 37.2536 9.61766 32.4026 10.985L29.7903 9.42465C29.7903 9.42465 33.6206 8.59683 35.9034 8.8968C35.9034 8.8968 33.4953 7.5946 29.0271 9.00609L27.1711 8.16664C27.1711 8.16664 29.9783 7.61321 30.7995 7.52717C31.6208 7.44113 31.6648 7.21092 31.6648 7.21092C29.8874 6.91476 28.0628 7.11841 26.3939 7.79923C26.3939 7.79923 22.4384 6.31566 22.5057 6.06684Z" fill="#0F4CC5"/>
<path opacity="0.1" d="M35.1261 48.4115C35.1261 48.4115 45.3083 47.7953 44.1089 54.9481C44.1089 54.9481 44.3409 56.2107 43.2041 56.7851C43.2041 56.7851 43.1856 56.2549 42.1602 56.434C41.7948 56.4964 41.4232 56.5144 41.0536 56.4875C40.5541 56.454 40.0792 56.258 39.701 55.9294C39.701 55.9294 36.8382 54.7434 35.7247 50.0532C35.7247 50.0532 34.9011 49.0324 34.9336 48.7696L36.6526 49.5044C36.6526 49.5044 36.0657 50.7462 36.5274 51.7786C36.5274 51.7786 36.583 49.5486 36.9125 49.6021C36.9797 49.6137 37.8056 50.0323 37.8056 50.0323C37.8056 50.0323 36.7965 52.1972 37.5574 53.7691C37.5574 53.7691 37.2697 51.1043 38.1212 50.1881L39.3322 50.8973C39.3322 50.8973 38.142 53.132 38.9447 54.969C38.9447 54.969 38.7383 52.1786 39.5781 51.081L40.6754 51.9367C40.6754 51.9367 39.5665 54.1412 40.2416 55.6573C40.2416 55.6573 40.3297 52.4018 40.912 52.153C40.912 52.153 41.8702 52.9994 42.0186 53.3482C42.0186 53.3482 41.2577 54.9481 41.7287 55.7922C41.7287 55.7922 42.0187 53.6226 42.2553 53.6133C42.2553 53.6133 43.2111 55.0504 43.3109 56.0363C43.3109 56.0363 43.2691 54.569 42.4873 53.4785C43.0379 53.584 43.5458 53.8483 43.9488 54.2388C43.9488 54.2388 43.8004 53.2227 42.2506 53.1343C42.2506 53.1343 41.4619 52.0437 41.2507 51.9716C41.2507 51.9716 42.7912 51.8414 43.7261 52.2576C43.7261 52.2576 42.9049 51.2996 40.9677 51.7344L39.8843 50.8485C39.8843 50.8485 41.9143 50.5718 42.775 50.8787C42.775 50.8787 41.7843 50.03 39.5943 50.6462L38.4158 49.9486C38.4158 49.9486 40.1465 49.5765 41.1765 49.716C41.1765 49.716 40.0885 49.1277 38.0701 49.7649L37.228 49.3858C37.228 49.3858 38.4947 49.1347 38.8682 49.0952C39.2417 49.0556 39.2579 48.9533 39.2579 48.9533C38.4553 48.8189 37.6313 48.9107 36.8777 49.2184C36.8777 49.2184 35.089 48.5231 35.1261 48.4115Z" fill="#0F4CC5"/>
<path opacity="0.1" d="M0.192515 10.1827C0.192515 10.1827 10.3747 9.56882 9.17532 16.7193C9.17532 16.7193 9.40732 17.9843 8.27055 18.5586C8.27055 18.5586 8.25199 18.0284 7.22657 18.2075C6.86107 18.2688 6.48965 18.2867 6.11996 18.261C5.62029 18.2267 5.14543 18.0299 4.76744 17.7006C4.76744 17.7006 1.90463 16.517 0.79106 11.8267C0.79106 11.8267 -0.0325197 10.8036 -4.05606e-05 10.5408L1.71904 11.2756C1.71904 11.2756 1.13209 12.5197 1.59376 13.5521C1.59376 13.5521 1.64944 11.3221 1.97887 11.3756C2.04615 11.3756 2.87205 11.8058 2.87205 11.8058C2.87205 11.8058 1.86287 13.9707 2.62381 15.5426C2.62381 15.5426 2.33614 12.8755 3.18756 11.9616L4.39857 12.6592C4.39857 12.6592 3.21772 14.8962 4.0181 16.7193C4.0181 16.7193 3.81162 13.9289 4.65144 12.8336L5.74877 13.6893C5.74877 13.6893 4.63984 15.8938 5.31494 17.4099C5.31494 17.4099 5.4031 14.1544 5.98541 13.9079C5.98541 13.9079 6.94354 14.7544 7.09202 15.1032C7.09202 15.1032 6.33108 16.703 6.80203 17.5471C6.80203 17.5471 7.09202 15.3775 7.32865 15.3659C7.32865 15.3659 8.28447 16.8053 8.38422 17.7889C8.38422 17.7889 8.34247 16.324 7.56065 15.231C8.11166 15.3354 8.61991 15.5999 9.02221 15.9914C9.02221 15.9914 8.87373 14.9729 7.32401 14.8846C7.32401 14.8846 6.53523 13.794 6.32412 13.7219C6.32412 13.7219 7.86456 13.5917 8.79949 14.0079C8.79949 14.0079 7.97823 13.0475 6.04108 13.4847L4.96695 12.6081C4.96695 12.6081 6.9969 12.329 7.8576 12.6383C7.8576 12.6383 6.86698 11.7895 4.67696 12.4057L3.49843 11.7081C3.49843 11.7081 5.2291 11.3338 6.25916 11.4756C6.25916 11.4756 5.17111 10.8873 3.15276 11.5244L2.31062 11.1454C2.31062 11.1454 3.57963 10.8966 3.95082 10.8571C4.32201 10.8175 4.34057 10.7152 4.34057 10.7152C3.53625 10.5747 2.70877 10.6616 1.95103 10.9664C1.95103 10.9664 0.162356 10.2967 0.192515 10.1827Z" fill="#0F4CC5"/>
<path d="M230.238 173.099C236.182 173.099 241 172.283 241 171.276C241 170.269 236.182 169.453 230.238 169.453C224.294 169.453 219.476 170.269 219.476 171.276C219.476 172.283 224.294 173.099 230.238 173.099Z" fill="#0F4CC5"/>
<path d="M234.688 168.295C235.152 167.865 235.581 167.365 235.715 166.742C235.85 166.119 235.586 165.386 234.999 165.16C234.34 164.909 233.637 165.367 233.103 165.828C232.57 166.288 231.957 166.818 231.259 166.721C231.618 166.395 231.887 165.981 232.039 165.519C232.191 165.058 232.221 164.565 232.126 164.088C232.099 163.892 232.019 163.707 231.894 163.554C231.53 163.161 230.867 163.321 230.428 163.637C229.036 164.619 228.649 166.514 228.642 168.221C228.5 167.604 228.619 166.963 228.616 166.332C228.614 165.702 228.44 165.002 227.92 164.663C227.589 164.485 227.217 164.398 226.842 164.409C226.215 164.386 225.519 164.449 225.092 164.907C224.561 165.477 224.698 166.432 225.162 167.06C225.626 167.688 226.322 168.081 226.972 168.514C227.49 168.823 227.933 169.246 228.266 169.751C228.306 169.825 228.338 169.903 228.361 169.983H232.284C233.157 169.531 233.965 168.963 234.688 168.295Z" fill="#0F4CC5"/>
<path d="M13.4528 186.537C18.1179 186.537 21.8997 185.896 21.8997 185.105C21.8997 184.314 18.1179 183.673 13.4528 183.673C8.78767 183.673 5.00586 184.314 5.00586 185.105C5.00586 185.896 8.78767 186.537 13.4528 186.537Z" fill="#0F4CC5"/>
<path d="M16.9443 182.763C17.3303 182.448 17.6118 182.024 17.7517 181.545C17.8538 181.061 17.6496 180.48 17.1879 180.303C16.6706 180.106 16.1184 180.464 15.7009 180.826C15.2833 181.189 14.8007 181.603 14.2532 181.524C14.5352 181.268 14.7462 180.943 14.8657 180.582C14.9852 180.22 15.0092 179.833 14.9353 179.459C14.9112 179.304 14.8455 179.159 14.745 179.038C14.4574 178.731 13.9377 178.864 13.5851 179.106C12.4924 179.875 12.1931 181.364 12.1815 182.703C12.0725 182.219 12.1653 181.717 12.1606 181.222C12.156 180.726 12.0238 180.175 11.6062 179.91C11.3464 179.77 11.0543 179.701 10.7594 179.71C10.2699 179.692 9.72237 179.743 9.38598 180.101C8.97071 180.55 9.07743 181.301 9.43934 181.791C9.80125 182.282 10.3534 182.594 10.8615 182.933C11.2689 183.176 11.6162 183.509 11.8776 183.905C11.9077 183.96 11.9333 184.018 11.9542 184.077H15.0327C15.7265 183.728 16.3696 183.286 16.9443 182.763Z" fill="#0F4CC5"/>
<path d="M34.7477 175.787C39.4128 175.787 43.1946 175.146 43.1946 174.355C43.1946 173.564 39.4128 172.922 34.7477 172.922C30.0826 172.922 26.3008 173.564 26.3008 174.355C26.3008 175.146 30.0826 175.787 34.7477 175.787Z" fill="#0F4CC5"/>
<path d="M38.2417 172.013C38.627 171.698 38.9077 171.273 39.0467 170.795C39.1511 170.311 38.9446 169.732 38.483 169.555C37.9679 169.355 37.4158 169.716 36.9959 170.079C36.576 170.441 36.0981 170.855 35.5506 170.776C35.8323 170.52 36.0429 170.195 36.1621 169.832C36.2812 169.47 36.3047 169.083 36.2303 168.709C36.2063 168.555 36.1405 168.41 36.0401 168.29C35.7547 167.981 35.235 168.114 34.8917 168.356C33.799 169.128 33.4997 170.613 33.4881 171.953C33.3768 171.469 33.4696 170.967 33.4672 170.472C33.4649 169.976 33.328 169.427 32.9128 169.16C32.6531 169.02 32.3608 168.952 32.066 168.962C31.5742 168.944 31.0267 168.993 30.6926 169.353C30.275 169.8 30.384 170.551 30.746 171.044C31.1079 171.537 31.66 171.844 32.1681 172.185C32.5749 172.428 32.9222 172.76 33.1842 173.155C33.2149 173.21 33.2398 173.269 33.2584 173.329H36.337C37.0284 172.979 37.6692 172.536 38.2417 172.013Z" fill="#0F4CC5"/>
<path d="M130.661 52.6901V78.3923C130.662 78.7311 130.596 79.0667 130.466 79.3799C130.337 79.693 130.148 79.9775 129.909 80.2171C129.67 80.4567 129.386 80.6466 129.074 80.776C128.761 80.9054 128.426 80.9717 128.088 80.9711H125.325V50.1137H128.088C128.426 50.113 128.761 50.1792 129.073 50.3085C129.385 50.4377 129.669 50.6274 129.908 50.8668C130.147 51.1061 130.337 51.3904 130.466 51.7033C130.595 52.0161 130.661 52.3515 130.661 52.6901Z" fill="#C7CCE1"/>
<path opacity="0.2" d="M128.592 50.1625V80.9222C128.426 80.9549 128.257 80.9713 128.088 80.9711H127.666V50.1136H128.088C128.257 50.1134 128.426 50.1298 128.592 50.1625Z" fill="black"/>
<path d="M118.463 90.14H108.501V170.202H118.463V90.14Z" fill="#DCDFED"/>
<path d="M120.832 178.75H104.989V180.98H120.832V178.75Z" fill="#C7CCE1"/>
<path opacity="0.1" d="M120.832 178.75H104.989V180.001H120.832V178.75Z" fill="black"/>
<path opacity="0.1" d="M118.463 168.618H108.501V170.2H118.463V168.618Z" fill="black"/>
<path d="M101.505 168.946H124.314C125.554 168.946 126.782 169.191 127.928 169.667C129.073 170.142 130.114 170.839 130.991 171.718C131.868 172.597 132.563 173.64 133.038 174.789C133.512 175.937 133.756 177.168 133.756 178.41V179.866H92.0625V178.41C92.0625 177.168 92.3067 175.937 92.7812 174.789C93.2558 173.64 93.9513 172.597 94.828 171.718C95.7048 170.839 96.7457 170.142 97.8913 169.667C99.0369 169.191 100.265 168.946 101.505 168.946Z" fill="#DCDFED"/>
<path opacity="0.1" d="M118.463 101.162H108.501V110.766H118.463V101.162Z" fill="black"/>
<path opacity="0.1" d="M118.463 100.509H108.501V110.112H118.463V100.509Z" fill="black"/>
<path d="M119.5 100.834H107.578V110.438H119.5V100.834Z" fill="#DCDFED"/>
<path d="M123.829 84.108V88.0937C123.829 89.0853 123.436 90.0364 122.736 90.7376C122.037 91.4389 121.088 91.8328 120.099 91.8328H106.875C105.886 91.8328 104.937 91.4389 104.237 90.7376C103.538 90.0364 103.145 89.0853 103.145 88.0937V84.108C103.145 83.6173 103.242 83.1314 103.429 82.6781C103.617 82.2249 103.892 81.8131 104.238 81.4663C104.585 81.1195 104.996 80.8445 105.448 80.657C105.901 80.4695 106.385 80.3732 106.875 80.3735H120.099C120.588 80.3732 121.073 80.4695 121.526 80.657C121.978 80.8445 122.389 81.1195 122.736 81.4663C123.082 81.8131 123.357 82.2249 123.544 82.6781C123.732 83.1314 123.829 83.6173 123.829 84.108Z" fill="#C7CCE1"/>
<path opacity="0.1" d="M123.829 84.108V84.5149C122.615 86.1105 121.05 87.4036 119.255 88.2937C117.461 89.1839 115.486 89.6469 113.483 89.6469C111.481 89.6469 109.506 89.1839 107.712 88.2937C105.917 87.4036 104.352 86.1105 103.138 84.5149V84.108C103.138 83.6173 103.235 83.1314 103.422 82.6781C103.61 82.2249 103.885 81.8131 104.231 81.4663C104.578 81.1196 104.989 80.8446 105.441 80.657C105.894 80.4695 106.379 80.3732 106.868 80.3735H120.092C120.582 80.3723 121.068 80.4679 121.521 80.655C121.974 80.8421 122.386 81.117 122.733 81.4639C123.08 81.8107 123.356 82.2228 123.544 82.6765C123.732 83.1302 123.829 83.6167 123.829 84.108Z" fill="black"/>
<path d="M101.523 46.9721H125.443C125.722 46.9721 125.99 47.0831 126.187 47.2806C126.384 47.4782 126.494 47.7461 126.494 48.0255V78.0225C126.494 81.0204 125.306 83.8955 123.191 86.0153C121.077 88.1352 118.208 89.3261 115.217 89.3261H111.749C108.758 89.3261 105.89 88.1352 103.775 86.0153C101.66 83.8955 100.472 81.0204 100.472 78.0225V48.0255C100.472 47.7461 100.582 47.4782 100.779 47.2806C100.977 47.0831 101.244 46.9721 101.523 46.9721Z" fill="#C7CCE1"/>
<path d="M105.945 31.4783H121.024C122.086 31.4783 123.105 31.9012 123.856 32.6539C124.607 33.4065 125.028 34.4274 125.028 35.4919V46.9907C125.028 47.3743 124.876 47.7422 124.606 48.0135C124.335 48.2847 123.968 48.4371 123.585 48.4371H103.383C103.194 48.4371 103.006 48.3997 102.831 48.327C102.656 48.2543 102.497 48.1478 102.363 48.0135C102.229 47.8792 102.123 47.7197 102.05 47.5442C101.978 47.3687 101.94 47.1807 101.94 46.9907V35.4895C101.94 34.4251 102.362 33.4042 103.113 32.6515C103.864 31.8988 104.883 31.476 105.945 31.476V31.4783Z" fill="#C7CCE1"/>
<path opacity="0.2" d="M122.739 43.3748H104.664V44.5747H122.739V43.3748Z" fill="black"/>
<path opacity="0.1" d="M123.827 50.8229H103.14V65.8702H123.827V50.8229Z" fill="black"/>
<path d="M123.827 50.495H103.14V65.5424H123.827V50.495Z" fill="#0F4CC5"/>
<g opacity="0.1">
<path opacity="0.1" d="M107.726 68.1212H103.439C103.338 68.1212 103.256 68.2035 103.256 68.3049V69.6025C103.256 69.7039 103.338 69.7862 103.439 69.7862H107.726C107.828 69.7862 107.91 69.7039 107.91 69.6025V68.3049C107.91 68.2035 107.828 68.1212 107.726 68.1212Z" fill="black"/>
<path opacity="0.1" d="M112.993 68.1212H108.706C108.605 68.1212 108.522 68.2035 108.522 68.3049V69.6025C108.522 69.7039 108.605 69.7862 108.706 69.7862H112.993C113.094 69.7862 113.176 69.7039 113.176 69.6025V68.3049C113.176 68.2035 113.094 68.1212 112.993 68.1212Z" fill="black"/>
<path opacity="0.1" d="M118.259 68.1212H113.971C113.87 68.1212 113.788 68.2035 113.788 68.3049V69.6025C113.788 69.7039 113.87 69.7862 113.971 69.7862H118.259C118.36 69.7862 118.442 69.7039 118.442 69.6025V68.3049C118.442 68.2035 118.36 68.1212 118.259 68.1212Z" fill="black"/>
<path opacity="0.1" d="M123.527 68.1212H119.24C119.139 68.1212 119.057 68.2035 119.057 68.3049V69.6025C119.057 69.7039 119.139 69.7862 119.24 69.7862H123.527C123.628 69.7862 123.71 69.7039 123.71 69.6025V68.3049C123.71 68.2035 123.628 68.1212 123.527 68.1212Z" fill="black"/>
<path opacity="0.1" d="M107.726 71.3813H103.439C103.338 71.3813 103.256 71.4636 103.256 71.5651V72.8626C103.256 72.9641 103.338 73.0463 103.439 73.0463H107.726C107.828 73.0463 107.91 72.9641 107.91 72.8626V71.5651C107.91 71.4636 107.828 71.3813 107.726 71.3813Z" fill="black"/>
<path opacity="0.1" d="M112.993 71.3813H108.706C108.605 71.3813 108.522 71.4636 108.522 71.5651V72.8626C108.522 72.9641 108.605 73.0463 108.706 73.0463H112.993C113.094 73.0463 113.176 72.9641 113.176 72.8626V71.5651C113.176 71.4636 113.094 71.3813 112.993 71.3813Z" fill="black"/>
<path opacity="0.1" d="M118.259 71.3813H113.971C113.87 71.3813 113.788 71.4636 113.788 71.5651V72.8626C113.788 72.9641 113.87 73.0463 113.971 73.0463H118.259C118.36 73.0463 118.442 72.9641 118.442 72.8626V71.5651C118.442 71.4636 118.36 71.3813 118.259 71.3813Z" fill="black"/>
<path opacity="0.1" d="M107.726 74.5601H103.439C103.338 74.5601 103.256 74.6424 103.256 74.7438V76.0414C103.256 76.1428 103.338 76.2251 103.439 76.2251H107.726C107.828 76.2251 107.91 76.1428 107.91 76.0414V74.7438C107.91 74.6424 107.828 74.5601 107.726 74.5601Z" fill="black"/>
<path opacity="0.1" d="M112.993 74.5601H108.706C108.605 74.5601 108.522 74.6424 108.522 74.7438V76.0414C108.522 76.1428 108.605 76.2251 108.706 76.2251H112.993C113.094 76.2251 113.176 76.1428 113.176 76.0414V74.7438C113.176 74.6424 113.094 74.5601 112.993 74.5601Z" fill="black"/>
<path opacity="0.1" d="M118.259 74.5601H113.971C113.87 74.5601 113.788 74.6424 113.788 74.7438V76.0414C113.788 76.1428 113.87 76.2251 113.971 76.2251H118.259C118.36 76.2251 118.442 76.1428 118.442 76.0414V74.7438C118.442 74.6424 118.36 74.5601 118.259 74.5601Z" fill="black"/>
<path opacity="0.1" d="M107.726 78.0668H103.439C103.338 78.0668 103.256 78.149 103.256 78.2505V79.548C103.256 79.6495 103.338 79.7317 103.439 79.7317H107.726C107.828 79.7317 107.91 79.6495 107.91 79.548V78.2505C107.91 78.149 107.828 78.0668 107.726 78.0668Z" fill="black"/>
<path opacity="0.1" d="M112.993 78.0668H108.706C108.605 78.0668 108.522 78.149 108.522 78.2505V79.548C108.522 79.6495 108.605 79.7317 108.706 79.7317H112.993C113.094 79.7317 113.176 79.6495 113.176 79.548V78.2505C113.176 78.149 113.094 78.0668 112.993 78.0668Z" fill="black"/>
<path opacity="0.1" d="M118.259 78.0668H113.971C113.87 78.0668 113.788 78.149 113.788 78.2505V79.548C113.788 79.6495 113.87 79.7317 113.971 79.7317H118.259C118.36 79.7317 118.442 79.6495 118.442 79.548V78.2505C118.442 78.149 118.36 78.0668 118.259 78.0668Z" fill="black"/>
<path opacity="0.1" d="M123.527 71.3813H119.24C119.139 71.3813 119.057 71.4636 119.057 71.5651V72.8626C119.057 72.9641 119.139 73.0463 119.24 73.0463H123.527C123.628 73.0463 123.71 72.9641 123.71 72.8626V71.5651C123.71 71.4636 123.628 71.3813 123.527 71.3813Z" fill="black"/>
<path opacity="0.1" d="M123.011 74.381H119.8C119.547 74.381 119.343 74.5861 119.343 74.8391V79.8573C119.343 80.1102 119.547 80.3153 119.8 80.3153H123.011C123.263 80.3153 123.468 80.1102 123.468 79.8573V74.8391C123.468 74.5861 123.263 74.381 123.011 74.381Z" fill="black"/>
</g>
<path d="M107.726 67.7933H103.439C103.338 67.7933 103.256 67.8756 103.256 67.977V69.2746C103.256 69.376 103.338 69.4583 103.439 69.4583H107.726C107.828 69.4583 107.91 69.376 107.91 69.2746V67.977C107.91 67.8756 107.828 67.7933 107.726 67.7933Z" fill="#F2F3F3"/>
<path d="M112.993 67.7933H108.706C108.605 67.7933 108.522 67.8756 108.522 67.977V69.2746C108.522 69.376 108.605 69.4583 108.706 69.4583H112.993C113.094 69.4583 113.176 69.376 113.176 69.2746V67.977C113.176 67.8756 113.094 67.7933 112.993 67.7933Z" fill="#F2F3F3"/>
<path d="M118.259 67.7933H113.971C113.87 67.7933 113.788 67.8756 113.788 67.977V69.2746C113.788 69.376 113.87 69.4583 113.971 69.4583H118.259C118.36 69.4583 118.442 69.376 118.442 69.2746V67.977C118.442 67.8756 118.36 67.7933 118.259 67.7933Z" fill="#F2F3F3"/>
<path d="M123.527 67.7933H119.24C119.139 67.7933 119.057 67.8756 119.057 67.977V69.2746C119.057 69.376 119.139 69.4583 119.24 69.4583H123.527C123.628 69.4583 123.71 69.376 123.71 69.2746V67.977C123.71 67.8756 123.628 67.7933 123.527 67.7933Z" fill="#D44F6A"/>
<path d="M107.726 71.0535H103.439C103.338 71.0535 103.256 71.1357 103.256 71.2372V72.5347C103.256 72.6362 103.338 72.7184 103.439 72.7184H107.726C107.828 72.7184 107.91 72.6362 107.91 72.5347V71.2372C107.91 71.1357 107.828 71.0535 107.726 71.0535Z" fill="#F2F3F3"/>
<path d="M112.993 71.0535H108.706C108.605 71.0535 108.522 71.1357 108.522 71.2372V72.5347C108.522 72.6362 108.605 72.7184 108.706 72.7184H112.993C113.094 72.7184 113.176 72.6362 113.176 72.5347V71.2372C113.176 71.1357 113.094 71.0535 112.993 71.0535Z" fill="#F2F3F3"/>
<path d="M118.259 71.0535H113.971C113.87 71.0535 113.788 71.1357 113.788 71.2372V72.5347C113.788 72.6362 113.87 72.7184 113.971 72.7184H118.259C118.36 72.7184 118.442 72.6362 118.442 72.5347V71.2372C118.442 71.1357 118.36 71.0535 118.259 71.0535Z" fill="#F2F3F3"/>
<path d="M107.726 74.2322H103.439C103.338 74.2322 103.256 74.3145 103.256 74.4159V75.7135C103.256 75.8149 103.338 75.8972 103.439 75.8972H107.726C107.828 75.8972 107.91 75.8149 107.91 75.7135V74.4159C107.91 74.3145 107.828 74.2322 107.726 74.2322Z" fill="#F2F3F3"/>
<path d="M112.993 74.2322H108.706C108.605 74.2322 108.522 74.3145 108.522 74.4159V75.7135C108.522 75.8149 108.605 75.8972 108.706 75.8972H112.993C113.094 75.8972 113.176 75.8149 113.176 75.7135V74.4159C113.176 74.3145 113.094 74.2322 112.993 74.2322Z" fill="#F2F3F3"/>
<path d="M118.259 74.2322H113.971C113.87 74.2322 113.788 74.3145 113.788 74.4159V75.7135C113.788 75.8149 113.87 75.8972 113.971 75.8972H118.259C118.36 75.8972 118.442 75.8149 118.442 75.7135V74.4159C118.442 74.3145 118.36 74.2322 118.259 74.2322Z" fill="#F2F3F3"/>
<path d="M107.726 77.7389H103.439C103.338 77.7389 103.256 77.8211 103.256 77.9226V79.2201C103.256 79.3216 103.338 79.4038 103.439 79.4038H107.726C107.828 79.4038 107.91 79.3216 107.91 79.2201V77.9226C107.91 77.8211 107.828 77.7389 107.726 77.7389Z" fill="#F2F3F3"/>
<path d="M112.993 77.7389H108.706C108.605 77.7389 108.522 77.8211 108.522 77.9226V79.2201C108.522 79.3216 108.605 79.4038 108.706 79.4038H112.993C113.094 79.4038 113.176 79.3216 113.176 79.2201V77.9226C113.176 77.8211 113.094 77.7389 112.993 77.7389Z" fill="#F2F3F3"/>
<path d="M118.259 77.7389H113.971C113.87 77.7389 113.788 77.8211 113.788 77.9226V79.2201C113.788 79.3216 113.87 79.4038 113.971 79.4038H118.259C118.36 79.4038 118.442 79.3216 118.442 79.2201V77.9226C118.442 77.8211 118.36 77.7389 118.259 77.7389Z" fill="#F2F3F3"/>
<path d="M123.527 71.0535H119.24C119.139 71.0535 119.057 71.1357 119.057 71.2372V72.5347C119.057 72.6362 119.139 72.7184 119.24 72.7184H123.527C123.628 72.7184 123.71 72.6362 123.71 72.5347V71.2372C123.71 71.1357 123.628 71.0535 123.527 71.0535Z" fill="#FECB42"/>
<path d="M123.011 74.0555H119.8C119.547 74.0555 119.343 74.2606 119.343 74.5136V79.5317C119.343 79.7847 119.547 79.9898 119.8 79.9898H123.011C123.263 79.9898 123.468 79.7847 123.468 79.5317V74.5136C123.468 74.2606 123.263 74.0555 123.011 74.0555Z" fill="#97D25E"/>
<path d="M115.684 63.7147H113.454V63.9821H115.684V63.7147Z" fill="#C7CCE1"/>
<path d="M118.807 63.7147H116.577V63.9821H118.807V63.7147Z" fill="#C7CCE1"/>
<path d="M121.929 63.7147H119.699V63.9821H121.929V63.7147Z" fill="#C7CCE1"/>
</g>
<defs>
<linearGradient id="paint0_linear" x1="179.784" y1="187.256" x2="179.784" y2="7.38842e-06" gradientUnits="userSpaceOnUse">
<stop stop-color="#808080" stop-opacity="0.25"/>
<stop offset="0.54" stop-color="#808080" stop-opacity="0.12"/>
<stop offset="1" stop-color="#808080" stop-opacity="0.1"/>
</linearGradient>
<clipPath id="clip0">
<rect width="241" height="189" fill="white"/>
</clipPath>
</defs>
</svg>
