<svg xmlns="http://www.w3.org/2000/svg" xmlns:xlink="http://www.w3.org/1999/xlink" viewBox="0 0 999.45 941.06"><defs><style>.cls-1,.cls-17,.cls-26,.cls-6,.cls-7,.cls-8{opacity:0.11;}.cls-1{fill:url(#linear-gradient);}.cls-2{fill:#5680f9;}.cls-3{fill:#e6e8ef;}.cls-4{fill:#ddd;}.cls-5{fill:#99b3fb;}.cls-6{fill:url(#linear-gradient-2);}.cls-7{fill:url(#linear-gradient-3);}.cls-8{fill:url(#linear-gradient-4);}.cls-9{fill:#7799fa;}.cls-10{fill:#d3deef;}.cls-11{fill:#bcbcbc;}.cls-12{fill:#becff4;}.cls-13{fill:#aac7f7;}.cls-14{fill:#896b3d;}.cls-15{fill:#725a2f;}.cls-16,.cls-18,.cls-24,.cls-25{fill:#174dc6;}.cls-17{fill:url(#linear-gradient-5);}.cls-18,.cls-20{opacity:0.18;}.cls-19{fill:#6f91dd;}.cls-21{fill:#83a6e5;}.cls-22{fill:#b5cdf7;}.cls-23,.cls-28,.cls-29{fill:#004fff;}.cls-24{opacity:0.21;}.cls-25{opacity:0.28;}.cls-26{fill:url(#linear-gradient-6);}.cls-27{fill:#4378d6;}.cls-28{opacity:0.31;}.cls-29{opacity:0.25;}</style><linearGradient id="linear-gradient" x1="155.84" y1="427.06" x2="154.02" y2="288.39" gradientUnits="userSpaceOnUse"><stop offset="0" stop-color="#fff"/><stop offset="1"/></linearGradient><linearGradient id="linear-gradient-2" x1="215.14" y1="468.04" x2="213.31" y2="329.37" xlink:href="#linear-gradient"/><linearGradient id="linear-gradient-3" x1="149.05" y1="505.96" x2="147.23" y2="367.29" xlink:href="#linear-gradient"/><linearGradient id="linear-gradient-4" x1="156.09" y1="748.38" x2="153.5" y2="552.11" xlink:href="#linear-gradient"/><linearGradient id="linear-gradient-5" x1="534.43" y1="1051.31" x2="522.29" y2="130.92" xlink:href="#linear-gradient"/><linearGradient id="linear-gradient-6" x1="881.07" y1="878.4" x2="876.56" y2="535.91" xlink:href="#linear-gradient"/></defs><title>Asset 1</title><g id="Layer_2" data-name="Layer 2"><g id="Layer_4" data-name="Layer 4"><path class="cls-1" d="M199.62,380.45V340.53a3.81,3.81,0,0,0-2.23-3.3L158,316a6.38,6.38,0,0,0-5.86,0l-39.43,21.19c-2.67,1.7-2.38,6.94-2.2,8.31l.19,35a15.72,15.72,0,0,0-.19,4.94v0a3.93,3.93,0,0,0,2.19,2.91l39.43,21.33a6.36,6.36,0,0,0,5.88,0l39.44-21.33a3.82,3.82,0,0,0,2.21-3.32v-4.63Z"/><path class="cls-2" d="M151.88,382.25l-39.44-21.19c-2.67-1.69-2.37-6.93-2.2-8.31.14-1.11,2.09-.3,3.41-1l38.21-18.6a6.38,6.38,0,0,1,5.89,0l39.43,21.33c1.4.76,2.14-2.5,2.21-1.32,0,.06,0,4.55,0,4.61a3.81,3.81,0,0,1-2.22,3.3l-39.43,21.19A6.38,6.38,0,0,1,151.88,382.25Z"/><path class="cls-3" d="M199.39,317l-88.95.78-.2,35h0a3.72,3.72,0,0,0,2.19,3.66l39.44,21.19a6.38,6.38,0,0,0,5.86,0l39.43-21.19a3.82,3.82,0,0,0,2.22-3.26h0Z"/><path class="cls-4" d="M154.76,378.31h0a6.36,6.36,0,0,0,3-.71l39.43-21.19a3.82,3.82,0,0,0,2.22-3.26h0V317l-44.58,23.46Z"/><path class="cls-5" d="M151.88,342.34l-39.44-21.19c-2.67-1.7-2.37-6.94-2.2-8.32.14-1.11,2.09-.3,3.41-1l38.21-18.6a6.38,6.38,0,0,1,5.89,0l39.43,21.33c1.4.76,2.14-2.5,2.21-1.32,0,.06,0,4.55,0,4.61a3.83,3.83,0,0,1-2.22,3.31l-39.43,21.19A6.44,6.44,0,0,1,151.88,342.34Z"/><path class="cls-2" d="M151.88,337.68l-39.44-21.19c-3-1.59-3-5,0-6.59l39.43-21.34a6.44,6.44,0,0,1,5.89,0l39.43,21.34c3,1.6,2.95,5,0,6.59l-39.43,21.19A6.38,6.38,0,0,1,151.88,337.68Z"/><path class="cls-6" d="M258.91,421.43V381.51a3.81,3.81,0,0,0-2.23-3.3L217.25,357a6.38,6.38,0,0,0-5.86,0L172,378.21c-2.67,1.7-2.38,6.93-2.2,8.31l.2,35a15.49,15.49,0,0,0-.2,4.94v0a3.93,3.93,0,0,0,2.19,2.91l39.43,21.33a6.38,6.38,0,0,0,5.89,0l39.43-21.33a3.83,3.83,0,0,0,2.21-3.32v-4.63Z"/><path class="cls-2" d="M211.17,423.23,171.74,402c-2.68-1.69-2.38-6.93-2.21-8.31.14-1.11,2.09-.3,3.41-1l38.21-18.59a6.38,6.38,0,0,1,5.89,0l39.43,21.33c1.4.76,2.14-2.5,2.21-1.32,0,.06,0,4.54,0,4.61a3.79,3.79,0,0,1-2.22,3.3L217,423.23A6.38,6.38,0,0,1,211.17,423.23Z"/><path class="cls-3" d="M258.68,358l-89,.78-.2,35h0a3.72,3.72,0,0,0,2.2,3.66l39.43,21.19a6.38,6.38,0,0,0,5.86,0l39.43-21.19a3.81,3.81,0,0,0,2.22-3.26h0Z"/><path class="cls-4" d="M214.06,419.29h0a6.35,6.35,0,0,0,3-.71l39.43-21.19a3.81,3.81,0,0,0,2.22-3.26h0V358L214.1,381.42Z"/><path class="cls-5" d="M211.17,383.32l-39.43-21.2c-2.68-1.69-2.38-6.93-2.21-8.31.14-1.11,2.09-.3,3.41-1l38.21-18.6a6.38,6.38,0,0,1,5.89,0l39.43,21.33c1.4.76,2.14-2.5,2.21-1.32,0,.06,0,4.55,0,4.61a3.79,3.79,0,0,1-2.22,3.3L217,383.32A6.44,6.44,0,0,1,211.17,383.32Z"/><path class="cls-2" d="M211.17,378.66l-39.43-21.19c-3-1.59-3-5,0-6.59l39.43-21.34a6.44,6.44,0,0,1,5.89,0l39.43,21.34c3,1.59,2.95,5,0,6.59L217,378.66A6.38,6.38,0,0,1,211.17,378.66Z"/><path class="cls-7" d="M192.83,459.36V419.44a3.82,3.82,0,0,0-2.23-3.31l-39.43-21.19a6.38,6.38,0,0,0-5.86,0l-39.43,21.19c-2.67,1.7-2.38,6.94-2.2,8.32l.19,35a15.78,15.78,0,0,0-.19,4.95v0a3.9,3.9,0,0,0,2.19,2.91l39.43,21.33a6.36,6.36,0,0,0,5.88,0l39.44-21.33a3.81,3.81,0,0,0,2.21-3.32h0v-4.6Z"/><path class="cls-2" d="M145.09,461.16,105.65,440c-2.67-1.7-2.37-6.94-2.2-8.32.14-1.11,2.09-.3,3.41-1L145.07,412a6.44,6.44,0,0,1,5.89,0l39.43,21.34c1.4.75,2.14-2.51,2.21-1.33,0,.07,0,4.55,0,4.61a3.82,3.82,0,0,1-2.22,3.31L151,461.16A6.38,6.38,0,0,1,145.09,461.16Z"/><path class="cls-3" d="M192.6,395.89l-88.95.79-.2,35h0a3.71,3.71,0,0,0,2.19,3.66l39.44,21.19a6.38,6.38,0,0,0,5.86,0l39.43-21.19a3.84,3.84,0,0,0,2.22-3.26h0Z"/><path class="cls-4" d="M148,457.21h0a6.24,6.24,0,0,0,3-.71l39.43-21.19a3.84,3.84,0,0,0,2.22-3.26h0V395.89L148,419.35Z"/><path class="cls-5" d="M145.09,421.24l-39.44-21.19c-2.67-1.7-2.37-6.94-2.2-8.32.14-1.11,2.09-.3,3.41-1l38.21-18.59a6.38,6.38,0,0,1,5.89,0l39.43,21.33c1.4.75,2.14-2.51,2.21-1.33,0,.07,0,4.55,0,4.62a3.82,3.82,0,0,1-2.22,3.3L151,421.24A6.38,6.38,0,0,1,145.09,421.24Z"/><path class="cls-2" d="M145.09,416.58l-39.44-21.19c-3-1.59-3-5,0-6.59l39.43-21.33a6.38,6.38,0,0,1,5.89,0l39.43,21.33c3,1.6,3,5,0,6.59L151,416.58A6.38,6.38,0,0,1,145.09,416.58Z"/><path class="cls-8" d="M218,682.41v-50c0-.1,0-6.44,0-6.53a5.4,5.4,0,0,0-3.15-4.68l-55.81-30a9.05,9.05,0,0,0-8.29,0L95,621.24c-3.78,2.4-3.37,9.82-3.12,11.77l.28,49.5a22.65,22.65,0,0,0-.28,7s0,0,0,0A5.53,5.53,0,0,0,95,693.66l55.81,30.19a9,9,0,0,0,8.33,0l55.81-30.19A5.4,5.4,0,0,0,218,689v0c0-.09,0-6,0-6.5Z"/><path class="cls-2" d="M150.47,685,94.66,655c-3.78-2.4-3.36-9.81-3.12-11.76.2-1.57,3-.43,4.83-1.44l54.08-26.32a9.07,9.07,0,0,1,8.33,0l55.81,30.19c2,1.07,3-3.54,3.13-1.87,0,.09,0,6.44,0,6.53a5.39,5.39,0,0,1-3.15,4.67l-55.8,30A9.07,9.07,0,0,1,150.47,685Z"/><path class="cls-3" d="M217.72,592.6l-125.9,1.11-.28,49.5h0a5.26,5.26,0,0,0,3.11,5.17l55.81,30a9.07,9.07,0,0,0,8.3,0l55.8-30a5.4,5.4,0,0,0,3.15-4.61h0Z"/><path class="cls-4" d="M154.56,679.38h0a8.83,8.83,0,0,0,4.21-1l55.8-30a5.4,5.4,0,0,0,3.15-4.61h0V592.6l-63.1,33.19Z"/><path class="cls-5" d="M150.47,628.47l-55.81-30c-3.78-2.41-3.36-9.82-3.12-11.77.2-1.57,3-.43,4.83-1.44L150.45,559a9.07,9.07,0,0,1,8.33,0l55.81,30.2c2,1.07,3-3.55,3.13-1.88,0,.09,0,6.44,0,6.53a5.42,5.42,0,0,1-3.15,4.68l-55.8,30A9.07,9.07,0,0,1,150.47,628.47Z"/><path class="cls-2" d="M150.47,621.88l-55.81-30c-4.19-2.26-4.2-7.07,0-9.33l55.81-30.2a9.07,9.07,0,0,1,8.33,0l55.81,30.2c4.18,2.26,4.17,7.07,0,9.33l-55.8,30A9.07,9.07,0,0,1,150.47,621.88Z"/><g id="Layer_6" data-name="Layer 6"><path class="cls-9" d="M308.26,171.22a258.54,258.54,0,0,1,37.62,17.87c21.08,12.08,62.95,31.14,135.65,28.81a7.21,7.21,0,0,0,6-4.16,40.49,40.49,0,0,0,3.61-10.2,6.2,6.2,0,0,0-6-7.39c-23.71-.38-103.47-6.74-126.34-26.25C331,146.13,328,145.11,328,145.11Z"/><path class="cls-2" d="M325.08,138.5l10.7,8.1s-13.35-16.6,16.58-44.41l-.26-1.12-22.18,13.35-6.44,21.34Z"/><path class="cls-10" d="M297,154.36a5.51,5.51,0,0,1,.47,1.41A5.2,5.2,0,0,0,297,154.36Z"/><path class="cls-10" d="M297.65,156.86v0Z"/><path class="cls-10" d="M297.54,156h0Z"/><path class="cls-5" d="M297.66,157.52h0a14.06,14.06,0,0,1-.48,3.36c-1.45,5.56-10.74,7.12-10.74,7.12s10.56,30,16.87,16.67c3.6-7.62,9.71-8.6,14.29-8a18.3,18.3,0,0,0,16.47-6.5A20.94,20.94,0,0,0,339,155.47c-.91-15.63-13.88-17-13.88-17S312,156.11,307.75,158.69,297.66,157.52,297.66,157.52Z"/><path class="cls-11" d="M297.65,156.86a7.56,7.56,0,0,0-.11-.91C297.59,156.24,297.62,156.54,297.65,156.86Z"/><path class="cls-11" d="M297.66,157.52c0-.2,0-.39,0-.57Z"/><path class="cls-11" d="M297.54,155.94l0-.17Z"/><path class="cls-12" d="M341.62,99.75c-12.76,3.72-20.94,19-20.94,19,1.85-9,11.14-19.46,11.14-19.46l-4-.87c-14,8.19-19.36,31-20.88,39.41h0l-9.77,14.47a2.07,2.07,0,0,0-.13,2.07v0a5.2,5.2,0,0,1,.47,1.41l0,.17h0a7.56,7.56,0,0,1,.11.91V157c0,.18,0,.37,0,.57h0s5.82,3.74,10.09,1.17,17.33-20.19,17.33-20.19c5.93-22.56,27-37.43,27-37.43Z"/><path class="cls-13" d="M280.19,187.33l-3.36.81s-5.66-5.78,9.12-20.55a10.28,10.28,0,0,1,15.07.56,33.9,33.9,0,0,1,5.85,10.77,16.88,16.88,0,0,1-1.42,14.38c-4.47,7.43-11.66,17.79-13.78,11.42C288.52,195.26,280.19,187.33,280.19,187.33Z"/><path class="cls-14" d="M311.15,140.67s-2.2-.81-7.68,6c-2.23,2.76-3.72,3.37-3.33,4.38,0,.08,1,1.32,1.09,1.38a5.38,5.38,0,0,0,2.7,1.42s4.15,1.12,8.75-5.79a5.3,5.3,0,0,0,1.13-4A5.11,5.11,0,0,0,311.15,140.67Z"/><path class="cls-15" d="M310.94,140.53s-3.29-2-8.78,4.77.52,7,.52,7,4.09,1.31,8.7-5.6C311.38,146.68,315,142.26,310.94,140.53Z"/><ellipse class="cls-16" cx="285.5" cy="195.1" rx="5.33" ry="14.62" transform="translate(-59.82 213.19) rotate(-37.35)"/><path class="cls-17" d="M825,742V507.64c0-.43,0-30.18,0-30.62,0-8.31-4.92-16.63-14.77-21.92L548.47,314.45a42.43,42.43,0,0,0-38.89,0L247.86,455.1c-17.75,11.27-15.79,46-14.62,55.19l1.31,232.13c-3,13.13-2,27.43-1.31,32.82,0,.07,0,.11,0,.18.91,7.39,5.72,14.54,14.5,19.29L509.49,936.29a42.39,42.39,0,0,0,39.07,0L810.27,794.71c9.86-5.33,14.74-13.68,14.68-22a.41.41,0,0,1,0-.11c0-.41,0-28.35,0-30.49Z"/><path class="cls-2" d="M508.08,754,246.37,613.3c-17.75-11.27-15.79-46-14.62-55.2.93-7.36,13.88-2,22.62-6.72L508,428a42.39,42.39,0,0,1,39.07,0L808.78,569.54c9.27,5,14.19-16.62,14.68-8.79,0,.43,0,30.19,0,30.62,0,8.32-4.91,16.63-14.77,21.93L547,754A42.45,42.45,0,0,1,508.08,754Z"/><path class="cls-3" d="M823.46,320.77,233.06,326,231.75,558.1h0c-1,9.08,3.8,18.49,14.59,24.29L508.08,723a42.45,42.45,0,0,0,38.9,0L808.69,582.39c9.75-5.23,14.65-13.42,14.76-21.64h0Z"/><path class="cls-4" d="M527.25,727.75h0A41.39,41.39,0,0,0,547,723L808.69,582.39c9.75-5.23,14.65-13.42,14.76-21.64h0v-240L527.55,476.44Z"/><path class="cls-5" d="M508.08,489,246.37,348.35c-17.75-11.27-15.79-46-14.62-55.2.93-7.36,13.88-2,22.62-6.72L508,163a42.39,42.39,0,0,1,39.07,0L808.78,304.59c9.27,5,14.19-16.62,14.68-8.79,0,.43,0,30.19,0,30.62,0,8.32-4.91,16.63-14.77,21.93L547,489A42.45,42.45,0,0,1,508.08,489Z"/><path class="cls-2" d="M508.08,458.09,246.37,317.44c-19.65-10.56-19.7-33.14-.09-43.75L508,132.1a42.45,42.45,0,0,1,39.07,0L808.78,273.69c19.61,10.61,19.57,33.19-.09,43.75L547,458.09A42.45,42.45,0,0,1,508.08,458.09Z"/></g><path class="cls-18" d="M129.73,586c-.39-9.37-7.88-10.52-13.56-10-10.89-16.6-33.49-37.15-72.36-14.83l-.92-.41S12.65,575.46,7.6,597.47c-4.29,18.67.74,27.86.74,27.86l.94.47A120.16,120.16,0,0,0,19,651.93L7.14,668.19s-4.6,7.18-1.43,12.34c9.64,13.18,31.3,8.83,35,8.39s15.06-6,25.55-16.71,16.57-16,21.47-21.64C119.63,622.79,130.37,601.16,129.73,586Z"/><path class="cls-16" d="M105.25,563.1s19.25-6.36,19.89,8.8-10.11,36.8-42,64.57c-4.91,5.66-11,10.89-21.48,21.64s-21.81,16.27-25.54,16.71-25.38,4.8-35-8.39c-3.16-5.16,1.44-12.34,1.44-12.34L18,632.86Z"/><path class="cls-9" d="M16.53,642s14.08,26.1,58.64-5.1c16.76-14,42.16-36.33,44.54-58.91,0,0-24.51-73.71-92.77-22.79C16.35,564.91-14.92,582.35,16.53,642Z"/><path class="cls-16" d="M11.83,615.31s-15.54-31.15,17.82-55.65l16.86-9.4.9,2.14a113,113,0,0,0-24.73,25.74A41.15,41.15,0,0,0,15.51,600L15,614.76Z"/><path class="cls-19" d="M11.83,615.31a40.39,40.39,0,0,1,8.09-39.6c16.35-18.65,26.59-25.45,26.59-25.45l-8.22-3.62S8.06,561.36,3,583.37c-4.28,18.67.75,27.86.75,27.86Z"/><path class="cls-16" d="M60.7,626.33S28.57,607.23,54,584.54s44.56,2.29,44.56,2.29S91.21,607.87,60.7,626.33Z"/><g class="cls-20"><path class="cls-16" d="M461.12,368.38l17.37-11.49a2.8,2.8,0,0,0,1.23-2.71,2.74,2.74,0,0,1-1.09,1.35l-17.24,11.24a3.42,3.42,0,0,0-1.54,3.15A3.42,3.42,0,0,1,461.12,368.38Z"/><path class="cls-16" d="M478.79,350.92,457.66,335a4.55,4.55,0,0,0-4.55-.55,10.22,10.22,0,0,0-12.95-4.74h0l-.09.05a9.7,9.7,0,0,0-1.74.93l-39.95,21.36h0a10.28,10.28,0,0,0,9.74,18.09h0l40.66-21.79h0a10.24,10.24,0,0,0,5-12.4,4.58,4.58,0,0,1,3.9.74l21,15.59a2.75,2.75,0,0,1,1.11,1.9A2.81,2.81,0,0,0,478.79,350.92Z"/><path class="cls-16" d="M511.46,393.81h0l-33.95-15.57h0a1.28,1.28,0,0,0-.28-.07c-1.09-.13-2.2,1.22-2.77,3.21l-13.11-8.91a3.37,3.37,0,0,1-1.49-2.55,3.43,3.43,0,0,0,1.22,4.15L474.12,383c-.26,2.13.16,4,1,4.89h0l0,0a1.49,1.49,0,0,0,.28.24l30.27,25.42a4.07,4.07,0,0,0,2.59,1.51c3.31.41,6.59-4.05,7.31-10C516.25,399.57,514.44,394.71,511.46,393.81Z"/></g><circle class="cls-16" cx="444.52" cy="328.06" r="10.28"/><polygon class="cls-16" points="396.28 344.26 398.88 340.88 440.66 318.53 449.27 337.18 408.61 358.98 406.56 358.24 396.28 344.26"/><circle class="cls-21" cx="404.08" cy="349.74" r="10.28"/><path class="cls-16" d="M438,331.5l15.29-8.06a4.58,4.58,0,0,1,4.9.39l21.13,15.92a2.82,2.82,0,0,1-.16,4.61L461.9,355.59a3.43,3.43,0,0,0-.06,5.71l14.92,10.14-.21,1.73-15-10.28a3.42,3.42,0,0,1,.05-5.68L479,345.71a2.82,2.82,0,0,0,.13-4.61l-21-15.59a4.58,4.58,0,0,0-4.9-.36l-15.18,8.12Z"/><ellipse class="cls-16" cx="477.1" cy="372.11" rx="5.15" ry="2.49" transform="translate(49.47 800.15) rotate(-82.98)"/><polygon class="cls-16" points="507.21 403.28 475.59 376.74 478.01 367.06 511.97 382.63 507.21 403.28"/><ellipse class="cls-22" cx="510.07" cy="393.22" rx="10.79" ry="6.04" transform="translate(57.45 851.4) rotate(-82.98)"/><path class="cls-23" d="M575.2,73.18c6.71-10.51,13-20.28,13-20.28s-3.3,10.86-7.13,23.42l5.39,2.87c3.19-6.37,5.55-11,5.55-11v14l17,9,4-8s-.75,3.86-1.77,9.16l4.5,2.39c2.83-7,5.43-12.37,6.43-11.38S623.55,91,623.72,99L639,107.14l.39,0,7.28-9.58-2.61,10.24,10.09,1.42L667.9,11.81,584,0l-10.2,72.45Z"/><g class="cls-20"><path class="cls-16" d="M655,90.57l14.34,2.84a2,2,0,0,0,2-.74,2,2,0,0,1-1.21.13L656,89.9a2.38,2.38,0,0,0-2.32.82A2.39,2.39,0,0,1,655,90.57Z"/><path class="cls-16" d="M672.48,90.58l-2.7-18.38a3.19,3.19,0,0,0-2-2.52,7.18,7.18,0,0,0-4.13-8.76h0l-.07,0a6.77,6.77,0,0,0-1.33-.39l-30.49-9h0a7.05,7.05,0,0,0-3.62,0,7.22,7.22,0,0,0-.45,13.82h0l31.07,9.18h0a7.07,7.07,0,0,0,4,.08,7.19,7.19,0,0,0,4.63-3.81A3.22,3.22,0,0,1,669,73l2.77,18.13a1.92,1.92,0,0,1-.39,1.5A2,2,0,0,0,672.48,90.58Z"/><path class="cls-16" d="M667.62,128.12h0l-9.27-24.54h0a.77.77,0,0,0-.1-.18c-.48-.61-1.71-.48-3,.23l-2.14-10.91a2.35,2.35,0,0,1,.52-2,2.39,2.39,0,0,0-1.44,2.67l2.09,10.91a4.57,4.57,0,0,0-1.93,2.92h0v0a1.09,1.09,0,0,0,0,.26L655,135.14a2.86,2.86,0,0,0,.54,2c1.45,1.83,5.29,1.22,8.57-1.37C667.17,133.36,668.66,130,667.62,128.12Z"/></g><circle class="cls-16" cx="666.65" cy="62.24" r="7.22"/><polygon class="cls-16" points="634.57 46.52 637.53 46.11 669.42 55.58 664.52 69.14 633.46 59.96 632.8 58.58 634.57 46.52"/><circle class="cls-21" cx="635.75" cy="53.11" r="7.22"/><path class="cls-16" d="M661.69,60.74l11.61,3.51a3.23,3.23,0,0,1,2.25,2.62l2.7,18.38a2,2,0,0,1-2.36,2.22l-14.15-2.9a2.41,2.41,0,0,0-2.85,2.82l2.45,12.43-1,.76L658,88.06a2.41,2.41,0,0,1,2.83-2.82l14.34,2.83a2,2,0,0,0,2.34-2.24L674.72,67.7a3.24,3.24,0,0,0-2.27-2.6l-11.59-3.43Z"/><ellipse class="cls-16" cx="661.18" cy="100.32" rx="3.62" ry="1.75" transform="matrix(0.78, -0.62, 0.62, 0.78, 80.2, 431.51)"/><polygon class="cls-16" points="660.83 130.75 658.14 101.89 664.12 98.25 673.39 122.79 660.83 130.75"/><ellipse class="cls-22" cx="667.22" cy="127.14" rx="7.57" ry="4.24" transform="translate(64.87 441.03) rotate(-38.31)"/><path class="cls-24" d="M554.18,151.88l-19.35,26.69a11.38,11.38,0,0,0-2.81,3.52s-3.38,5.6,4.77,7.72c12.59,3.27-45.87,32.51-58.41,38.29a5.15,5.15,0,0,0-2.85,3.42h0a4.85,4.85,0,0,0-.15,1h0c-.82,3.24,3.57,11.16,6.92,11.21a9.9,9.9,0,0,0,7.27-2.6c10.26-8.64,43.06-35.72,56.28-39.93a5.18,5.18,0,0,1,3.83.25c2.37,1.16,2.78,3,3.42,3.72A6,6,0,0,0,558.7,207c2.17-.49,4.32-1.47,7.81-4l30.42-18V178.8ZM534.42,200.2c-1.73,1.08-3.62,2.28-5.65,3.58C530.73,202.48,532.62,201.28,534.42,200.2Z"/><path class="cls-9" d="M552.5,175.64s1-1.28-.09.94c-1.43,2.79,3.59,7.16-10.58,15.13-11.5,6.48-47.82,31.56-60.36,37.33-1.42.65-2.18-3.33-2.57-1.82l-2.25.5c-.83,3.25,3.56,11.16,6.92,11.21h0a9.87,9.87,0,0,0,7.26-2.59c10.26-8.65,43.07-35.72,56.28-39.93a5.13,5.13,0,0,1,3.83.24c2.38,1.16,2.78,3,3.42,3.73a5.92,5.92,0,0,0,5.61,1.84c2.17-.48,4.33-1.47,7.81-4C575.18,192.76,561.71,178.46,552.5,175.64Z"/><polygon class="cls-9" points="566.53 191.85 566.53 191.85 567.78 198.19 598.21 180.21 598.21 174.01 566.53 191.85"/><path class="cls-5" d="M536.1,173.78a11.54,11.54,0,0,0-2.81,3.52s-3.38,5.6,4.77,7.72c12.59,3.28-45.87,32.52-58.41,38.29a5.17,5.17,0,0,0-2.85,3.43h0a5.18,5.18,0,0,0,4.95,6.46l2.19,0a5.2,5.2,0,0,0,3.43-1.23c7.74-6.57,43.88-36.85,57.92-41.32a5.16,5.16,0,0,1,3.84.25c2.37,1.15,2.78,3,3.42,3.72a5.9,5.9,0,0,0,5.61,1.84,19.82,19.82,0,0,0,8.37-4.64C573.51,185.9,545.31,176.59,536.1,173.78Z"/><polygon class="cls-16" points="555.46 147.1 536.1 173.78 566.53 191.85 598.21 174.01 555.46 147.1"/><path class="cls-24" d="M738.65,266.62,719.3,293.3a11.38,11.38,0,0,0-2.81,3.52s-3.38,5.6,4.77,7.72c12.59,3.27-45.87,32.52-58.41,38.29a5.14,5.14,0,0,0-2.85,3.43h0a4.75,4.75,0,0,0-.15,1h0c-.83,3.25,3.57,11.16,6.92,11.21a9.91,9.91,0,0,0,7.27-2.59c10.26-8.65,43.06-35.73,56.28-39.93a5.13,5.13,0,0,1,3.83.24c2.37,1.16,2.78,3,3.42,3.73a5.91,5.91,0,0,0,5.61,1.84c2.17-.48,4.32-1.47,7.81-4l30.42-18v-6.2Zm-19.77,48.31c-1.72,1.08-3.61,2.28-5.64,3.58C715.2,317.21,717.09,316,718.88,314.93Z"/><path class="cls-9" d="M737,290.38s1-1.29-.09.93c-1.43,2.79,3.59,7.16-10.58,15.14-11.5,6.47-47.82,31.55-60.36,37.32-1.42.66-2.18-3.33-2.57-1.81l-2.25.49c-.83,3.25,3.56,11.17,6.92,11.21h0a9.83,9.83,0,0,0,7.26-2.59c10.26-8.65,43.07-35.72,56.28-39.93a5.13,5.13,0,0,1,3.83.25c2.38,1.16,2.78,3,3.42,3.72a5.92,5.92,0,0,0,5.61,1.84c2.17-.48,4.33-1.47,7.81-4C759.65,307.49,746.18,293.19,737,290.38Z"/><polygon class="cls-9" points="751 306.59 751 306.59 752.25 312.92 782.68 294.94 782.68 288.74 751 306.59"/><path class="cls-5" d="M720.57,288.51a11.54,11.54,0,0,0-2.81,3.52s-3.38,5.61,4.77,7.72c12.59,3.28-45.87,32.52-58.41,38.29a5.21,5.21,0,0,0-2.85,3.43h0a5.18,5.18,0,0,0,5,6.46l2.19,0a5.21,5.21,0,0,0,3.43-1.24c7.74-6.57,43.88-36.85,57.92-41.32a5.21,5.21,0,0,1,3.84.25c2.37,1.16,2.78,3,3.42,3.72a5.9,5.9,0,0,0,5.61,1.84,19.89,19.89,0,0,0,8.37-4.63C758,300.63,729.78,291.33,720.57,288.51Z"/><polygon class="cls-16" points="739.93 261.83 720.57 288.51 751 306.59 782.68 288.74 739.93 261.83"/><path class="cls-16" d="M272.7,315.35s-1.17-5.12-1.17-6V262c0-.92.53-1.67,1.17-1.67h0c.65,0,1.18.75,1.18,1.67v47.3C273.88,310.23,272.7,315.35,272.7,315.35Z"/><path class="cls-9" d="M272.7,315.35s-3-5.12-3-6V262c0-.92.53-1.67,1.17-1.67h0c.65,0,1.18.75,1.18,1.67v47.3C272.09,310.23,272.7,315.35,272.7,315.35Z"/><path class="cls-16" d="M272.7,315.35s.62-5.12.62-6V262c0-.92.53-1.67,1.18-1.67h0c.65,0,1.17.75,1.17,1.67v47.3C275.67,310.23,272.7,315.35,272.7,315.35Z"/><path class="cls-5" d="M280,260.81c0,1.72-3.26,3.12-7.29,3.12s-7.28-1.4-7.28-3.12c0-.11,0-2.25,0-2.36.37-1.57,3.51-.77,7.28-.77,3.95,0,7.17-.78,7.29.9Z"/><ellipse class="cls-9" cx="272.67" cy="258.58" rx="7.29" ry="3.13"/><polygon class="cls-25" points="321.55 308.11 321.52 310.11 275.67 309.31 272.7 315.35 321.45 315.28 321.43 317.49 323.48 317.37 323.48 308.21 321.55 308.11"/><path class="cls-5" d="M390.69,370.08c0,1.73-3.26,3.13-7.29,3.13s-7.28-1.4-7.28-3.13c0-.11,0-2.25,0-2.35.37-1.58,3.51-.77,7.28-.77,4,0,7.16-.79,7.29.89Z"/><ellipse class="cls-9" cx="383.4" cy="367.85" rx="7.29" ry="3.13"/><path class="cls-5" d="M450.31,402.65c0,1.72-3.26,3.12-7.28,3.12s-7.29-1.4-7.29-3.12c0-.11,0-2.25,0-2.36.37-1.57,3.51-.77,7.29-.77,3.94,0,7.16-.78,7.28.9C450.32,400.45,450.31,402.61,450.31,402.65Z"/><ellipse class="cls-9" cx="443.03" cy="400.42" rx="7.29" ry="3.13"/><path class="cls-5" d="M520.38,438.87c0,1.73-3.27,3.13-7.29,3.13s-7.29-1.4-7.29-3.13c0-.11,0-2.25,0-2.35.38-1.58,3.52-.78,7.29-.78,3.94,0,7.16-.78,7.29.9Z"/><ellipse class="cls-9" cx="513.09" cy="436.64" rx="7.29" ry="3.13"/><path class="cls-26" d="M989.18,763.29v-87.2c0-.16,0-11.23,0-11.39,0-3.1-1.83-6.19-5.49-8.16L886.3,604.2a15.79,15.79,0,0,0-14.47,0l-97.39,52.34c-6.6,4.19-5.88,17.13-5.44,20.54l.49,86.37a39,39,0,0,0-.49,12.22s0,0,0,.06c.34,2.75,2.13,5.41,5.4,7.18l97.38,52.69a15.82,15.82,0,0,0,14.54,0l97.39-52.69c3.67-2,5.48-5.09,5.46-8.19v0c0-.15,0-10.55,0-11.34Z"/><path class="cls-2" d="M871.27,767.74l-97.38-52.33c-6.61-4.2-5.88-17.13-5.45-20.54.35-2.74,5.17-.74,8.42-2.5l94.38-45.93a15.82,15.82,0,0,1,14.54,0l97.39,52.69c3.44,1.86,5.28-6.19,5.46-3.28,0,.16,0,11.24,0,11.4,0,3.09-1.83,6.19-5.5,8.16l-97.38,52.33A15.81,15.81,0,0,1,871.27,767.74Z"/><path class="cls-3" d="M988.63,606.55l-219.7,1.94-.49,86.38h0c-.38,3.37,1.42,6.88,5.44,9l97.38,52.33a15.81,15.81,0,0,0,14.48,0l97.38-52.33c3.63-1.95,5.45-5,5.49-8.06h0Z"/><path class="cls-4" d="M878.4,758h0a15.46,15.46,0,0,0,7.35-1.76l97.38-52.33c3.63-1.95,5.45-5,5.49-8.06h0v-89.3L878.52,664.48Z"/><path class="cls-5" d="M871.27,669.15l-97.38-52.33c-6.61-4.2-5.88-17.14-5.45-20.54.35-2.74,5.17-.75,8.42-2.5l94.38-45.93a15.76,15.76,0,0,1,14.54,0l97.39,52.68c3.44,1.87,5.28-6.18,5.46-3.27,0,.16,0,11.24,0,11.4,0,3.09-1.83,6.19-5.5,8.16l-97.38,52.33A15.81,15.81,0,0,1,871.27,669.15Z"/><path class="cls-2" d="M871.27,657.65l-97.38-52.33c-7.32-3.94-7.34-12.34,0-16.29l97.39-52.68a15.76,15.76,0,0,1,14.54,0L983.17,589c7.29,4,7.28,12.35,0,16.29l-97.38,52.33A15.81,15.81,0,0,1,871.27,657.65Z"/><path class="cls-27" d="M836.86,544.17l-.52,3.8a1.88,1.88,0,0,1-.6,1.14l-2.36,2.09a1.87,1.87,0,0,1-1.23.47h-6.46a1.86,1.86,0,0,0-1.74,2.51h0a1.85,1.85,0,0,0,1.74,1.21h8.15a1.84,1.84,0,0,1,1.62,1l1,1.72a1.86,1.86,0,0,0,2.65.63l.79-.53a1.85,1.85,0,0,0,.4-2.73l-1.42-1.71a1.85,1.85,0,0,1-.28-1.94l2.55-5.77a1.85,1.85,0,0,0-.29-2l-.72-.84A1.86,1.86,0,0,0,836.86,544.17Z"/><path class="cls-16" d="M946.48,690.14a7.1,7.1,0,0,0,1.4,9.31,16.71,16.71,0,0,1,3.87,5.15c4.44,8.47,33.25,31.19,33.25,31.19s3.3,2.68,6.5,0c2.36-2,3.82-3.23,5.42-4.49a6.81,6.81,0,0,0,2.19-2.9c.54-1.39.66-3.13-1.26-4.22-2.9-1.66-23.31-18.09-32.07-24a20.33,20.33,0,0,0-5.42-2.64c-2-.59-5-2.39-7.68-7.82C950.67,685.62,948.36,687.27,946.48,690.14Z"/><polygon class="cls-27" points="841.72 566.98 846.37 572.3 851.87 568.14 847.3 562.02 841.72 566.98"/><path class="cls-27" d="M939.46,696.85a5.73,5.73,0,0,0,7.74,2l6.41-5.06s6-4.33-2.69-8.26S939.46,696.85,939.46,696.85Z"/><polygon class="cls-27" points="928.2 677.09 936.52 685.97 940.13 680.67 931.97 672.28 928.2 677.09"/><path class="cls-9" d="M832.5,567.75a7.12,7.12,0,0,1,1-10c6-4.89,18.14-12.11,29.23-18.36a34.22,34.22,0,0,1,43.06,7.87c18.65,22.31,45.65,57.78,62.78,81.12a35.69,35.69,0,0,1-2.92,45.7c-9.91,10.45-23,20.56-30.12,25.59a7.11,7.11,0,0,1-9.69-1.39l-.69-.87a7.11,7.11,0,0,1,1.24-10.06c6.67-5.13,17.52-14.55,26.21-22.24a19.87,19.87,0,0,0,2.59-27c-16.68-21.72-47.9-61.7-63.75-82a17.66,17.66,0,0,0-23.34-4.06c-7.3,4.61-16.71,10.67-26.11,17a7.12,7.12,0,0,1-9.53-1.42Z"/><polygon class="cls-16" points="852.18 565.43 936.18 673.01 927.69 680.67 843.35 572.3 852.18 565.43"/><path class="cls-28" d="M628.78,335.63h0l-.06,0-.07,0L570.1,302a5.14,5.14,0,0,0-1.36-.79h0a3.68,3.68,0,0,0-.59-.18c-2.49-.59-5.12.88-6.92,3.52l-74.62-45.9-1.45,4,74.25,46.16a.14.14,0,0,0,0,.07c-1,4.06.08,7.93,2.33,9.81h0l0,0a5.36,5.36,0,0,0,1.5.86L621.37,353a4.86,4.86,0,0,0,.7.4l.1.06h0a4.37,4.37,0,0,0,.88.31c3.64.85,7.56-2.65,8.76-7.81C632.85,341.48,631.52,337.24,628.78,335.63Z"/><polygon class="cls-22" points="485.14 250.54 579.42 309.16 580.94 304.62 486.59 246.58 485.14 250.54"/><ellipse class="cls-9" cx="565.95" cy="298.3" rx="9.6" ry="6.76" transform="translate(146.91 781.72) rotate(-76.87)"/><polygon class="cls-9" points="561.69 306.6 622.17 341.41 628.79 323.58 568.73 289.14 561.69 306.6"/><ellipse class="cls-23" cx="625.23" cy="332.37" rx="9.6" ry="6.76" transform="translate(159.55 865.77) rotate(-76.87)"/><path class="cls-29" d="M536.74,322.73h0l0,0-.06,0L493,299.1a3.61,3.61,0,0,0-1-.55h0l-.43-.11c-1.78-.29-3.47,1.13-4.47,3.47l-56-32.64-.64,3.42,55.71,32.88s0,0,0,.06c-.28,3.46.78,6.62,2.52,8h0a3.28,3.28,0,0,0,1.11.61l43.38,23.52a3.74,3.74,0,0,0,.52.28l.07,0h0a2.29,2.29,0,0,0,.63.19c2.6.43,5-2.78,5.36-7.18C540.1,327.31,538.78,323.87,536.74,322.73Z"/><polygon class="cls-22" points="430.45 264.5 501.19 306.25 501.83 302.35 431.09 261.07 430.45 264.5"/><ellipse class="cls-9" cx="490.86" cy="298.22" rx="8.01" ry="4.75" transform="translate(174.63 777.67) rotate(-87.87)"/><polygon class="cls-9" points="488.66 305.46 533.78 329.93 536.74 314.53 491.94 290.36 488.66 305.46"/><ellipse class="cls-23" cx="535.08" cy="322.14" rx="8.01" ry="4.75" transform="translate(193.3 844.9) rotate(-87.87)"/><path class="cls-29" d="M623.28,294.12h0l0,0,0,0L579.51,270.5a3.41,3.41,0,0,0-1-.56h0l-.43-.11c-1.78-.29-3.47,1.13-4.48,3.47l-55.94-32.64-.64,3.42L572.7,277v0c-.29,3.46.78,6.62,2.51,8h0a3.33,3.33,0,0,0,1.12.61l43.37,23.52a4.41,4.41,0,0,0,.52.28l.08,0h0a2.47,2.47,0,0,0,.64.19c2.6.44,5-2.78,5.36-7.18C626.64,298.7,625.33,295.26,623.28,294.12Z"/><polygon class="cls-22" points="517 235.89 587.74 277.65 588.38 273.74 517.64 232.47 517 235.89"/><ellipse class="cls-9" cx="577.4" cy="269.61" rx="8.01" ry="4.75" transform="translate(286.55 836.61) rotate(-87.87)"/><polygon class="cls-9" points="575.21 276.85 620.33 301.32 623.28 285.93 578.49 261.75 575.21 276.85"/><ellipse class="cls-23" cx="621.62" cy="293.53" rx="8.01" ry="4.75" transform="translate(305.22 903.83) rotate(-87.87)"/></g></g></svg>